SplineFontDB: 3.2
FontName: starship
FullName: Starship
FamilyName: starship
Weight: Regular
Copyright: copyright missing
Version: 001.001
ItalicAngle: 0
UnderlinePosition: -153.6
UnderlineWidth: 51.2
Ascent: 819
Descent: 205
InvalidEm: 0
sfntRevision: 0x00000000
LayerCount: 2
Layer: 0 0 "Back" 1
Layer: 1 0 "Fore" 0
XUID: [1021 382 560324961 5286059]
StyleMap: 0x0040
FSType: 8
OS2Version: 3
OS2_WeightWidthSlopeOnly: 0
OS2_UseTypoMetrics: 0
CreationTime: 1522789984
ModificationTime: 1669387670
PfmFamily: 81
TTFWeight: 400
TTFWidth: 5
LineGap: 0
VLineGap: 0
Panose: 0 0 0 0 0 0 0 0 0 0
OS2TypoAscent: 983
OS2TypoAOffset: 0
OS2TypoDescent: -66
OS2TypoDOffset: 0
OS2TypoLinegap: 66
OS2WinAscent: 983
OS2WinAOffset: 0
OS2WinDescent: 66
OS2WinDOffset: 0
HheadAscent: 983
HheadAOffset: 0
HheadDescent: -66
HheadDOffset: 0
OS2SubXSize: 666
OS2SubYSize: 614
OS2SubXOff: 0
OS2SubYOff: 77
OS2SupXSize: 666
OS2SupYSize: 614
OS2SupXOff: 0
OS2SupYOff: 358
OS2StrikeYSize: 51
OS2StrikeYPos: 225
OS2Vendor: '    '
OS2CodePages: 00000001.00000000
OS2UnicodeRanges: 00000001.10000000.00000000.00000000
MarkAttachClasses: 1
DEI: 91125
LangName: 1033 "" "" "" "" "" "Version 0.000;PS 000.000;hotconv 1.0.88;makeotf.lib2.5.64775"
Encoding: UnicodeBmp
UnicodeInterp: none
NameList: AGL For New Fonts
DisplaySize: -48
AntiAlias: 1
FitToEm: 0
WinInfo: 59622 38 14
BeginPrivate: 7
BlueScale 5 0.037
BlueShift 2 20
BlueFuzz 1 0
StdHW 5 [186]
StdVW 4 [50]
StemSnapH 11 [49 63 186]
StemSnapV 4 [50]
EndPrivate
BeginChars: 65538 131

StartChar: glyph1
Encoding: 65537 -1 4
Width: 0
GlyphClass: 2
Flags: HW
LayerCount: 2
Fore
SplineSet
0 0 m 1024
EndSplineSet
EndChar

StartChar: uniEB00
Encoding: 60160 60160 6
Width: 880
Flags: HW
HStem: 617 204<325 556>
VStem: 34 147<311 506> 699 147<311 506>
LayerCount: 2
Fore
SplineSet
440 821 m 4
 664 821 846 632 846 399 c 4
 846 213 730 56 569 -0 c 4
 548 -4 541 9 541 20 c 6
 541 135 l 6
 541 174 529 200 514 213 c 5
 604 223 699 259 699 421 c 4
 699 467 684 505 658 534 c 5
 662 545 676 588 654 646 c 5
 654 646 619 658 542 603 c 5
 510 612 474 617 440 617 c 4
 406 617 371 612 339 603 c 5
 261 658 227 646 227 646 c 5
 205 588 219 545 223 534 c 5
 197 505 181 467 181 421 c 4
 181 260 276 224 366 213 c 5
 354 203 345 184 341 157 c 5
 318 146 258 128 222 192 c 5
 222 192 201 232 160 235 c 5
 160 235 120 236 157 210 c 5
 157 210 184 197 202 148 c 5
 202 148 226 73 339 98 c 5
 340 20 l 6
 340 9 332 -4 312 -0 c 4
 151 56 34 213 34 399 c 4
 34 632 216 821 440 821 c 4
EndSplineSet
EndChar

StartChar: uniEB03
Encoding: 60163 60163 7
Width: 917
Flags: HW
VStem: 91 151<315 504> 676 151<315 504>
LayerCount: 2
Fore
SplineSet
800 182 m 1
 486 0 l 1
 486 175 l 1
 649 269 l 1
 800 182 l 1
432 0 m 1
 117 182 l 1
 269 269 l 1
 432 175 l 1
 432 0 l 1
459 221 m 1
 459 221 l 1
 295 315 l 1
 295 504 l 1
 459 598 l 1
 622 504 l 1
 622 315 l 1
 459 221 l 1
91 591 m 1
 91 591 l 1
 242 504 l 1
 242 315 l 1
 91 228 l 1
 91 591 l 1
760 553 m 1
 827 591 l 1
 827 228 l 1
 676 315 l 1
 676 504 l 1
 760 553 l 1
117 638 m 1
 432 819 l 1
 432 645 l 1
 269 550 l 1
 117 638 l 1
649 550 m 1
 485 645 l 1
 485 819 l 1
 800 638 l 1
 649 550 l 1
EndSplineSet
EndChar

StartChar: uniEB06
Encoding: 60166 60166 8
Width: 1158
VWidth: 1073
Flags: HW
HStem: 159 78 467 47 620 43 729 72 753 48
VStem: 75 62 273 58 827 59 1000 58
LayerCount: 2
Fore
SplineSet
346 409 m 1xf780
 346 396 347 385 349 378 c 0
 352 370 355 360 360 351 c 0
 362 348 364 345 364 343 c 0
 364 340 360 336 356 333 c 2
 335 317 l 2
 332 315 328 314 325 314 c 0
 322 314 317 315 314 318 c 0
 309 323 305 330 301 336 c 0
 297 343 294 350 291 357 c 1
 262 324 227 308 185 308 c 0
 154 308 132 318 115 334 c 0
 98 350 87 372 87 401 c 0
 87 432 97 458 120 476 c 0
 143 494 171 504 208 504 c 0
 220 504 233 502 246 500 c 0
 259 498 273 496 287 493 c 1
 287 519 l 2
 287 547 280 564 269 575 c 0
 258 586 240 593 212 593 c 0
 200 593 186 591 173 588 c 0
 160 585 146 580 134 575 c 0
 130 573 126 572 122 571 c 0
 120 570 119 570 117 570 c 0
 112 570 108 574 108 581 c 2
 108 599 l 2
 108 604 110 609 112 611 c 0
 115 614 117 616 121 618 c 0
 133 624 149 631 166 635 c 0
 182 639 202 642 220 642 c 0
 221 642 220 642 221 642 c 0
 264 642 296 630 315 612 c 0
 334 594 345 563 345 524 c 2
 345 409 l 1
 346 409 l 1xf780
201 354 m 0
 212 354 225 356 237 360 c 0
 249 364 262 374 271 384 c 0
 276 390 281 399 283 407 c 0
 285 415 288 426 288 438 c 2
 288 453 l 1
 278 455 265 459 254 460 c 0
 243 461 231 462 220 462 c 0
 195 462 179 455 168 446 c 0
 157 437 150 423 150 406 c 0
 150 390 155 376 164 368 c 0
 172 359 185 354 201 354 c 0
487 315 m 2
 481 315 477 317 474 319 c 0
 471 321 469 328 467 334 c 2
 383 609 l 2
 381 613 380 619 380 624 c 0
 380 629 383 633 388 633 c 2
 423 633 l 2
 429 633 434 631 436 629 c 0
 439 627 441 621 443 615 c 2
 504 379 l 1
 560 615 l 2
 562 622 563 627 566 629 c 0
 570 631 575 633 579 633 c 0
 581 633 l 2
 609 633 l 2
 615 633 621 631 624 629 c 0
 627 627 629 621 630 615 c 2
 687 377 l 1
 749 615 l 2
 751 622 754 627 756 629 c 0
 759 631 764 633 768 633 c 0
 770 633 l 2
 802 633 l 2
 807 633 812 630 812 624 c 0
 812 622 811 620 811 618 c 0
 810 615 810 612 809 609 c 2
 723 334 l 2
 721 327 718 321 715 319 c 0
 712 317 706 315 702 315 c 0
 701 315 l 2
 670 315 l 2
 664 315 659 317 656 319 c 0
 653 321 650 327 649 334 c 2
 595 564 l 1
 539 335 l 2
 537 328 535 321 532 319 c 0
 529 317 524 315 518 315 c 2
 487 315 l 2
946 306 m 0
 928 306 908 308 891 312 c 0
 874 316 859 322 850 327 c 0
 845 330 840 334 839 337 c 0
 838 340 837 344 837 347 c 2
 837 365 l 2
 837 372 840 377 845 377 c 0
 847 377 849 377 851 376 c 0
 853 375 858 374 861 373 c 0
 873 368 887 362 900 359 c 0
 914 356 929 355 943 355 c 0
 966 355 982 359 994 367 c 0
 1005 373 1013 386 1013 399 c 0
 1013 400 l 0
 1013 401 l 0
 1013 410 1010 420 1004 426 c 0
 998 432 984 439 967 444 c 2
 915 461 l 2
 888 469 870 482 859 497 c 0
 848 511 841 530 841 549 c 0
 841 563 844 577 850 588 c 0
 856 599 866 610 876 617 c 0
 886 625 899 633 913 637 c 0
 927 641 943 642 958 642 c 0
 965 642 973 642 981 641 c 0
 989 640 999 638 1006 637 c 0
 1013 635 1019 633 1025 631 c 0
 1031 629 1037 627 1040 625 c 0
 1044 623 1049 619 1052 615 c 0
 1054 612 1055 609 1055 605 c 0
 1055 604 l 2
 1055 587 l 2
 1055 580 1052 575 1047 575 c 0
 1042 576 1037 578 1033 580 c 0
 1014 588 991 594 967 594 c 0
 966 594 965 594 964 594 c 0xef80
 945 594 927 590 916 584 c 0
 905 578 900 567 900 553 c 0
 900 543 903 532 910 526 c 0
 917 520 932 514 950 508 c 2
 1000 490 l 2
 1026 482 1045 471 1056 457 c 0
 1067 443 1073 425 1073 407 c 0
 1073 392 1069 377 1063 365 c 0
 1057 353 1048 342 1037 334 c 0
 1026 325 1012 317 997 313 c 0
 982 308 963 306 946 306 c 0
1014 133 m 0
 896 46 725 0 579 0 c 0
 373 0 187 76 47 203 c 0
 36 213 46 226 59 218 c 0
 210 130 399 78 592 78 c 0
 722 78 864 106 996 161 c 0
 1015 170 1032 147 1014 133 c 0
1062 188 m 0
 1048 206 963 197 925 193 c 0
 914 192 913 203 923 210 c 0
 991 257 1100 242 1112 227 c 0
 1124 212 1109 100 1047 48 c 0
 1038 40 1028 44 1032 54 c 0
 1046 90 1076 170 1062 188 c 0
EndSplineSet
EndChar

StartChar: uniEB07
Encoding: 60167 60167 9
Width: 905
VWidth: 1835
Flags: HW
HStem: -131 187<-333 13 -106 13 -106 731> 166 130<-68 -34 -78 -24> 624 178<-92 -37 -93 -36> 909 97<289 338 289 383 243 338> 1191 251<288 338>
VStem: -547 262<164 261 158 1147> -156 205<206 259> -142 155<685 735 685 736> 182 63<787 837> 381 61<790 839 839 850> 764 262<375 499 499 499>
LayerCount: 2
Fore
SplineSet
353 194 m 0xfde0
 353 165 327 159 303 159 c 0
 279 159 247 161 247 191 c 0
 247 221 276 225 300 225 c 0
 323 225 353 223 353 194 c 0xfde0
334 441 m 0
 334 414 325 395 296 395 c 0
 266 395 255 412 255 440 c 0
 255 468 266 489 296 489 c 0
 324 489 334 467 334 441 c 0
423 480 m 1
 423 548 l 1
 399 540 375 532 350 532 c 1
 333 542 315 548 293 548 c 0
 233 548 184 502 184 441 c 0
 184 407 205 361 239 351 c 1
 239 350 l 1
 222 343 218 321 218 304 c 0
 218 287 225 271 240 263 c 1
 240 261 l 1
 203 249 180 227 180 187 c 0
 180 119 245 101 301 101 c 0
 369 101 420 127 420 202 c 0
 420 254 372 271 327 279 c 0
 312 281 287 291 287 310 c 0
 287 327 295 337 312 339 c 0
 366 349 402 392 402 447 c 0
 402 456 400 466 397 474 c 1
 405 476 415 478 423 480 c 1
455 259 m 1
 527 259 l 1
 526 274 525 287 525 302 c 2
 525 509 l 2
 525 522 526 532 527 545 c 1
 455 545 l 1
 457 532 456 519 456 506 c 2
 456 298 l 2
 456 285 457 272 455 259 c 1
725 266 m 1
 725 332 l 1
 715 325 702 321 689 321 c 0
 665 321 662 345 662 364 c 2
 662 482 l 1
 689 482 l 2
 698 482 707 482 716 482 c 1
 716 545 l 1
 662 545 l 1
 662 563 661 581 663 599 c 1
 588 599 l 1
 590 590 590 579 590 569 c 2
 590 545 l 1
 558 545 l 1
 558 482 l 1
 564 482 573 483 579 483 c 0
 583 483 586 482 590 482 c 1
 590 482 l 1
 589 482 l 1
 589 367 l 2
 589 310 598 255 668 255 c 0
 687 255 708 257 725 266 c 1
536 643 m 0
 536 669 518 691 492 691 c 0
 466 691 446 669 446 643 c 0
 446 617 466 596 492 596 c 0
 518 596 536 618 536 643 c 0
861 668 m 2
 861 158 l 2
 861 73 793 4 708 4 c 2
 198 4 l 2
 113 4 44 73 44 158 c 2
 44 668 l 2
 44 753 113 821 198 821 c 2
 708 821 l 2
 793 821 861 753 861 668 c 2
EndSplineSet
EndChar

StartChar: uniEB08
Encoding: 60168 60168 10
Width: 1024
Flags: HW
VStem: 102 101<287 520 520 520> 718 204<196 638 638 638>
LayerCount: 2
Fore
SplineSet
102 520 m 1
 179 621 l 1
 466 738 l 1
 466 822 l 1
 718 638 l 1
 204 538 l 1
 204 258 l 1
 102 287 l 1
 102 520 l 1
922 672 m 1
 922 172 l 1
 725 4 l 1
 408 109 l 1
 408 4 l 1
 204 258 l 1
 718 196 l 1
 718 638 l 1
 922 672 l 1
EndSplineSet
EndChar

StartChar: uniEB0A
Encoding: 60170 60170 11
Width: 1073
VWidth: 1073
Flags: HW
HStem: -18 89 169 88 307 88 327 190 379 88 453 88 589 88 776 89
VStem: 103 89 448 190 684 88 804 88 866 88 927 88
LayerCount: 2
Fore
SplineSet
609 409 m 4xd3e0
 609 361 569 320 521 320 c 4
 473 320 434 361 434 409 c 4
 434 457 473 497 521 497 c 4
 569 497 609 457 609 409 c 4xd3e0
733 409 m 4
 733 386 715 369 692 369 c 4
 669 369 652 386 652 409 c 4
 652 432 669 450 692 450 c 4xcbe0
 715 450 733 432 733 409 c 4
901 216 m 4xc3e8
 901 193 883 175 860 175 c 4
 837 175 819 193 819 216 c 4
 819 239 837 256 860 256 c 4
 883 256 901 239 901 216 c 4xc3e8
843 343 m 4xe3f0
 843 320 825 302 802 302 c 4
 779 302 763 320 763 343 c 4
 763 366 779 384 802 384 c 4
 825 384 843 366 843 343 c 4xe3f0
957 341 m 4xc3e4
 957 318 940 301 917 301 c 4
 894 301 876 318 876 341 c 4
 876 364 894 382 917 382 c 4
 940 382 957 364 957 341 c 4xc3e4
842 477 m 4
 842 454 825 437 802 437 c 4
 779 437 761 454 761 477 c 4
 761 500 779 518 802 518 c 4xc7e0
 825 518 842 500 842 477 c 4
957 475 m 4
 957 452 940 435 917 435 c 4
 894 435 876 452 876 475 c 6
 876 475 l 6
 876 498 894 516 917 516 c 4
 940 516 957 498 957 475 c 4
900 603 m 4
 900 580 882 562 859 562 c 4
 836 562 819 580 819 603 c 4
 819 626 836 644 859 644 c 4
 882 644 900 626 900 603 c 4
523 817 m 4
 613 817 698 789 770 734 c 5
 721 668 l 5
 664 711 596 735 523 735 c 4
 436 735 353 701 292 640 c 4
 230 578 197 497 197 410 c 4
 197 323 231 241 292 180 c 4
 354 118 436 84 523 84 c 4
 596 84 663 107 720 150 c 5
 770 86 l 5
 698 31 613 2 523 2 c 4
 414 2 312 45 235 122 c 4
 158 199 116 300 116 410 c 4
 116 519 158 621 235 698 c 4
 312 775 413 817 523 817 c 4
EndSplineSet
EndChar

StartChar: uniE900
Encoding: 59648 59648 13
Width: 1242
VWidth: 1073
Flags: HW
HStem: 2 185 675 185
LayerCount: 2
Fore
SplineSet
635 827 m 4
 732 825 823 787 892 727 c 5
 891 725 l 5
 893 726 l 5
 950 675 993 608 1015 531 c 5
 1253 370 1137 -2 850 0 c 6
 626 0 l 5
 625 1 l 5
 402 1 l 6
 401 2 l 4
 335 2 276 23 228 59 c 5
 228 61 l 5
 228 60 l 5
 70 182 72 421 238 531 c 5
 236 530 240 532 238 531 c 5
 284 701 441 827 626 827 c 4
 629 827 632 827 635 827 c 4
620 648 m 5
 620 648 l 5
 558 646 500 619 461 576 c 4
 460 576 460 575 459 575 c 5
 530 561 592 522 634 467 c 5
 505 337 l 5
 488 375 448 404 403 404 c 4
 342 404 291 353 291 292 c 4
 291 247 319 208 357 191 c 5
 357 191 l 5
 371 185 386 180 402 180 c 6
 626 180 l 5
 626 178 l 5
 626 179 l 5
 850 179 l 6
 1002 176 1002 405 850 402 c 5
 850 424 l 6
 850 425 850 427 850 428 c 4
 850 497 819 558 770 599 c 4
 729 632 673 650 620 648 c 5
EndSplineSet
EndChar

StartChar: uniE901
Encoding: 59649 59649 14
Width: 1048
VWidth: 1048
Flags: HW
LayerCount: 2
Fore
SplineSet
117 406 m 4
 117 631 299 813 524 813 c 4
 749 813 932 631 932 406 c 4
 932 181 749 -1 524 -1 c 4
 299 -1 117 181 117 406 c 4
528 435 m 5
 528 365 l 5
 644 365 l 5
 639 335 608 277 528 277 c 4
 459 277 402 335 402 406 c 4
 402 477 459 534 528 534 c 4
 567 534 595 517 610 503 c 5
 665 556 l 5
 630 589 583 609 528 609 c 4
 416 609 325 518 325 406 c 4
 325 294 416 203 528 203 c 4
 645 203 724 286 724 402 c 4
 724 415 723 425 721 435 c 5
 528 435 l 5
EndSplineSet
EndChar

StartChar: uniE902
Encoding: 59650 59650 15
Width: 1158
VWidth: 1073
Flags: HW
HStem: 159 78 467 47 620 43 729 72 753 48
VStem: 75 62 273 58 827 59 1000 58
LayerCount: 2
Fore
SplineSet
221 642 m 4
 304 642 345 605 345 524 c 6
 345 409 l 5
 346 409 l 5xf780
 346 381 350 369 360 351 c 4
 362 348 363 345 363 343 c 4
 363 340 360 336 356 333 c 6
 335 317 l 6
 332 315 328 314 325 314 c 4
 313 314 306 329 301 336 c 4
 297 343 294 350 291 357 c 5
 262 324 227 308 185 308 c 4
 127 308 87 344 87 401 c 4
 87 467 139 504 208 504 c 4
 235 504 262 498 287 493 c 5
 287 519 l 6
 287 572 265 593 212 593 c 4
 184 593 155 584 134 575 c 4
 129 573 123 570 117 570 c 4
 112 570 107 574 107 581 c 6
 107 599 l 6
 107 610 114 615 121 618 c 4
 146 630 183 642 220 642 c 4
 221 642 220 642 221 642 c 4
149 406 m 4
 149 374 169 354 201 354 c 4
 253 354 288 384 288 438 c 6
 288 453 l 5
 268 457 245 462 220 462 c 4
 178 462 149 444 149 406 c 4
487 315 m 6
 473 315 471 322 467 334 c 6
 383 609 l 6
 381 613 380 619 380 624 c 4
 380 629 383 633 388 633 c 6
 423 633 l 6
 437 633 439 626 443 615 c 6
 504 379 l 5
 560 615 l 6
 563 627 567 633 579 633 c 4
 589 633 599 633 609 633 c 4
 622 633 628 627 630 615 c 6
 687 377 l 5
 748 615 l 6
 751 626 757 633 768 633 c 4
 779 633 791 633 802 633 c 4
 807 633 812 630 812 624 c 4
 812 622 811 620 811 618 c 4
 810 615 810 612 809 609 c 6
 723 334 l 6
 720 322 714 315 702 315 c 4
 691 315 681 315 670 315 c 4
 657 315 651 322 649 334 c 5
 595 564 l 5
 539 335 l 6
 535 321 534 315 518 315 c 6
 487 315 l 6
964 594 m 4xef80
 930 594 900 585 900 553 c 4
 900 523 922 517 950 508 c 6
 1000 490 l 5
 1041 477 1073 454 1073 407 c 4
 1073 339 1014 306 946 306 c 4
 912 306 871 315 850 327 c 4
 841 332 837 336 837 347 c 6
 837 365 l 6
 837 372 840 377 845 377 c 4
 851 377 856 375 861 373 c 4
 884 363 911 355 943 355 c 4
 980 355 1013 365 1013 399 c 6
 1013 401 l 6
 1013 428 993 436 967 444 c 6
 915 461 l 6
 888 469 870 482 859 497 c 4
 848 511 841 530 841 549 c 4
 841 597 875 626 913 637 c 4
 927 641 943 642 958 642 c 4
 983 642 1007 637 1025 631 c 4
 1038 627 1055 622 1055 605 c 4
 1055 599 1055 593 1055 587 c 4
 1055 580 1051 575 1046 575 c 4
 1041 576 1037 578 1033 580 c 4
 1014 588 991 594 967 594 c 4
 966 594 965 594 964 594 c 4xef80
1014 133 m 4
 896 46 725 0 579 0 c 4
 373 0 187 76 47 203 c 4
 36 213 46 226 59 218 c 4
 210 130 399 78 592 78 c 4
 722 78 864 106 996 161 c 4
 1015 170 1032 147 1014 133 c 4
1062 188 m 4
 1048 206 963 197 925 193 c 4
 914 192 913 203 923 210 c 4
 991 257 1100 242 1112 227 c 4
 1124 212 1108 100 1046 48 c 4
 1037 40 1028 44 1032 54 c 4
 1046 90 1076 170 1062 188 c 4
EndSplineSet
EndChar

StartChar: uniE903
Encoding: 59651 59651 16
Width: 1048
VWidth: 1048
Flags: HW
LayerCount: 2
Fore
SplineSet
117 409 m 4
 117 633 300 815 524 815 c 4
 748 815 932 633 932 409 c 4
 932 185 748 2 524 2 c 4
 300 2 117 185 117 409 c 4
428 399 m 4
 432 399 443 406 443 410 c 4
 443 414 438 420 437 423 c 4
 436 426 436 430 436 435 c 5
 435 435 l 5
 435 478 l 6
 435 509 421 523 389 523 c 4
 375 523 345 519 345 506 c 6
 345 500 l 6
 345 497 346 495 348 495 c 4
 360 496 370 504 385 504 c 4
 406 504 413 497 413 476 c 6
 413 466 l 5
 403 468 394 470 383 470 c 4
 357 470 338 457 338 432 c 4
 338 410 353 396 375 396 c 4
 391 396 404 402 415 415 c 5
 417 410 422 399 428 399 c 4
413 446 m 6
 413 425 400 414 380 414 c 4
 367 414 361 421 361 434 c 4
 361 449 372 455 388 455 c 4
 397 455 405 454 413 452 c 5
 413 446 l 6
490 399 m 6
 500 399 l 6
 506 399 507 401 508 406 c 6
 529 493 l 5
 551 406 l 6
 552 401 553 399 559 399 c 6
 570 399 l 6
 575 399 577 401 578 406 c 6
 611 510 l 6
 612 512 612 514 612 516 c 4
 612 518 611 519 609 519 c 6
 596 519 l 6
 591 519 589 518 588 513 c 6
 565 422 l 5
 543 513 l 6
 542 518 540 519 535 519 c 6
 524 519 l 6
 519 519 517 518 516 513 c 6
 495 423 l 5
 473 513 l 6
 472 518 471 519 465 519 c 6
 452 519 l 6
 450 519 448 518 448 516 c 4
 448 514 449 512 450 510 c 6
 482 406 l 6
 483 401 485 399 490 399 c 6
622 411 m 6
 622 399 649 396 663 396 c 4
 689 396 711 408 711 434 c 4
 711 452 700 460 684 465 c 6
 664 471 l 6
 654 474 645 478 645 489 c 4
 645 501 657 504 670 504 c 4
 679 504 688 503 696 499 c 4
 698 498 699 498 701 498 c 4
 703 498 704 499 704 502 c 6
 704 508 l 5
 705 520 679 523 667 523 c 4
 643 523 624 511 624 487 c 4
 624 469 635 460 651 455 c 6
 671 449 l 6
 681 446 688 442 688 432 c 4
 688 419 675 414 661 414 c 4
 647 414 638 419 628 422 c 4
 627 422 626 423 625 423 c 4
 623 423 622 421 622 418 c 6
 622 411 l 6
689 330 m 4
 696 335 689 343 682 340 c 4
 632 319 578 309 528 309 c 4
 454 309 386 328 328 362 c 4
 323 365 319 360 323 356 c 4
 376 308 447 280 524 280 c 4
 580 280 644 297 689 330 c 4
707 351 m 4
 713 344 700 315 695 301 c 4
 693 297 697 295 701 298 c 4
 725 318 731 360 726 366 c 4
 721 372 680 377 654 359 c 4
 650 356 651 352 655 353 c 4
 670 355 701 358 707 351 c 4
EndSplineSet
EndChar

StartChar: uniE904
Encoding: 59652 59652 17
Width: 1048
VWidth: 1048
Flags: HW
LayerCount: 2
Fore
SplineSet
949 78 m 6
 963 38 933 1 893 2 c 5
 623 2 l 6
 611 2 598 6 588 13 c 6
 415 144 l 5
 380 41 l 6
 373 20 353 2 326 2 c 6
 157 2 l 5
 118 0 85 36 99 78 c 6
 333 770 l 6
 340 791 361 809 388 809 c 6
 661 809 l 5
 689 810 712 792 719 770 c 6
 949 78 l 6
625 40 m 4
 639 38 652 50 647 65 c 6
 518 448 l 5
 497 395 477 343 456 290 c 5
 283 290 l 5
 393 208 504 126 614 44 c 4
 617 41 621 40 625 40 c 4
895 40 m 6
 907 40 917 51 913 65 c 6
 680 757 l 6
 678 764 670 770 661 770 c 6
 446 770 l 5
 680 78 l 6
 684 66 684 52 680 40 c 5
 895 40 l 6
EndSplineSet
EndChar

StartChar: uniE905
Encoding: 59653 59653 18
Width: 1138
Flags: HW
HStem: 93 85<819 819 819 1125>
LayerCount: 2
Fore
SplineSet
291 13 m 5
 775 98 l 5
 526 394 l 5
 656 751 l 5
 1081 13 l 5
 291 13 l 5
622 807 m 5
 292 100 l 5
 292 100 l 5
 57 100 l 5
 318 552 l 5
 622 807 l 5
EndSplineSet
EndChar

StartChar: uniE906
Encoding: 59654 59654 19
Width: 1073
VWidth: 1073
Flags: HW
HStem: -34 177 7 135 143 114 143 176
VStem: 98 176 130 114 243 135 378 176
LayerCount: 2
Fore
SplineSet
537 820 m 4x89
 582 820 627 813 667 800 c 4
 789 761 886 664 924 542 c 4
 1011 261 805 2 537 2 c 5x89
 537 161 l 5
 379 161 l 5
 379 318 l 5
 537 318 l 5x19
 537 161 l 5
 704 161 834 327 769 504 c 4
 745 570 695 621 629 645 c 4
 452 709 286 580 286 412 c 5
 129 412 l 5
 129 638 311 821 537 820 c 4x89
379 161 m 5x43
 379 39 l 5
 258 39 l 5
 258 161 l 5
 379 161 l 5x43
258 161 m 5x25
 157 161 l 5
 157 263 l 5
 258 263 l 5
 258 161 l 5x25
EndSplineSet
EndChar

StartChar: uniE907
Encoding: 59655 59655 20
Width: 1037
VWidth: 1048
Flags: HW
HStem: 11 193<292 673 292 829 136 673 292 829> 11 265<716 829 829 829> 331 193<58 250 58 250 716 908> 651 193<293 673 293 293>
VStem: 58 193<90 523 276 523 331 523 331 523> 716 193<246 523 276 523 331 523 331 523>
LayerCount: 2
Fore
SplineSet
748 505 m 5x3c
 939 505 l 5
 939 314 l 5
 748 314 l 5
 748 505 l 5x3c
97 505 m 5
 287 505 l 5
 287 314 l 5
 97 314 l 5
 97 505 l 5
743 215 m 6
 748 260 l 5
 940 260 l 5
 940 76 l 6
 940 33 904 -2 861 -2 c 6
 861 -2 l 5
 175 -2 l 6x7c
 132 -2 97 33 97 76 c 6
 97 260 l 5
 287 260 l 5
 287 230 l 6
 287 206 305 188 329 188 c 6
 706 188 l 6xbc
 730 188 743 191 743 215 c 6
861 821 m 6
 904 821 940 786 940 743 c 6
 940 559 l 5
 749 559 l 5
 749 589 l 6
 749 613 730 631 706 631 c 6
 330 631 l 6
 306 631 287 613 287 589 c 6
 287 559 l 5
 97 559 l 5
 97 743 l 6
 97 786 133 821 176 821 c 6
 861 821 l 6
EndSplineSet
EndChar

StartChar: uniE908
Encoding: 59656 59656 21
Width: 1049
VWidth: 1073
Flags: HW
HStem: 4 175<555 740> 384 65<569 569> 495 113<522 546>
LayerCount: 2
Fore
SplineSet
472 332 m 5
 437 248 l 5
 404 269 378 300 364 338 c 5
 454 353 l 5
 454 353 l 5
 455 353 456 353 457 353 c 4
 466 353 473 347 473 338 c 4
 473 336 473 335 472 333 c 5
 472 332 l 5
443 408 m 5
 443 407 l 5
 354 381 l 5
 353 388 353 395 353 402 c 4
 353 437 363 467 380 495 c 5
 448 434 l 5
 448 433 l 5
 451 430 453 427 453 422 c 4
 453 415 450 410 443 408 c 5
482 476 m 6
 406 530 l 5
 434 557 472 575 513 580 c 5
 508 488 l 5
 508 488 l 5
 508 480 499 473 491 473 c 4
 488 473 485 474 482 476 c 6
510 380 m 5
 502 408 l 5
 520 429 l 5
 549 429 l 5
 566 408 l 5
 560 380 l 5
 534 368 l 5
 510 380 l 5
562 488 m 5
 561 488 l 5
 556 580 l 5
 597 575 633 557 661 530 c 5
 586 477 l 6
 583 475 580 474 577 474 c 4
 569 474 562 480 562 488 c 5
925 271 m 6
 741 28 l 6
 731 15 715 6 697 6 c 6
 371 6 l 6
 353 6 339 15 329 28 c 6
 125 279 l 6
 117 289 113 300 113 313 c 4
 113 317 114 323 115 327 c 6
 187 639 l 6
 191 656 203 670 218 677 c 6
 511 818 l 6
 518 822 525 823 534 823 c 4
 543 823 551 822 558 818 c 6
 852 677 l 6
 867 670 878 656 882 640 c 5
 935 319 l 6
 938 302 935 284 925 271 c 6
769 334 m 4
 782 333 801 324 815 319 c 4
 816 319 818 318 819 318 c 4
 829 316 841 321 843 330 c 4
 845 339 837 349 827 351 c 4
 826 351 823 352 822 352 c 4
 816 353 812 353 806 353 c 4
 792 354 772 357 767 367 c 5
 760 369 l 5
 761 379 762 389 762 400 c 4
 762 456 747 490 724 526 c 4
 726 528 729 531 730 532 c 4
 730 547 747 554 759 560 c 4
 769 566 794 579 781 597 c 4
 762 622 729 568 717 561 c 4
 714 559 707 560 705 560 c 6
 699 557 l 5
 662 596 611 622 555 627 c 5
 554 634 l 5
 552 636 549 638 548 643 c 4
 547 652 549 662 550 674 c 4
 551 680 553 686 553 692 c 4
 553 693 553 695 553 697 c 4
 553 708 544 716 534 716 c 4
 524 716 518 708 518 697 c 4
 518 696 518 693 518 692 c 4
 518 674 529 643 516 634 c 5
 516 627 l 5
 459 622 406 597 369 557 c 4
 367 558 365 558 363 560 c 4
 342 560 331 585 317 596 c 4
 313 600 308 603 301 603 c 6
 300 603 l 6
 282 603 279 582 292 571 c 4
 297 566 304 564 310 560 c 4
 321 553 328 548 335 542 c 4
 338 539 340 533 340 531 c 5
 345 526 l 5
 321 490 307 449 307 402 c 4
 307 391 307 380 309 369 c 5
 302 367 l 5
 295 356 280 354 263 353 c 4
 257 353 252 353 246 352 c 4
 245 352 244 351 242 351 c 6
 241 351 l 5
 241 350 l 5
 217 345 225 312 249 317 c 5
 250 317 l 5
 266 321 285 331 300 333 c 4
 304 333 309 331 311 330 c 5
 318 331 l 5
 335 277 370 233 418 205 c 5
 415 197 l 5
 422 177 401 162 393 145 c 4
 384 136 388 120 398 115 c 4
 407 111 417 115 422 125 c 5
 426 129 427 139 429 145 c 4
 435 159 436 177 449 181 c 5
 453 188 l 5
 478 178 506 173 535 173 c 4
 563 173 590 178 615 187 c 5
 619 181 l 5
 635 176 639 147 645 130 c 4
 646 129 647 126 648 125 c 4
 653 115 663 111 672 115 c 4
 681 119 683 130 679 140 c 4
 678 141 678 144 677 145 c 4
 669 158 656 174 652 187 c 4
 651 192 652 194 653 197 c 4
 652 198 651 202 650 204 c 4
 698 232 734 278 751 332 c 4
 753 332 758 330 759 330 c 4
 762 332 764 334 769 334 c 4
689 495 m 5
 705 468 716 441 716 400 c 4
 716 394 716 387 715 381 c 5
 627 408 l 5
 626 408 l 5
 619 410 615 415 615 422 c 4
 615 427 617 431 620 434 c 6
 689 495 l 5
549 308 m 6
 593 227 l 5
 575 221 553 219 534 219 c 4
 515 219 495 221 477 227 c 5
 520 308 l 5
 521 308 l 5
 524 313 528 317 534 317 c 5
 534 317 l 5
 540 317 546 313 549 308 c 6
596 338 m 4
 596 346 603 354 611 354 c 4
 612 354 613 354 614 354 c 6
 705 338 l 5
 691 300 667 269 633 247 c 5
 597 333 l 5
 597 333 l 5
 596 335 596 336 596 338 c 4
EndSplineSet
EndChar

StartChar: uniE909
Encoding: 59657 59657 22
Width: 1061
VWidth: 1073
Flags: HW
LayerCount: 2
Fore
SplineSet
905 429 m 1
 975 454 l 1
 981 380 968 310 936 243 c 0
 904 175 857 118 798 75 c 0
 607 -61 341 -17 205 174 c 1
 134 148 l 1
 103 192 80 242 68 293 c 1
 200 342 l 1
 194 366 189 387 187 412 c 1
 126 389 l 1
 115 537 181 682 303 769 c 0
 494 905 762 861 898 670 c 1
 959 692 l 1
 972 673 985 653 995 630 c 1
 863 583 l 1
 887 535 901 482 905 429 c 1
722 530 m 1
 854 579 l 1
 843 599 827 621 811 638 c 0
 810 639 l 2
 749 615 l 1
 725 640 699 660 668 673 c 1
 668 673 l 1
 637 687 604 696 570 698 c 0
 418 709 285 595 274 443 c 1
 337 466 l 1
 338 466 l 1
 336 441 338 417 342 392 c 1
 209 345 l 1
 219 292 245 242 283 203 c 1
 352 228 l 1
 376 203 403 184 434 171 c 0
 572 108 736 167 801 305 c 0
 814 336 824 366 826 400 c 1
 756 376 l 1
 760 430 749 483 722 530 c 1
EndSplineSet
EndChar

StartChar: uniE90A
Encoding: 59658 59658 23
Width: 987
VWidth: 1073
Flags: HW
LayerCount: 2
Fore
SplineSet
604 371 m 5
 792 262 l 5
 792 222 l 5
 588 338 l 5
 604 371 l 5
411 346 m 5
 197 222 l 5
 182 255 l 5
 391 376 l 5
 411 346 l 5
475 535 m 5
 475 774 l 5
 510 774 l 5
 510 535 l 5
 475 535 l 5
133 621 m 5
 494 826 l 5
 854 621 l 5
 854 208 l 5
 494 3 l 5
 133 208 l 5
 133 621 l 5
778 254 m 5
 778 254 l 5
 778 575 l 5
 494 736 l 5
 210 575 l 5
 210 254 l 5
 494 93 l 5
 778 254 l 5
494 435 m 5
 330 529 l 5
 494 624 l 5
 657 529 l 5
 494 435 l 5
474 403 m 5
 474 213 l 5
 314 307 l 5
 314 496 l 5
 474 403 l 5
513 403 m 5
 673 496 l 5
 673 307 l 5
 513 213 l 5
 513 403 l 5
EndSplineSet
EndChar

StartChar: uniE90B
Encoding: 59659 59659 24
Width: 1073
VWidth: 1073
Flags: HW
LayerCount: 2
Fore
SplineSet
155 432 m 5
 155 502 155 571 155 641 c 4
 155 649 158 653 165 657 c 4
 276 720 383 787 495 848 c 4
 505 854 513 849 513 838 c 4
 513 816 513 794 513 772 c 4
 513 738 513 706 513 672 c 4
 513 662 510 655 501 650 c 4
 447 619 392 588 338 557 c 4
 332 554 329 549 329 542 c 4
 329 468 329 396 329 322 c 4
 329 315 332 310 338 306 c 4
 401 270 465 235 527 198 c 4
 534 194 540 193 547 197 c 4
 598 227 650 257 701 287 c 4
 725 300 717 299 739 287 c 4
 785 260 831 234 877 207 c 4
 889 200 886 191 877 186 c 4
 766 123 655 61 545 -5 c 4
 540 -8 534 -8 529 -5 c 4
 415 61 302 125 188 191 c 4
 180 196 172 202 164 206 c 4
 158 209 155 215 155 222 c 4
 155 292 155 362 155 432 c 5
 155 432 l 5
919 264 m 6
 919 252 916 243 904 249 c 4
 854 277 806 306 756 334 c 4
 749 338 745 343 745 351 c 4
 745 414 745 478 745 541 c 4
 745 549 743 553 736 557 c 4
 680 589 624 621 568 653 c 4
 563 656 562 661 562 666 c 4
 562 724 562 782 562 840 c 4
 562 851 570 854 579 849 c 4
 689 786 798 721 908 658 c 4
 916 653 920 648 920 639 c 4
 920 577 920 513 920 451 c 5
 919 264 l 6
473 556 m 4
 483 556 490 559 490 547 c 4
 490 519 490 493 490 465 c 4
 490 462 490 459 490 456 c 5
 493 455 l 5
 495 457 497 459 499 461 c 4
 529 492 559 521 589 552 c 4
 598 560 621 556 638 556 c 5
 602 519 568 484 532 447 c 4
 528 443 528 440 532 436 c 4
 568 396 603 356 639 316 c 4
 640 314 642 313 644 310 c 5
 627 310 605 306 597 315 c 4
 562 354 528 393 492 432 c 5
 491 429 490 425 490 422 c 4
 490 387 490 353 490 318 c 4
 490 306 483 310 473 310 c 4
 463 310 456 306 456 318 c 4
 456 362 456 407 456 451 c 4
 456 484 456 515 456 548 c 4
 456 559 463 556 473 556 c 4
EndSplineSet
EndChar

StartChar: uniE90C
Encoding: 59660 59660 25
Width: 926
VWidth: 1073
Flags: HW
LayerCount: 2
Fore
SplineSet
228 564 m 5
 231 577 265 609 278 622 c 5
 257 643 240 665 229 695 c 4
 226 703 224 710 224 718 c 4
 224 719 225 719 225 720 c 4
 228 756 274 715 281 708 c 4
 295 693 308 674 317 653 c 5
 319 651 l 5
 359 675 404 688 452 691 c 4
 452 692 451 694 451 695 c 4
 448 708 446 724 446 738 c 4
 446 766 450 793 463 809 c 4
 466 812 469 815 475 815 c 4
 500 815 504 762 504 738 c 6
 504 723 l 6
 503 712 500 702 497 691 c 5
 536 684 568 673 598 660 c 4
 609 655 618 649 629 643 c 5
 629 644 630 645 630 646 c 4
 643 683 666 719 703 734 c 4
 705 735 708 735 710 735 c 4
 720 736 725 729 726 721 c 6
 726 716 l 6
 726 712 725 709 724 705 c 4
 714 667 694 638 666 617 c 4
 665 617 664 616 663 615 c 5
 679 601 694 583 707 565 c 5
 706 565 704 564 703 564 c 6
 651 564 l 6
 649 564 647 565 646 567 c 4
 602 614 545 646 468 646 c 4
 463 646 457 645 452 645 c 4
 386 641 326 608 288 567 c 4
 287 565 284 564 282 564 c 6
 228 564 l 5
451 125 m 5
 451 128 l 5
 403 131 358 146 318 170 c 5
 304 142 289 118 266 98 c 4
 258 92 250 85 238 85 c 6
 235 85 l 5
 217 90 227 120 232 133 c 4
 242 157 257 179 275 196 c 4
 276 197 277 197 278 198 c 6
 278 199 l 5
 261 214 245 232 232 250 c 5
 287 250 l 6
 289 250 292 250 293 248 c 4
 328 211 379 183 440 176 c 4
 517 168 584 192 640 246 c 4
 642 249 645 250 649 250 c 6
 702 250 l 5
 702 249 l 5
 690 233 677 218 663 205 c 5
 664 204 666 204 667 203 c 4
 693 182 711 155 722 123 c 4
 724 117 726 109 726 102 c 6
 726 99 l 6
 726 92 720 85 713 85 c 6
 711 85 l 5
 699 88 693 91 684 98 c 4
 659 117 641 144 630 175 c 4
 630 176 630 177 629 178 c 5
 593 153 550 136 497 129 c 4
 497 128 498 127 498 126 c 4
 502 113 504 97 504 82 c 6
 504 66 l 5
 502 48 496 28 488 15 c 4
 484 6 472 0 464 10 c 4
 449 25 446 53 446 81 c 6
 446 93 l 6
 447 104 448 115 451 125 c 5
631 496 m 5
 636 496 640 497 644 497 c 4
 649 497 652 495 656 492 c 4
 678 473 702 451 722 431 c 5
 723 432 725 433 726 434 c 4
 748 453 768 475 790 494 c 4
 792 496 794 497 797 497 c 4
 802 497 807 496 813 496 c 5
 813 323 l 5
 810 322 773 322 768 323 c 5
 768 411 l 5
 767 411 l 5
 753 398 737 383 723 370 c 5
 709 383 691 398 677 411 c 5
 676 411 l 5
 676 323 l 5
 631 323 l 5
 630 326 630 486 631 496 c 5
215 496 m 5
 260 496 l 5
 261 493 261 326 260 322 c 5
 215 322 l 5
 215 388 l 5
 159 388 l 5
 159 323 l 5
 156 322 118 322 114 323 c 5
 114 496 l 5
 159 496 l 5
 159 434 l 5
 162 433 210 433 215 434 c 5
 215 496 l 5
313 323 m 5
 313 496 l 5
 316 497 414 497 421 496 c 5
 421 459 l 5
 420 459 418 458 416 458 c 6
 358 458 l 5
 358 429 l 5
 413 429 l 5
 413 392 l 5
 359 392 l 5
 358 389 357 366 358 360 c 5
 421 360 l 5
 421 323 l 5
 313 323 l 5
472 322 m 5
 471 327 471 493 472 496 c 5
 517 496 l 5
 517 368 l 5
 519 368 520 367 522 367 c 6
 579 367 l 5
 579 322 l 5
 472 322 l 5
EndSplineSet
EndChar

StartChar: uniE90D
Encoding: 59661 59661 26
Width: 1048
VWidth: 1048
Flags: HW
LayerCount: 2
Fore
SplineSet
290 257 m 5
 95 62 l 5
 87 54 l 5
 87 54 l 5
 524 812 l 5
 962 54 l 5
 962 54 l 5
 954 62 l 5
 759 257 l 5
 524 668 l 5
 290 257 l 5
524 496 m 5
 954 62 l 5
 774 144 l 5
 524 394 l 5
 274 144 l 5
 95 62 l 5
 524 496 l 5
290 70 m 5
 759 70 l 5
 923 -1 l 5
 126 -1 l 5
 290 70 l 5
954 62 m 5
 993 -1 l 5
 923 -1 l 5
 524 179 l 5
 126 -1 l 5
 55 -1 l 5
 95 62 l 5
 524 257 l 5
 954 62 l 5
EndSplineSet
EndChar

StartChar: uniE90E
Encoding: 59662 59662 27
Width: 892
VWidth: 1048
Flags: HW
LayerCount: 2
Fore
SplineSet
323 94 m 2
 323 102 l 1
 321 128 320 152 319 178 c 0
 319 189 318 206 307 204 c 0
 290 201 273 204 256 209 c 0
 254 210 252 209 250 212 c 1
 274 220 301 222 310 245 c 0
 313 252 312 256 306 259 c 0
 256 283 218 320 187 365 c 0
 170 391 156 420 148 451 c 0
 146 459 142 461 134 460 c 0
 124 458 121 459 116 469 c 1
 116 592 l 1
 121 602 123 603 134 603 c 0
 142 603 143 604 145 612 c 0
 159 665 183 712 221 752 c 0
 267 799 325 828 388 843 c 0
 404 847 421 848 437 850 c 1
 467 850 l 1
 552 844 614 808 667 760 c 0
 708 723 735 677 749 624 c 0
 752 613 756 604 769 602 c 0
 776 601 777 593 777 587 c 2
 777 476 l 2
 777 464 773 460 761 460 c 0
 754 460 752 456 750 450 c 0
 725 364 671 304 600 263 c 0
 590 257 581 258 587 244 c 0
 596 222 616 223 639 215 c 0
 642 214 645 213 647 211 c 1
 645 208 642 210 639 209 c 0
 627 206 614 203 601 203 c 2
 600 203 l 2
 591 203 582 210 580 201 c 0
 578 191 577 180 577 169 c 0
 576 147 573 126 572 104 c 0
 571 82 572 82 592 75 c 0
 602 72 612 68 622 65 c 0
 624 64 628 63 629 60 c 0
 628 58 626 59 624 59 c 0
 607 59 588 59 571 59 c 0
 553 59 543 69 542 87 c 0
 540 114 538 140 536 167 c 0
 536 168 535 171 535 172 c 1
 529 139 531 107 531 71 c 0
 531 62 534 56 543 53 c 0
 555 48 568 43 582 44 c 0
 586 44 599 41 599 37 c 0
 599 36 597 36 596 36 c 0
 562 37 513 25 505 56 c 0
 497 84 498 123 496 155 c 1
 496 156 l 2
 496 158 495 160 494 161 c 1
 493 160 492 158 492 156 c 0
 492 155 493 155 493 154 c 0
 493 120 493 87 493 53 c 0
 493 40 497 34 510 29 c 0
 526 23 544 17 561 13 c 0
 565 12 568 12 569 7 c 1
 505 7 l 2
 503 7 501 8 499 8 c 0
 474 11 464 20 459 44 c 1
 457 56 l 1
 449 95 l 1
 441 79 439 58 435 39 c 0
 431 22 419 12 402 9 c 2
 391 7 l 1
 326 7 l 1
 328 13 333 13 338 14 c 0
 354 18 372 23 388 29 c 0
 409 38 406 80 398 103 c 1
 397 101 396 99 396 96 c 0
 395 86 394 76 393 66 c 0
 392 46 379 36 356 36 c 0
 337 36 317 36 298 36 c 0
 296 36 294 35 293 38 c 0
 299 42 306 43 313 44 c 0
 324 45 336 48 346 51 c 0
 360 55 365 61 365 76 c 0
 364 109 360 140 361 173 c 0
 361 179 361 187 361 193 c 1
 360 189 360 184 360 179 c 0
 359 148 356 118 353 87 c 0
 351 69 343 60 326 58 c 0
 311 56 294 58 279 59 c 0
 275 59 270 58 266 61 c 0
 267 63 270 64 272 65 c 0
 284 69 298 73 310 77 c 0
 318 80 323 85 323 94 c 2
444 722 m 0
 528 722 594 657 594 584 c 2
 594 584 594 583 594 582 c 0
 594 575 597 567 603 563 c 0
 619 550 632 533 636 513 c 0
 644 475 634 444 602 421 c 0
 593 414 590 406 590 396 c 0
 590 394 590 393 590 391 c 2
 588 341 l 2
 587 321 583 300 584 280 c 0
 584 272 584 272 591 275 c 0
 677 318 750 422 748 536 c 0
 748 537 748 538 748 539 c 0
 748 557 744 575 742 591 c 0
 720 695 659 767 564 811 c 0
 510 837 451 840 393 829 c 0
 279 806 204 739 164 631 c 0
 136 557 147 469 177 408 c 0
 197 365 228 330 264 300 c 0
 276 290 289 282 303 275 c 0
 311 271 312 272 312 281 c 0
 312 286 311 292 311 297 c 0
 307 333 306 368 305 404 c 1
 305 406 l 2
 305 411 303 416 299 418 c 0
 286 427 274 439 267 454 c 0
 251 488 253 536 295 566 c 0
 300 569 303 574 302 580 c 0
 302 581 302 582 302 583 c 0
 302 587 302 591 303 595 c 0
 312 660 368 722 444 722 c 0
345 425 m 0
 397 424 432 479 406 525 c 0
 395 545 372 560 346 560 c 0
 307 560 278 532 278 495 c 0
 278 455 305 425 345 425 c 0
549 425 m 0
 588 425 616 453 616 492 c 0
 616 530 588 560 550 560 c 0
 513 560 481 530 481 493 c 0
 481 454 510 425 549 425 c 0
498 356 m 0
 491 352 483 347 475 343 c 0
 457 334 438 335 420 345 c 0
 416 347 401 359 398 357 c 0
 396 356 398 354 398 352 c 0
 403 322 404 304 427 287 c 0
 433 283 441 280 449 280 c 0
 451 280 453 281 455 281 c 0
 474 285 492 302 495 324 c 0
 496 333 494 342 498 351 c 0
 498 352 499 352 499 353 c 0
 499 354 499 355 498 356 c 0
256 387 m 0
 256 381 257 377 249 377 c 0
 248 377 246 378 245 378 c 0
 242 379 239 381 237 384 c 0
 211 419 195 456 190 499 c 0
 189 510 190 522 189 529 c 0
 189 568 194 601 208 633 c 0
 231 683 265 723 312 752 c 0
 314 753 317 754 319 754 c 0
 325 754 332 749 329 743 c 0
 326 735 319 729 312 725 c 0
 274 702 247 670 229 631 c 0
 215 602 208 570 208 535 c 0
 208 532 208 529 208 526 c 0
 210 480 222 438 250 400 c 0
 253 396 255 392 256 387 c 0
339 767 m 2
 339 768 l 2
 339 775 345 780 352 780 c 0
 359 780 368 772 368 764 c 0
 368 759 356 751 350 751 c 0
 344 751 339 758 339 767 c 2
323 505 m 2
 323 506 l 2
 323 517 332 526 343 526 c 0
 356 526 368 517 368 505 c 0
 368 493 358 482 345 482 c 0
 332 482 323 492 323 505 c 2
551 482 m 0
 538 482 529 493 529 506 c 0
 529 517 539 526 550 527 c 1
 551 527 l 2
 563 527 573 517 573 505 c 0
 573 493 564 482 551 482 c 0
EndSplineSet
EndChar

StartChar: uniE90F
Encoding: 59663 59663 28
Width: 871
VWidth: 1048
Flags: HW
LayerCount: 2
Fore
SplineSet
433 431 m 5
 432 431 l 5
 433 431 l 5
437 431 m 5
 436 431 l 5
 437 431 l 5
440 431 m 5
 439 431 l 5
 440 431 l 5
713 646 m 6
 719 642 724 633 724 625 c 4
 724 617 719 609 713 605 c 6
 464 444 l 5
 464 561 l 6
 464 569 470 575 478 575 c 6
 496 575 l 6
 504 575 510 581 510 589 c 4
 510 592 509 594 508 596 c 6
 448 701 l 6
 446 705 441 708 436 708 c 4
 431 708 426 705 424 701 c 6
 363 596 l 6
 362 594 361 592 361 589 c 4
 361 581 368 575 376 575 c 6
 394 575 l 6
 402 575 408 569 408 561 c 6
 408 444 l 5
 159 605 l 6
 153 609 148 617 148 625 c 4
 148 633 153 642 159 646 c 6
 423 817 l 6
 427 819 431 821 436 821 c 4
 441 821 445 819 449 817 c 6
 713 646 l 6
431 11 m 5
 424 13 421 15 416 19 c 5
 421 16 426 14 431 11 c 5
408 388 m 5
 408 356 l 5
 399 361 390 365 382 371 c 5
 408 388 l 5
609 293 m 5
 561 308 510 317 464 332 c 5
 464 368 l 5
 484 359 505 353 527 347 c 5
 609 293 l 5
464 189 m 5
 518 175 568 158 611 120 c 5
 577 98 l 5
 467 192 312 159 210 259 c 5
 244 281 l 5
 292 236 351 218 408 203 c 5
 408 187 l 6
 408 181 414 177 422 177 c 6
 450 177 l 6
 458 177 464 181 464 187 c 6
 464 189 l 5
237 136 m 5
 324 100 421 97 496 45 c 5
 462 23 l 5
 420 51 372 65 326 77 c 5
 237 136 l 5
408 325 m 5
 408 289 l 5
 378 299 348 313 323 332 c 5
 358 356 l 5
 373 345 390 333 408 325 c 5
690 171 m 5
 625 236 547 252 464 273 c 5
 464 305 l 5
 557 278 646 270 713 203 c 4
 716 200 719 198 721 195 c 4
 719 191 716 188 713 186 c 6
 690 171 l 5
481 242 m 4
 550 225 615 209 667 157 c 5
 668 157 l 5
 633 135 l 5
 583 182 524 201 464 216 c 5
 464 246 l 5
 470 245 475 243 481 242 c 4
408 262 m 5
 408 230 l 5
 357 243 308 259 267 295 c 5
 300 317 l 5
 333 290 370 274 408 262 c 5
188 244 m 5
 246 186 318 167 389 150 c 4
 449 135 506 121 554 83 c 5
 520 60 l 5
 409 143 261 116 163 214 c 4
 160 217 157 219 155 222 c 4
 156 223 158 225 159 226 c 6
 188 244 l 5
527 347 m 5
 505 353 484 359 464 368 c 5
 464 388 l 5
 527 347 l 5
464 332 m 5
 510 317 561 308 609 293 c 5
 713 226 l 6
 719 222 724 214 724 206 c 4
 724 202 723 198 721 195 c 5
 719 198 716 200 713 203 c 4
 646 270 557 278 464 305 c 5
 464 332 l 5
408 356 m 5
 408 325 l 5
 390 333 373 345 358 356 c 5
 382 371 l 5
 390 365 399 361 408 356 c 5
464 273 m 5
 547 252 625 236 690 171 c 5
 668 157 l 5
 667 157 l 5
 615 209 550 225 481 242 c 4
 475 243 470 245 464 246 c 5
 464 273 l 5
408 289 m 5
 408 262 l 5
 370 274 333 290 300 317 c 5
 323 332 l 5
 348 313 378 299 408 289 c 5
408 230 m 5
 408 203 l 5
 351 218 292 236 244 281 c 5
 267 295 l 5
 308 259 357 243 408 230 c 5
464 189 m 5
 464 216 l 5
 524 201 583 182 633 135 c 5
 611 120 l 5
 568 158 518 175 464 189 c 5
210 259 m 5
 312 159 467 192 577 98 c 5
 554 83 l 5
 506 121 449 135 389 150 c 4
 318 167 246 186 188 244 c 5
 210 259 l 5
163 214 m 4
 261 116 409 143 520 60 c 5
 496 45 l 5
 421 97 324 100 237 136 c 5
 159 186 l 6
 153 190 148 198 148 206 c 4
 148 212 151 218 155 222 c 5
 157 219 160 217 163 214 c 4
416 19 m 6
 326 77 l 5
 372 65 420 51 462 23 c 5
 449 14 l 6
 445 12 441 10 436 10 c 4
 434 10 433 11 431 11 c 4
 426 14 421 16 416 19 c 6
EndSplineSet
EndChar

StartChar: uniE910
Encoding: 59664 59664 29
Width: 1048
VWidth: 1048
Flags: HW
LayerCount: 2
Fore
SplineSet
257 834 m 6
 792 834 l 6
 875 834 941 767 941 684 c 6
 941 150 l 6
 941 67 875 0 792 0 c 6
 257 0 l 6
 174 0 108 67 108 150 c 6
 108 684 l 6
 108 767 174 834 257 834 c 6
257 807 m 5
 257 807 l 5
 189 807 134 752 134 684 c 6
 134 150 l 6
 134 143 135 135 136 128 c 4
 179 129 200 144 223 158 c 4
 248 173 276 191 329 191 c 4
 382 191 409 173 434 158 c 4
 438 156 441 153 445 151 c 5
 452 170 460 191 465 211 c 4
 468 220 467 231 462 239 c 4
 449 258 413 264 410 264 c 4
 397 265 201 284 190 512 c 4
 190 513 l 4
 190 521 198 527 206 527 c 4
 210 527 213 526 216 523 c 4
 232 507 282 467 321 472 c 4
 328 473 336 474 344 476 c 4
 393 486 461 501 517 417 c 5
 573 501 641 486 690 476 c 4
 698 474 706 473 714 472 c 4
 753 466 802 507 818 523 c 4
 821 526 824 527 828 527 c 4
 836 527 843 521 843 513 c 4
 843 512 l 4
 832 283 636 264 624 263 c 4
 612 262 579 256 569 239 c 4
 567 235 566 230 566 225 c 4
 566 221 567 217 569 213 c 4
 577 190 587 168 596 146 c 5
 602 149 607 154 613 158 c 4
 638 173 667 191 720 191 c 4
 773 191 800 173 825 158 c 4
 848 144 869 129 912 128 c 4
 913 135 914 143 914 150 c 6
 914 684 l 6
 914 752 860 807 792 807 c 6
 257 807 l 5
412 734 m 5
 429 678 l 5
 590 653 l 5
 566 500 l 5
 395 525 l 5
 402 568 l 5
 292 536 l 5
 248 684 l 5
 412 734 l 5
777 706 m 5
 787 550 l 5
 616 539 l 5
 605 693 l 5
 777 706 l 5
EndSplineSet
EndChar

StartChar: uniE911
Encoding: 59665 59665 30
Width: 1073
VWidth: 1073
Flags: HW
LayerCount: 2
Fore
SplineSet
286 644 m 4
 277 644 266 655 266 664 c 6
 266 840 l 6
 266 850 277 859 287 859 c 6
 545 859 l 6
 552 859 560 854 563 847 c 6
 856 215 l 5
 927 215 l 6
 937 215 947 205 947 195 c 6
 947 19 l 6
 947 9 937 0 927 0 c 6
 719 0 l 6
 712 0 704 5 701 11 c 6
 409 644 l 5
 368 644 327 644 286 644 c 4
305 820 m 5
 305 684 l 5
 421 684 l 6
 428 684 435 678 438 672 c 6
 732 39 l 5
 908 39 l 5
 908 176 l 5
 843 176 l 6
 836 176 828 181 825 187 c 6
 532 820 l 5
 305 820 l 5
145 0 m 4
 135 0 127 8 127 19 c 4
 127 22 128 27 129 29 c 6
 359 514 l 6
 362 520 371 525 378 525 c 5
 378 525 l 5
 385 525 392 520 395 514 c 6
 506 285 l 6
 507 283 508 278 508 275 c 4
 508 272 507 270 506 268 c 6
 385 11 l 6
 382 5 374 0 367 0 c 4
 293 0 219 0 145 0 c 4
378 461 m 5
 177 39 l 5
 354 39 l 5
 467 275 l 5
 378 461 l 5
EndSplineSet
EndChar

StartChar: uniE94F
Encoding: 59727 59727 31
Width: 1048
VWidth: 1048
Flags: HW
LayerCount: 2
Fore
SplineSet
109 841 m 5
 939 841 l 5
 939 11 l 5
 109 11 l 5
 109 841 l 5
201 738 m 5
 201 675 l 5
 296 675 l 5
 296 426 l 5
 365 426 l 5
 365 675 l 5
 460 675 l 5
 460 738 l 5
 201 738 l 5
524 116 m 5
 524 168 l 5
 213 168 l 5
 213 116 l 5
 524 116 l 5
716 434 m 6
 716 434 l 6
 738 444 758 459 774 477 c 6
 730 521 l 5
 710 499 681 484 648 484 c 4
 598 485 558 527 558 577 c 4
 558 579 558 580 558 582 c 6
 558 583 l 6
 558 585 558 586 558 588 c 4
 558 638 598 679 648 680 c 4
 679 679 708 666 728 645 c 5
 772 695 l 6
 743 725 702 744 657 744 c 4
 654 744 652 743 649 743 c 4
 648 743 645 743 644 743 c 4
 557 743 486 672 486 585 c 4
 486 584 486 583 486 582 c 6
 486 581 l 6
 486 580 486 580 486 579 c 4
 486 492 556 421 643 421 c 4
 644 421 645 422 646 422 c 4
 648 422 651 421 653 421 c 4
 675 421 697 426 716 434 c 6
EndSplineSet
EndChar

StartChar: uniEB0F
Encoding: 60175 60175 32
Width: 1032
VWidth: 1073
Flags: HW
LayerCount: 2
Fore
SplineSet
515 855 m 0
 516 855 l 0
 517 855 l 0
 764 855 963 656 963 409 c 0
 963 322 937 242 894 173 c 1
 522 653 l 2
 521 654 519 655 517 655 c 0
 515 655 512 654 511 653 c 2
 138 173 l 1
 95 242 72 322 72 409 c 0
 72 655 269 854 515 855 c 0
528 614 m 1
 884 157 l 2
 837 87 771 34 693 0 c 1
 528 614 l 1
EndSplineSet
EndChar

StartChar: uniEB10
Encoding: 60176 60176 33
Width: 1008
VWidth: 1073
Flags: HW
LayerCount: 2
Fore
SplineSet
425 835 m 5
 425 809 l 5
 509 809 l 6
 520 809 528 795 518 785 c 6
 158 424 l 5
 155 427 151 432 151 437 c 4
 151 447 160 455 170 455 c 4
 180 455 188 447 188 437 c 4
 188 432 186 427 183 424 c 5
 469 138 l 6
 474 133 474 124 469 119 c 6
 414 63 l 6
 412 61 407 59 404 59 c 4
 401 59 397 60 395 63 c 6
 31 428 l 6
 26 433 26 441 31 446 c 6
 416 830 l 6
 418 832 422 835 425 835 c 5
605 772 m 4
 608 772 612 771 614 768 c 6
 978 403 l 6
 980 401 982 397 982 394 c 4
 982 391 981 387 978 385 c 6
 594 0 l 6
 592 -2 587 -4 584 -4 c 6
 474 -4 l 6
 463 -4 455 8 465 18 c 6
 826 381 l 6
 829 384 831 388 831 393 c 4
 831 398 829 404 826 407 c 6
 540 693 l 6
 535 698 535 707 540 712 c 6
 596 768 l 6
 598 770 602 772 605 772 c 4
482 646 m 4
 484 646 486 645 487 644 c 4
 517 616 572 546 572 389 c 4
 572 297 641 370 613 490 c 4
 612 495 621 497 624 492 c 4
 638 463 653 427 653 388 c 6
 653 387 l 6
 653 302 590 233 511 233 c 4
 432 233 368 302 368 387 c 6
 368 388 l 6
 368 526 479 549 474 637 c 4
 474 642 478 646 482 646 c 4
EndSplineSet
EndChar

StartChar: uniEB11
Encoding: 60177 60177 34
Width: 1073
VWidth: 1073
Flags: HW
LayerCount: 2
Fore
SplineSet
537 857 m 5
 537 858 l 5
 704 858 849 763 920 624 c 5
 537 624 l 6
 438 624 354 548 343 452 c 5
 202 696 l 5
 281 794 402 857 537 857 c 5
176 662 m 5
 368 331 l 6
 402 273 464 232 537 232 c 4
 565 232 589 238 613 248 c 5
 472 3 l 5
 265 35 108 213 108 428 c 4
 108 429 l 4
 108 515 132 595 176 662 c 5
654 584 m 5
 937 584 l 5
 955 536 967 483 967 428 c 4
 967 190 775 -2 537 -2 c 4
 530 -2 522 -1 515 -1 c 5
 706 331 l 4
 722 360 732 392 732 428 c 4
 732 491 701 548 654 584 c 5
537 271 m 4
 451 271 381 342 381 428 c 4
 381 514 451 584 537 584 c 4
 623 584 693 514 693 428 c 4
 693 342 623 271 537 271 c 4
EndSplineSet
EndChar

StartChar: uniEB0E
Encoding: 60174 60174 35
Width: 1326
VWidth: 1048
Flags: HW
LayerCount: 2
Fore
SplineSet
265 627 m 1
 454 816 l 1
 642 627 l 1
 454 437 l 1
 265 627 l 1
55 416 m 1
 244 605 l 1
 432 416 l 1
 244 226 l 1
 55 416 l 1
265 205 m 1
 454 394 l 1
 642 205 l 1
 454 15 l 1
 265 205 l 1
685 627 m 1
 872 816 l 1
 1061 627 l 1
 872 437 l 1
 685 627 l 1
894 416 m 1
 1082 605 l 1
 1271 416 l 1
 1082 226 l 1
 894 416 l 1
685 205 m 1
 872 394 l 1
 1061 205 l 1
 872 15 l 1
 685 205 l 1
EndSplineSet
EndChar

StartChar: uniEB14
Encoding: 60180 60180 36
Width: 1038
VWidth: 1073
Flags: HW
LayerCount: 2
Fore
SplineSet
520 811 m 4
 742 811 923 630 923 408 c 4
 923 186 742 5 520 5 c 4
 298 5 116 186 116 408 c 4
 116 630 298 811 520 811 c 4
520 83 m 4
 699 83 844 229 844 408 c 4
 844 587 699 733 520 733 c 4
 341 733 194 587 194 408 c 4
 194 229 341 83 520 83 c 4
EndSplineSet
EndChar

StartChar: uniEB13
Encoding: 60179 60179 37
Width: 792
VWidth: 1048
Flags: HW
LayerCount: 2
Fore
SplineSet
538 546 m 4
 540 605 525 629 514 646 c 4
 503 662 475 687 442 688 c 4
 410 689 402 672 373 671 c 5
 368 724 409 753 409 753 c 5
 409 753 398 768 389 772 c 5
 379 763 353 736 348 700 c 5
 342 753 315 786 257 810 c 5
 240 752 295 698 331 677 c 5
 312 683 296 691 274 687 c 4
 236 679 204 656 186 605 c 4
 168 554 192 495 197 478 c 4
 202 461 242 389 273 378 c 4
 304 367 304 372 320 378 c 4
 336 384 361 396 398 383 c 4
 435 370 440 366 463 381 c 4
 486 396 515 443 522 456 c 4
 529 469 533 476 535 483 c 4
 538 503 536 493 538 546 c 1028
653 170 m 6
 653 140 627 115 597 115 c 4
 582 115 566 115 553 115 c 4
 546 115 540 110 540 103 c 6
 540 88 l 6
 540 87 540 87 540 86 c 6
 540 79 l 6
 540 78 540 78 540 77 c 6
 540 74 l 6
 540 64 540 54 540 48 c 4
 540 44 539 40 536 38 c 4
 522 27 473 4 363 4 c 4
 256 4 204 22 188 31 c 4
 184 33 183 37 183 41 c 4
 183 65 182 150 182 237 c 6
 182 249 l 6
 182 351 182 453 182 464 c 6
 182 465 l 5
 540 465 l 5
 540 436 l 6
 540 429 545 423 552 423 c 6
 598 423 l 6
 628 423 653 398 653 368 c 6
 653 235 l 5
 653 231 l 5
 653 201 l 6
 653 200 653 198 653 197 c 6
 653 181 l 5
 653 177 l 5
 653 170 l 6
610 359 m 6
 610 368 602 374 594 374 c 6
 555 374 l 6
 546 374 540 367 540 359 c 6
 540 181 l 6
 540 172 547 166 555 166 c 6
 594 166 l 6
 603 166 610 173 610 181 c 6
 610 359 l 6
217 468 m 5
 506 468 l 5
 506 468 506 143 506 93 c 4
 506 89 503 85 500 83 c 4
 485 74 441 53 362 53 c 4
 283 53 238 71 223 78 c 4
 219 80 217 84 217 88 c 6
 217 468 l 5
259 421 m 4
 268 421 276 414 276 404 c 6
 276 110 l 6
 276 101 268 93 259 93 c 4
 250 93 242 100 242 110 c 6
 242 404 l 6
 242 413 250 421 259 421 c 1028
422 390 m 4
 422 396 419 403 413 407 c 4
 403 413 396 422 392 433 c 5
 314 430 242 444 206 454 c 4
 197 457 187 458 178 460 c 4
 156 464 140 483 140 506 c 4
 140 531 159 551 184 552 c 5
 189 579 212 599 240 599 c 4
 271 599 297 573 297 542 c 4
 297 535 296 529 294 523 c 5
 294 523 l 5
 301 545 322 561 346 561 c 4
 370 561 390 546 397 524 c 5
 397 526 397 528 397 530 c 4
 397 563 423 589 456 589 c 4
 482 589 504 572 512 548 c 5
 522 550 529 555 540 555 c 4
 566 555 587 534 587 508 c 4
 587 485 570 466 547 463 c 4
 542 462 537 461 532 459 c 4
 519 454 505 449 491 446 c 5
 490 439 488 433 485 427 c 4
 479 416 476 404 477 392 c 4
 477 391 477 388 477 387 c 4
 477 372 465 363 450 363 c 4
 435 363 422 375 422 390 c 1028
411 457 m 5
 412 457 l 5
 411 457 l 5
660 170 m 6
 660 136 632 107 598 107 c 4
 596 107 593 107 591 107 c 6
 577 107 l 5
 561 107 l 6
 555 107 547 109 547 103 c 6
 547 62 l 5
 547 48 l 6
 547 0 407 -3 363 -3 c 6
 359 -3 l 6
 299 -3 241 2 197 19 c 4
 187 23 175 28 175 41 c 6
 174 453 l 5
 150 459 132 481 132 506 c 4
 132 531 149 552 172 558 c 5
 171 577 174 593 179 608 c 4
 197 658 229 685 273 694 c 4
 281 696 287 696 295 695 c 5
 289 700 284 706 279 712 c 4
 249 748 242 781 253 820 c 5
 304 799 336 774 349 731 c 5
 358 751 371 767 387 781 c 5
 402 775 410 763 419 751 c 5
 399 736 380 713 380 681 c 6
 380 679 l 5
 387 680 396 683 404 687 c 4
 455 710 503 680 526 641 c 4
 539 619 545 597 545 562 c 5
 572 559 594 536 594 508 c 4
 594 480 574 459 547 455 c 5
 547 436 l 6
 547 433 549 431 552 431 c 6
 598 431 l 6
 632 431 660 402 660 368 c 6
 660 170 l 6
645 368 m 6
 645 394 624 416 598 416 c 6
 552 416 l 6
 541 416 533 425 533 436 c 6
 533 451 l 5
 522 447 509 443 497 440 c 5
 494 424 484 412 485 392 c 4
 485 390 485 389 485 387 c 4
 485 368 470 355 450 355 c 4
 431 355 415 370 415 390 c 4
 415 394 412 399 409 401 c 4
 399 407 392 415 387 425 c 5
 322 424 255 431 203 447 c 4
 198 448 194 449 189 450 c 5
 190 41 l 6
 190 12 342 12 363 12 c 6
 366 12 l 6
 416 12 463 16 501 29 c 4
 511 33 533 40 533 48 c 6
 533 103 l 6
 533 119 545 122 561 122 c 6
 574 122 l 5
 591 122 l 5
 598 122 l 6
 624 122 645 144 645 170 c 6
 645 368 l 6
533 359 m 6
 533 371 543 382 555 382 c 6
 594 382 l 6
 606 382 617 371 617 359 c 6
 617 181 l 6
 617 169 606 158 594 158 c 6
 555 158 l 6
 543 158 533 169 533 181 c 6
 533 359 l 6
602 359 m 4
 602 363 598 367 594 367 c 6
 555 367 l 6
 551 367 547 363 547 359 c 4
 547 300 547 240 547 181 c 4
 547 177 551 173 555 173 c 4
 568 173 581 173 594 173 c 4
 598 173 602 177 602 181 c 4
 602 240 602 300 602 359 c 4
404 530 m 4
 404 506 409 481 412 457 c 5
 411 457 l 5
 404 478 397 500 390 521 c 4
 384 540 366 554 346 554 c 4
 321 554 306 537 299 515 c 5
 284 518 l 5
 287 525 290 533 290 542 c 4
 290 569 267 592 240 592 c 4
 212 592 196 572 191 545 c 5
 165 544 147 530 147 506 c 4
 147 487 160 471 179 467 c 4
 194 464 207 460 221 457 c 4
 272 445 335 438 397 440 c 5
 401 428 407 420 417 414 c 4
 425 409 430 399 430 390 c 4
 430 378 439 370 450 370 c 4
 462 370 470 377 470 387 c 6
 470 391 l 5
 470 392 l 6
 470 394 470 395 470 397 c 4
 470 417 482 432 484 452 c 5
 506 458 524 466 547 470 c 4
 565 473 579 490 579 509 c 4
 579 530 562 548 540 548 c 4
 532 548 525 545 520 542 c 5
 507 539 l 5
 499 563 483 581 456 581 c 4
 427 581 404 559 404 530 c 4
399 754 m 5
 396 757 393 761 390 763 c 5
 373 747 356 719 355 701 c 4
 354 684 357 663 357 663 c 5
 347 665 l 6
 325 669 300 685 275 680 c 4
 231 671 193 636 187 578 c 5
 199 595 218 606 240 606 c 4
 272 606 299 583 304 552 c 5
 315 562 329 568 346 568 c 4
 364 568 381 560 392 547 c 5
 400 575 425 596 456 596 c 4
 483 596 507 581 517 557 c 5
 521 559 526 560 531 561 c 5
 531 598 523 619 508 642 c 5
 493 663 468 680 442 681 c 4
 420 682 396 664 374 663 c 6
 367 663 l 5
 361 700 378 734 399 754 c 5
263 800 m 5
 255 750 305 698 342 679 c 5
 342 680 l 6
 341 743 318 776 263 800 c 5
EndSplineSet
EndChar

StartChar: uniE93E
Encoding: 59710 59710 38
Width: 973
VWidth: 1073
Flags: HW
VStem: 332 25 391 25<175 179> 476 24<71 181 71 181 71 181 450 577> 561 25<175 179> 618 25
LayerCount: 2
Fore
SplineSet
778 433 m 1
 895 300 l 1
 723 262 l 1
 740 85 l 1
 577 157 l 1
 487 3 l 1
 397 157 l 1
 234 85 l 1
 253 262 l 1
 79 300 l 1
 198 433 l 1
 79 565 l 1
 253 603 l 1
 234 780 l 1
 397 709 l 1
 487 862 l 1
 577 709 l 1
 740 780 l 1
 723 603 l 1
 895 565 l 1
 778 433 l 1
835 333 m 1
 755 423 l 1
 665 456 l 1
 733 368 l 1
 835 333 l 1
851 551 m 1
 714 581 l 1
 649 487 l 1
 758 446 l 1
 851 551 l 1
698 599 m 1
 710 720 l 1
 646 633 l 1
 643 520 l 1
 698 599 l 1
580 684 m 1
 522 610 l 1
 627 648 l 1
 690 733 l 1
 580 684 l 1
622 621 m 1
 499 577 l 1
 499 450 l 1
 618 489 l 1
 622 621 l 1
487 816 m 1
 418 695 l 1
 487 605 l 1
 558 695 l 1
 487 816 l 1
395 684 m 1
 285 733 l 1
 348 648 l 1
 453 610 l 1
 395 684 l 1
476 577 m 1
 352 621 l 1
 356 489 l 1
 476 450 l 1
 476 577 l 1
329 633 m 1
 264 720 l 1
 276 599 l 1
 332 520 l 1
 329 633 l 1
124 552 m 1
 216 446 l 1
 326 487 l 1
 260 581 l 1
 124 552 l 1
220 423 m 1
 139 334 l 1
 243 368 l 1
 310 456 l 1
 220 423 l 1
144 309 m 1
 265 283 l 1
 358 313 l 1
 250 346 l 1
 144 309 l 1
262 123 m 1
 391 179 l 1
 388 298 l 1
 276 262 l 1
 262 123 l 1
394 327 m 1
 469 428 l 1
 349 468 l 1
 269 364 l 1
 394 327 l 1
476 71 m 1
 476 181 l 1
 412 274 l 1
 414 175 l 1
 476 71 l 1
414 313 m 1
 487 206 l 1
 561 313 l 1
 487 414 l 1
 414 313 l 1
561 175 m 1
 563 274 l 1
 499 181 l 1
 499 71 l 1
 561 175 l 1
507 428 m 1
 580 327 l 1
 706 364 l 1
 626 468 l 1
 507 428 l 1
584 179 m 1
 712 123 l 1
 698 262 l 1
 587 298 l 1
 584 179 l 1
710 283 m 1
 830 309 l 1
 726 346 l 1
 616 313 l 1
 710 283 l 1
EndSplineSet
EndChar

StartChar: uniE93F
Encoding: 59711 59711 39
Width: 958
VWidth: 1073
Flags: HW
HStem: 538 36<478 478>
LayerCount: 2
Fore
SplineSet
613 477 m 1
 613 477 l 1
 631 423 705 356 705 356 c 1
 705 356 618 353 563 314 c 0
 508 276 480 193 480 193 c 1
 480 193 438 284 393 316 c 0
 348 348 256 356 256 356 c 1
 256 356 328 420 344 476 c 0
 361 532 342 621 342 621 c 1
 342 621 418 573 477 573 c 0
 536 573 618 621 618 621 c 1
 618 621 595 531 613 477 c 1
542 345 m 0
 581 375 637 381 637 381 c 1
 637 381 596 426 581 467 c 0
 566 507 578 563 578 563 c 1
 578 563 538 538 478 538 c 0
 418 538 385 563 385 563 c 1
 385 563 394 521 378 466 c 0
 368 432 349 404 323 381 c 1
 323 381 378 375 416 346 c 0
 453 317 479 266 479 266 c 1
 479 266 503 315 542 345 c 0
542 517 m 1
 542 517 534 483 544 454 c 0
 554 425 581 397 581 397 c 1
 561 392 539 384 522 373 c 0
 495 357 480 325 480 325 c 1
 460 362 422 389 379 397 c 1
 379 397 403 425 412 456 c 0
 418 475 420 497 418 517 c 1
 418 517 448 504 478 504 c 0
 508 504 542 517 542 517 c 1
770 431 m 1
 771 431 l 1
 888 298 l 1
 715 260 l 1
 733 83 l 1
 569 155 l 1
 480 1 l 1
 390 155 l 1
 227 83 l 1
 246 260 l 1
 73 298 l 1
 189 431 l 1
 72 563 l 1
 246 601 l 1
 227 778 l 1
 390 707 l 1
 480 860 l 1
 569 707 l 1
 733 778 l 1
 715 601 l 1
 888 563 l 1
 770 431 l 1
581 290 m 1
 581 290 l 1
 612 310 779 333 779 333 c 1
 779 333 656 454 646 489 c 0
 636 524 665 685 665 685 c 1
 665 685 554 610 476 610 c 0
 398 610 295 685 295 685 c 1
 295 685 328 569 308 493 c 0
 288 417 180 333 180 333 c 1
 180 333 320 326 373 290 c 0
 426 254 480 116 480 116 c 1
 480 116 551 267 581 290 c 1
EndSplineSet
EndChar

StartChar: uniE940
Encoding: 59712 59712 40
Width: 1073
VWidth: 1073
Flags: HW
LayerCount: 2
Fore
SplineSet
393 215 m 5
 581 0 l 5
 307 0 l 5
 120 215 l 5
 307 430 l 5
 120 644 l 5
 307 859 l 5
 581 859 l 5
 393 644 l 5
 581 430 l 5
 393 215 l 5
954 859 m 5
 769 644 l 5
 581 859 l 5
 954 859 l 5
581 0 m 5
 769 215 l 5
 954 0 l 5
 581 0 l 5
EndSplineSet
EndChar

StartChar: uniE941
Encoding: 59713 59713 41
Width: 1098
VWidth: 1073
Flags: HW
LayerCount: 2
Fore
SplineSet
581 611 m 4
 689 611 745 525 745 440 c 4
 745 360 685 276 585 276 c 4
 518 276 484 313 473 332 c 5
 472 332 l 5
 472 166 l 5
 437 166 410 193 410 228 c 6
 410 609 l 5
 411 609 l 6
 442 609 467 585 467 554 c 5
 468 554 l 5
 497 595 540 611 581 611 c 4
579 332 m 4
 635 332 686 375 686 443 c 4
 686 499 642 557 577 557 c 4
 515 557 471 502 471 444 c 4
 471 381 520 332 579 332 c 4
550 0 m 4
 318 0 129 190 129 422 c 4
 129 654 318 842 550 842 c 4
 782 842 971 654 971 422 c 4
 971 191 781 0 550 0 c 4
169 421 m 4
 169 210 339 40 550 40 c 4
 761 40 931 211 931 421 c 4
 931 631 760 802 550 802 c 4
 339 802 169 632 169 421 c 4
EndSplineSet
EndChar

StartChar: uniE942
Encoding: 59714 59714 42
Width: 1048
VWidth: 1048
Flags: HW
LayerCount: 2
Fore
SplineSet
166 179 m 5
 106 179 l 5
 106 836 l 5
 166 836 l 5
 166 179 l 5
286 179 m 5
 226 179 l 5
 226 836 l 5
 286 836 l 5
 286 179 l 5
 286 179 l 5
405 179 m 5
 345 179 l 5
 345 836 l 5
 405 836 l 5
 405 179 l 5
 405 179 l 5
524 179 m 5
 465 179 l 5
 465 836 l 5
 524 836 l 5
 524 179 l 5
644 179 m 5
 584 179 l 5
 584 836 l 5
 644 836 l 5
 644 179 l 5
763 179 m 5
 703 179 l 5
 703 836 l 5
 763 836 l 5
 763 179 l 5
345 0 m 5
 286 0 l 5
 286 656 l 5
 345 656 l 5
 345 0 l 5
465 0 m 5
 405 0 l 5
 405 657 l 5
 465 657 l 5
 465 0 l 5
584 0 m 5
 524 0 l 5
 524 656 l 5
 584 656 l 5
 584 0 l 5
 584 0 l 5
703 0 m 5
 644 0 l 5
 644 657 l 5
 703 657 l 5
 703 0 l 5
823 0 m 5
 763 0 l 5
 763 657 l 5
 823 657 l 5
 823 0 l 5
942 0 m 5
 882 0 l 5
 882 656 l 5
 942 656 l 5
 942 0 l 5
EndSplineSet
EndChar

StartChar: uniE943
Encoding: 59715 59715 43
Width: 1048
VWidth: 1048
Flags: HW
LayerCount: 2
Fore
SplineSet
523 334 m 4
 459 334 419 404 451 459 c 4
 466 485 493 501 523 501 c 4
 587 501 627 431 595 376 c 4
 580 350 553 334 523 334 c 4
523 359 m 4
 568 359 595 408 573 447 c 4
 563 465 544 476 523 476 c 4
 478 476 450 427 472 388 c 4
 482 370 502 359 523 359 c 4
396 725 m 5
 396 665 l 6
 399 647 432 573 455 530 c 5
 425 552 358 602 340 627 c 4
 328 641 318 657 312 675 c 5
 194 609 l 5
 194 466 l 5
 209 458 232 441 245 436 c 4
 263 429 343 421 391 419 c 5
 356 404 282 371 250 368 c 4
 223 363 206 366 194 368 c 5
 194 227 l 5
 308 162 l 5
 323 169 348 182 360 190 c 4
 375 202 421 266 446 308 c 5
 443 271 433 190 421 160 c 4
 411 135 400 122 393 112 c 5
 524 37 l 5
 646 107 l 5
 648 122 649 153 646 170 c 4
 644 188 611 262 589 305 c 5
 619 282 684 232 704 207 c 4
 722 185 729 167 732 157 c 5
 855 227 l 5
 855 366 l 5
 842 374 815 391 798 398 c 4
 781 405 702 412 654 414 c 5
 689 431 763 463 795 466 c 4
 825 471 843 467 855 464 c 5
 855 609 l 5
 739 675 l 5
 687 643 l 6
 672 631 626 567 599 527 c 5
 604 564 614 645 626 675 c 4
 636 700 647 715 655 723 c 5
 524 798 l 5
 396 725 l 5
524 833 m 5
 885 625 l 5
 885 210 l 5
 524 2 l 5
 164 210 l 5
 164 625 l 5
 524 833 l 5
EndSplineSet
EndChar

StartChar: uniE944
Encoding: 59716 59716 44
Width: 1048
VWidth: 1048
Flags: HW
LayerCount: 2
Fore
SplineSet
184 195 m 6
 246 235 320 305 292 386 c 4
 277 430 256 468 253 516 c 4
 253 522 253 528 253 534 c 4
 253 570 259 604 271 636 c 4
 327 786 494 857 645 812 c 4
 784 770 880 608 822 467 c 4
 789 385 774 322 848 259 c 4
 868 242 917 217 917 186 c 4
 917 146 839 194 830 201 c 5
 840 184 939 80 876 73 c 4
 818 66 767 147 732 182 c 4
 674 240 683 112 683 85 c 4
 683 43 653 -43 600 13 c 4
 556 59 573 132 542 183 c 4
 508 239 453 127 439 107 c 4
 423 84 345 -27 314 32 c 4
 289 80 329 155 349 198 c 5
 342 182 291 160 276 152 c 4
 248 136 215 127 180 127 c 4
 177 127 173 127 170 127 c 4
 92 133 152 175 184 195 c 6
 184 195 l 5
 184 195 l 6
EndSplineSet
EndChar

StartChar: uniE945
Encoding: 59717 59717 45
Width: 1048
VWidth: 1048
Flags: HW
LayerCount: 2
Fore
SplineSet
511 833 m 5
 537 833 l 5
 663 826 754 777 821 710 c 4
 888 643 937 554 944 427 c 5
 944 402 l 5
 938 273 887 187 821 118 c 5
 751 52 666 2 537 -4 c 5
 511 -4 l 5
 385 3 295 52 228 119 c 4
 161 186 112 275 105 402 c 5
 105 427 l 6
 105 428 l 4
 111 555 162 645 228 711 c 4
 295 778 385 826 511 833 c 5
511 784 m 4
 452 781 403 768 362 748 c 4
 300 718 249 673 213 617 c 4
 178 562 149 493 153 401 c 4
 156 343 169 294 190 252 c 4
 231 170 294 110 381 73 c 4
 424 55 478 42 538 45 c 4
 596 48 646 60 687 81 c 4
 768 122 832 184 867 271 c 4
 885 315 898 366 895 427 c 4
 889 543 842 623 780 683 c 4
 749 713 712 738 668 756 c 4
 625 774 570 787 511 784 c 4
486 523 m 5
 499 514 512 506 525 496 c 5
 497 478 469 460 441 442 c 5
 445 439 450 436 454 433 c 5
 482 451 511 469 539 487 c 5
 552 479 564 471 576 462 c 5
 548 444 520 425 492 407 c 5
 496 404 501 402 506 399 c 5
 535 417 563 435 592 453 c 5
 592 513 l 5
 655 513 l 5
 655 394 l 5
 673 393 693 394 711 394 c 5
 711 338 l 5
 592 338 l 5
 592 394 l 5
 557 373 522 349 487 327 c 5
 450 351 414 375 378 399 c 5
 367 366 343 341 301 338 c 4
 275 336 246 339 216 338 c 5
 216 513 l 5
 253 511 294 517 324 508 c 4
 350 500 368 479 377 453 c 5
 413 476 450 500 486 523 c 5
276 456 m 6
 276 394 l 5
 291 394 302 392 311 399 c 4
 324 409 327 435 315 448 c 4
 307 457 294 459 276 458 c 4
 276 458 276 457 276 456 c 6
727 513 m 6
 790 513 l 5
 790 394 l 5
 846 394 l 5
 846 338 l 5
 727 338 l 5
 727 511 l 6
 727 512 727 513 727 513 c 6
EndSplineSet
EndChar

StartChar: uniE946
Encoding: 59718 59718 46
Width: 1001
VWidth: 1048
Flags: HW
LayerCount: 2
Fore
SplineSet
833 828 m 2
 833 828 l 0
 833 651 764 490 651 371 c 1
 168 828 l 1
 638 358 l 1
 518 238 352 164 169 164 c 0
 168 164 l 2
 168 828 l 1
 833 828 l 2
767 230 m 0
 651 114 501 31 334 -2 c 1
 194 138 l 1
 374 145 538 221 657 340 c 1
 767 230 l 0
EndSplineSet
EndChar

StartChar: uniE947
Encoding: 59719 59719 47
Width: 1048
VWidth: 1048
Flags: HW
LayerCount: 2
Fore
SplineSet
516 835 m 5
 553 405 l 5
 107 26 l 5
 516 835 l 5
916 1 m 5
 105 1 l 5
 366 223 l 5
 916 1 l 5
944 8 m 5
 595 149 l 5
 535 821 l 5
 944 8 l 5
556 384 m 5
 576 156 l 5
 380 234 l 5
 556 384 l 5
EndSplineSet
EndChar

StartChar: uniE948
Encoding: 59720 59720 48
Width: 1048
VWidth: 1048
Flags: HW
LayerCount: 2
Fore
SplineSet
809 827 m 4
 994 827 798 565 694 565 c 4
 590 565 625 827 809 827 c 4
524 795 m 4
 615 795 557 594 503 597 c 4
 448 600 411 782 515 795 c 4
 518 795 521 795 524 795 c 4
344 724 m 5
 344 724 l 5
 409 725 403 562 360 553 c 4
 313 543 243 686 326 720 c 4
 332 722 338 724 344 724 c 5
211 612 m 5
 211 612 l 5
 262 610 283 479 249 464 c 4
 210 447 121 558 188 604 c 4
 195 609 202 612 211 612 c 5
582 527 m 6
 582 527 l 6
 673 528 747 500 757 442 c 4
 787 264 333 199 504 69 c 4
 558 28 612 60 604 123 c 4
 597 176 790 208 775 128 c 4
 755 23 650 -60 558 -60 c 4
 372 -60 193 157 228 313 c 4
 259 454 440 526 582 527 c 6
EndSplineSet
EndChar

StartChar: uniE949
Encoding: 59721 59721 49
Width: 1048
VWidth: 1048
Flags: HW
LayerCount: 2
Fore
SplineSet
589 830 m 5
 588 580 l 5
 770 824 l 5
 917 790 l 5
 728 546 l 5
 916 288 l 5
 772 242 l 5
 588 511 l 5
 588 268 l 5
 451 248 l 5
 451 817 l 5
 589 830 l 5
276 691 m 6
 276 691 l 6
 277 691 l 4
 278 691 280 691 281 690 c 6
 384 622 l 5
 384 622 l 5
 397 629 410 635 424 640 c 5
 424 583 l 6
 348 549 295 472 295 383 c 4
 295 262 393 163 514 163 c 4
 599 163 674 212 710 283 c 5
 764 204 l 6
 765 203 767 202 768 202 c 4
 769 203 l 6
 781 206 l 5
 818 145 l 6
 819 144 819 143 819 142 c 4
 819 140 818 138 817 137 c 6
 762 83 l 6
 760 81 757 80 754 82 c 6
 652 148 l 6
 631 136 610 126 586 120 c 6
 558 5 l 6
 557 2 554 -1 551 -1 c 6
 551 -1 l 5
 474 -1 l 6
 471 -1 468 2 467 5 c 6
 443 120 l 6
 420 126 398 135 378 147 c 6
 276 85 l 6
 275 84 273 84 272 84 c 4
 270 84 268 85 267 86 c 6
 213 140 l 6
 212 141 211 143 211 145 c 4
 211 146 211 148 212 149 c 6
 278 249 l 6
 266 271 256 294 250 319 c 6
 137 346 l 6
 134 347 131 350 131 353 c 6
 131 430 l 5
 131 430 l 6
 131 433 134 436 137 437 c 6
 254 461 l 6
 260 482 269 503 280 522 c 6
 217 626 l 6
 216 627 216 629 216 630 c 4
 216 632 217 634 218 635 c 6
 272 689 l 6
 273 690 274 691 276 691 c 6
EndSplineSet
EndChar

StartChar: uniE94A
Encoding: 59722 59722 50
Width: 1048
VWidth: 1048
Flags: HW
LayerCount: 2
Fore
SplineSet
495 476 m 5
 443 457 425 388 464 347 c 5
 352 108 l 5
 251 108 l 6
 213 108 182 139 182 177 c 6
 182 653 l 5
 182 615 213 584 251 584 c 4
 251 584 l 4
 252 584 254 584 255 584 c 6
 766 584 l 5
 766 584 854 591 865 530 c 5
 856 529 849 523 849 514 c 4
 849 489 829 469 804 469 c 6
 776 469 l 6
 765 469 755 460 755 448 c 6
 755 108 l 5
 695 108 l 5
 579 348 l 5
 617 391 596 453 553 473 c 5
 553 501 l 6
 554 516 541 531 524 531 c 4
 506 531 494 516 495 501 c 6
 495 476 l 5
524 514 m 4
 531 514 536 508 536 502 c 4
 536 501 l 6
 536 461 l 5
 536 461 l 5
 562 454 582 431 582 400 c 4
 582 380 572 363 558 352 c 5
 705 47 l 6
 715 26 702 -2 675 -2 c 4
 660 -2 649 7 644 17 c 4
 612 85 579 152 547 220 c 4
 538 240 508 240 498 220 c 4
 466 152 435 84 403 16 c 4
 389 -16 339 -5 339 30 c 4
 339 35 340 40 342 45 c 4
 389 147 438 249 485 351 c 5
 443 382 457 454 512 463 c 5
 512 501 l 6
 512 502 l 4
 512 508 517 514 524 514 c 4
558 401 m 4
 558 422 542 439 521 439 c 4
 500 439 482 422 482 401 c 4
 482 380 499 363 520 363 c 6
 520 363 l 6
 541 363 558 380 558 401 c 4
523 218 m 4
 527 218 529 216 531 213 c 6
 582 108 l 5
 465 108 l 5
 514 213 l 6
 516 216 519 218 523 218 c 4
805 452 m 6
 839 452 867 480 867 514 c 5
 867 60 l 6
 867 26 839 -2 805 -2 c 6
 776 -2 l 6
 774 -2 772 -1 772 1 c 6
 772 448 l 6
 772 450 774 452 776 452 c 6
 804 452 l 5
 805 452 l 6
199 653 m 6
 199 662 192 669 184 670 c 5
 192 700 219 722 251 722 c 6
 351 722 l 5
 321 689 301 647 294 601 c 5
 255 601 l 6
 253 601 253 601 251 601 c 4
 223 601 199 624 199 652 c 6
 199 653 l 6
382 819 m 4
 382 823 385 827 389 827 c 4
 392 827 395 825 396 823 c 6
 432 760 l 5
 460 773 491 780 524 780 c 4
 557 780 588 773 616 760 c 5
 652 823 l 6
 653 825 656 826 658 826 c 4
 662 826 666 822 666 818 c 4
 666 817 665 816 665 815 c 6
 629 753 l 5
 687 721 727 665 737 601 c 5
 311 601 l 5
 321 665 361 721 419 753 c 5
 383 815 l 6
 382 816 382 818 382 819 c 4
605 663 m 4
 605 653 613 645 623 645 c 4
 623 645 l 4
 633 645 641 653 641 663 c 4
 641 673 633 681 623 681 c 4
 613 681 605 673 605 663 c 4
407 663 m 4
 407 653 415 645 425 645 c 4
 425 645 l 4
 425 645 l 4
 435 645 444 654 444 664 c 4
 444 674 436 682 426 682 c 4
 416 682 407 673 407 663 c 4
EndSplineSet
EndChar

StartChar: uniE94B
Encoding: 59723 59723 51
Width: 1048
VWidth: 1048
Flags: HW
LayerCount: 2
Fore
SplineSet
525 835 m 4
 527 835 l 4
 619 835 704 805 773 754 c 5
 732 697 l 5
 675 739 603 765 525 765 c 4
 378 765 253 672 203 543 c 5
 137 570 l 5
 198 725 349 835 525 835 c 4
525 755 m 5
 525 685 l 5
 524 685 525 685 524 685 c 4
 411 685 315 614 277 515 c 5
 211 540 l 5
 260 666 382 755 525 755 c 5
622 665 m 5
 648 731 l 5
 758 688 839 589 858 470 c 5
 786 470 l 5
 769 560 706 634 622 665 c 5
524 231 m 4
 610 231 684 289 707 368 c 5
 779 368 l 5
 755 250 651 161 526 161 c 4
 384 161 269 276 269 418 c 4
 269 560 383 676 525 676 c 5
 525 676 l 6
 526 676 526 676 527 676 c 4
 651 676 754 587 777 470 c 5
 705 470 l 5
 683 548 610 606 525 606 c 6
 525 606 l 6
 524 606 l 4
 421 606 338 522 338 419 c 4
 338 419 l 4
 338 418 l 4
 338 315 421 231 524 231 c 4
879 638 m 5
 911 589 933 531 940 470 c 5
 868 470 l 5
 861 517 843 562 818 600 c 5
 879 638 l 5
523 598 m 5
 523 523 l 5
 466 523 419 476 419 419 c 4
 419 404 423 390 429 377 c 5
 361 347 l 5
 352 369 346 393 346 418 c 4
 346 517 425 596 523 598 c 5
590 585 m 5
 641 566 681 523 696 470 c 5
 616 470 l 5
 603 491 586 506 563 515 c 5
 590 585 l 5
109 419 m 5
 179 419 l 5
 179 370 189 322 207 279 c 5
 145 250 l 5
 120 305 109 362 109 419 c 5
189 419 m 5
 259 419 l 5
 259 307 329 211 427 173 c 5
 400 106 l 5
 275 155 189 277 189 419 c 5
614 368 m 5
 696 368 l 5
 681 315 641 271 590 252 c 5
 563 322 l 5
 586 329 603 347 614 368 c 5
786 368 m 5
 858 368 l 5
 834 206 694 82 526 82 c 4
 525 82 l 5
 525 152 l 5
 654 153 762 246 786 368 c 5
868 368 m 5
 940 368 l 5
 914 163 739 4 528 4 c 6
 527 4 l 6
 412 4 308 49 232 125 c 5
 281 175 l 5
 343 113 431 72 525 72 c 4
 698 73 842 202 868 368 c 5
452 345 m 5
 471 326 496 315 525 315 c 6
 525 315 l 5
 525 239 l 5
 476 239 431 259 399 292 c 5
 452 345 l 5
EndSplineSet
EndChar

StartChar: uniE94C
Encoding: 59724 59724 52
Width: 1048
VWidth: 1048
Flags: HW
LayerCount: 2
Fore
SplineSet
580 336 m 5
 636 432 l 5
 580 529 l 5
 469 529 l 5
 412 432 l 5
 469 336 l 5
 580 336 l 5
600 564 m 5
 677 432 l 5
 600 301 l 5
 448 301 l 5
 372 432 l 5
 448 564 l 5
 600 564 l 5
448 274 m 5
 600 274 l 5
 677 142 l 5
 600 11 l 5
 448 11 l 5
 372 142 l 5
 448 274 l 5
412 141 m 5
 469 46 l 5
 580 46 l 5
 636 141 l 5
 580 238 l 5
 469 238 l 5
 412 141 l 5
448 841 m 5
 600 841 l 5
 677 709 l 5
 600 578 l 5
 448 578 l 5
 372 709 l 5
 448 841 l 5
412 709 m 5
 469 613 l 5
 580 613 l 5
 636 709 l 5
 580 806 l 5
 469 806 l 5
 412 709 l 5
697 412 m 5
 849 412 l 5
 926 280 l 5
 849 149 l 5
 697 149 l 5
 621 280 l 5
 697 412 l 5
662 280 m 5
 718 184 l 5
 829 184 l 5
 885 280 l 5
 829 377 l 5
 718 377 l 5
 662 280 l 5
697 703 m 5
 849 703 l 5
 926 571 l 5
 849 440 l 5
 697 440 l 5
 621 571 l 5
 697 703 l 5
662 570 m 5
 718 475 l 5
 829 475 l 5
 885 570 l 5
 829 667 l 5
 718 667 l 5
 662 570 l 5
199 412 m 5
 351 412 l 5
 427 280 l 5
 351 149 l 5
 199 149 l 5
 123 280 l 5
 199 412 l 5
163 280 m 5
 220 184 l 5
 331 184 l 5
 387 280 l 5
 331 377 l 5
 220 377 l 5
 163 280 l 5
199 703 m 5
 351 703 l 5
 427 571 l 5
 351 440 l 5
 199 440 l 5
 123 571 l 5
 199 703 l 5
163 570 m 5
 220 475 l 5
 331 475 l 5
 387 570 l 5
 331 667 l 5
 220 667 l 5
 163 570 l 5
EndSplineSet
EndChar

StartChar: uniE94D
Encoding: 59725 59725 53
Width: 1048
VWidth: 1048
Flags: HW
LayerCount: 2
Fore
SplineSet
820 481 m 6
 851 481 875 457 875 426 c 6
 875 56 l 6
 875 25 851 1 820 1 c 6
 229 1 l 6
 198 1 173 25 173 56 c 6
 173 426 l 6
 173 457 198 481 229 481 c 6
 820 481 l 6
524 47 m 4
 631 47 718 134 718 241 c 4
 718 348 631 435 524 435 c 4
 417 435 330 348 330 241 c 4
 330 134 417 47 524 47 c 4
524 400 m 4
 612 400 683 329 683 241 c 4
 683 153 612 82 524 82 c 4
 436 82 365 153 365 241 c 4
 365 329 436 400 524 400 c 4
524 125 m 4
 587 125 640 178 640 241 c 4
 640 304 587 357 524 357 c 4
 471 357 426 320 413 271 c 5
 472 271 l 5
 482 289 501 301 524 301 c 4
 558 301 584 275 584 241 c 4
 584 207 558 181 524 181 c 4
 500 181 480 195 470 215 c 5
 412 215 l 5
 424 164 469 125 524 125 c 4
938 819 m 4
 941 816 948 805 938 791 c 6
 872 704 l 5
 874 698 875 692 875 685 c 6
 875 555 l 6
 875 524 851 500 820 500 c 6
 229 500 l 6
 198 500 173 524 173 555 c 6
 173 685 l 6
 173 692 175 698 177 704 c 5
 110 791 l 6
 100 804 108 817 111 819 c 5
 111 820 l 4
 115 825 121 828 129 828 c 4
 136 828 143 825 147 819 c 6
 210 737 l 5
 216 739 223 740 229 740 c 6
 820 740 l 6
 826 740 832 739 838 737 c 5
 902 819 l 6
 906 825 913 828 920 828 c 4
 928 828 934 825 938 820 c 5
 938 819 l 4
346 546 m 4
 380 546 409 574 409 608 c 4
 409 642 380 671 346 671 c 4
 312 671 284 642 284 608 c 4
 284 574 312 546 346 546 c 4
707 546 m 4
 741 546 769 574 769 608 c 4
 769 642 741 671 707 671 c 4
 673 671 644 642 644 608 c 4
 644 574 673 546 707 546 c 4
EndSplineSet
EndChar

StartChar: uniE94E
Encoding: 59726 59726 54
Width: 1103
VWidth: 1048
Flags: HW
LayerCount: 2
Fore
SplineSet
17 386 m 6
 17 437 40 464 93 464 c 4
 114 464 133 457 146 444 c 4
 157 433 163 422 173 386 c 6
 211 243 l 6
 214 230 220 226 229 226 c 4
 239 226 244 232 244 243 c 6
 244 457 l 5
 305 457 l 5
 305 243 l 6
 305 192 282 165 229 165 c 4
 208 165 189 172 176 185 c 4
 165 196 158 207 149 243 c 6
 112 386 l 6
 109 399 103 403 94 403 c 4
 84 403 79 397 79 386 c 6
 79 172 l 5
 17 172 l 5
 17 386 l 6
1023 172 m 5
 952 394 l 6
 951 399 948 403 942 403 c 4
 941 403 l 4
 941 403 l 4
 935 403 931 399 930 394 c 6
 860 172 l 5
 796 172 l 5
 874 414 l 6
 884 444 903 464 941 464 c 4
 979 464 999 444 1009 414 c 6
 1087 172 l 5
 1023 172 l 5
711 344 m 6
 773 344 810 320 810 260 c 4
 810 232 802 213 785 196 c 4
 769 181 749 172 709 172 c 6
 525 172 l 5
 454 394 l 5
 454 393 454 391 454 389 c 4
 454 379 446 371 436 371 c 4
 426 371 417 379 417 389 c 4
 417 399 426 408 436 408 c 4
 442 408 448 405 451 400 c 5
 449 402 447 403 443 403 c 5
 448 403 452 398 452 393 c 4
 452 387 448 383 442 383 c 4
 436 383 432 387 432 393 c 4
 432 402 442 408 450 408 c 4
 460 408 468 399 468 389 c 4
 468 379 460 371 450 371 c 4
 440 371 431 379 431 389 c 4
 431 391 432 393 432 394 c 5
 361 172 l 5
 297 172 l 5
 375 414 l 6
 385 444 405 464 443 464 c 4
 481 464 501 444 511 414 c 6
 569 232 l 5
 721 232 l 6
 742 232 750 241 750 259 c 4
 750 280 737 285 711 285 c 6
 660 285 l 6
 598 285 560 309 560 369 c 4
 560 397 569 416 586 433 c 4
 602 448 621 457 661 457 c 6
 797 457 l 5
 797 396 l 5
 650 396 l 6
 629 396 620 388 620 370 c 4
 620 349 634 344 660 344 c 6
 711 344 l 6
EndSplineSet
EndChar

StartChar: uniE950
Encoding: 59728 59728 55
Width: 1048
VWidth: 1048
Flags: HW
LayerCount: 2
Fore
SplineSet
334 -33 m 4
 303 -33 289 -24 280 -1 c 5
 195 -1 l 6
 178 -1 169 15 169 31 c 4
 169 63 187 92 217 96 c 5
 205 121 205 146 209 174 c 5
 217 172 l 5
 223 204 241 229 268 241 c 5
 270 281 279 316 293 347 c 5
 288 353 283 360 280 368 c 5
 252 384 228 405 208 430 c 4
 196 445 178 468 176 487 c 4
 175 495 175 503 175 512 c 4
 175 537 178 562 182 584 c 5
 149 622 121 674 121 742 c 4
 121 777 124 828 161 828 c 4
 217 828 266 806 311 776 c 5
 351 801 399 814 449 814 c 4
 499 814 546 801 586 776 c 5
 631 806 680 828 736 828 c 4
 736 828 l 4
 772 828 776 778 776 743 c 4
 776 675 748 623 715 584 c 5
 719 562 722 538 722 513 c 4
 722 504 722 495 721 487 c 4
 719 467 702 444 690 429 c 4
 670 404 645 384 617 368 c 5
 612 357 607 347 599 339 c 5
 608 318 613 293 617 268 c 5
 642 310 674 347 716 370 c 4
 740 384 769 392 797 391 c 4
 860 389 921 333 927 274 c 4
 927 272 927 271 927 269 c 4
 927 227 866 190 828 226 c 4
 813 240 814 262 798 274 c 4
 765 299 732 266 715 245 c 4
 698 224 683 201 672 175 c 4
 672 174 671 174 671 173 c 4
 671 172 l 5
 679 174 l 5
 683 146 683 121 671 96 c 5
 687 94 701 86 709 69 c 4
 714 57 720 44 720 31 c 4
 720 15 710 -1 693 -1 c 6
 607 -1 l 5
 599 -23 584 -33 554 -33 c 4
 554 -33 l 4
 543 -33 531 -33 520 -33 c 4
 490 -33 454 -38 444 -16 c 5
 440 -25 431 -32 420 -32 c 4
 392 -33 363 -34 334 -33 c 4
197 619 m 5
 207 652 224 683 244 709 c 5
 224 744 196 778 165 795 c 5
 162 795 l 6
 161 794 l 4
 140 714 172 653 197 619 c 5
733 795 m 5
 702 778 673 744 653 709 c 5
 673 684 690 652 700 619 c 5
 725 653 757 714 736 794 c 5
 735 795 l 5
 733 795 l 5
208 789 m 5
 227 771 244 749 258 726 c 5
 267 736 277 744 287 752 c 5
 262 768 236 782 208 789 c 5
689 789 m 5
 661 782 636 768 611 752 c 5
 621 744 630 735 639 725 c 5
 654 748 669 770 689 789 c 5
347 460 m 4
 347 471 350 479 354 486 c 5
 301 495 260 512 258 537 c 4
 255 565 279 617 314 648 c 4
 344 675 392 688 442 689 c 5
 442 782 l 5
 370 780 300 745 254 677 c 4
 197 592 208 493 208 490 c 4
 208 487 210 484 211 482 c 4
 253 465 297 454 348 448 c 5
 347 452 347 456 347 460 c 4
544 486 m 5
 548 479 550 471 550 460 c 4
 550 456 550 452 549 448 c 5
 603 454 643 465 687 482 c 4
 688 484 689 487 689 490 c 6
 689 490 700 594 641 680 c 4
 595 746 525 780 455 782 c 5
 455 689 l 5
 505 688 554 674 584 648 c 4
 619 617 642 565 639 537 c 4
 637 512 597 495 544 486 c 5
425 757 m 4
 432 757 435 749 430 744 c 4
 425 739 417 742 417 749 c 4
 417 749 l 4
 417 753 420 757 424 757 c 4
 425 757 l 4
473 757 m 4
 480 757 483 749 478 744 c 4
 473 739 465 742 465 749 c 4
 465 753 469 757 473 757 c 4
425 723 m 4
 432 723 435 714 430 709 c 4
 425 704 417 708 417 715 c 4
 417 719 421 723 425 723 c 4
473 723 m 4
 480 723 483 714 478 709 c 4
 473 704 465 708 465 715 c 4
 465 719 469 723 473 723 c 4
347 572 m 4
 363 572 374 556 374 540 c 4
 374 540 l 4
 374 536 378 532 382 532 c 4
 401 532 382 567 377 573 c 4
 369 582 359 588 347 588 c 4
 328 588 315 575 309 562 c 4
 307 557 310 551 316 551 c 4
 319 551 322 553 323 556 c 4
 327 564 335 572 347 572 c 4
582 551 m 4
 587 551 589 555 589 559 c 4
 589 568 579 577 573 581 c 4
 566 586 559 588 551 588 c 4
 526 588 508 565 508 540 c 4
 508 536 512 532 516 532 c 4
 520 532 523 536 523 540 c 4
 523 540 l 4
 523 556 535 572 551 572 c 4
 563 572 571 564 575 556 c 4
 576 553 579 551 582 551 c 4
448 509 m 6
 413 509 371 494 367 468 c 4
 362 440 381 422 407 413 c 4
 428 409 439 421 444 430 c 4
 447 434 448 437 449 437 c 6
 449 437 l 6
 450 437 451 435 453 430 c 4
 458 420 469 405 500 417 c 4
 521 427 534 443 530 468 c 4
 526 494 484 509 449 509 c 6
 448 509 l 6
449 497 m 4
 470 497 495 491 498 478 c 4
 502 456 470 446 449 446 c 4
 428 446 395 456 399 478 c 4
 402 491 428 497 449 497 c 4
381 371 m 4
 381 384 390 392 400 396 c 5
 380 403 360 414 352 434 c 5
 303 439 261 450 220 465 c 5
 256 410 311 377 382 363 c 5
 382 363 l 4
 381 366 381 368 381 371 c 4
498 396 m 5
 508 392 517 384 517 371 c 4
 517 368 516 366 515 363 c 5
 550 370 583 382 613 401 c 4
 638 417 659 440 677 464 c 5
 636 449 594 439 545 434 c 5
 536 414 518 403 498 396 c 5
498 369 m 4
 509 390 392 390 399 370 c 4
 404 357 430 356 449 355 c 4
 468 356 492 357 498 369 c 4
846 350 m 5
 829 360 812 366 793 366 c 4
 784 366 779 365 775 360 c 4
 764 348 765 324 775 311 c 4
 776 310 776 309 776 308 c 4
 786 307 796 305 804 300 c 5
 808 324 825 344 846 350 c 5
758 307 m 5
 753 316 751 326 751 337 c 4
 751 345 753 353 756 360 c 5
 740 355 726 347 713 338 c 4
 713 338 l 4
 704 324 722 302 731 298 c 4
 732 298 732 298 733 297 c 4
 740 302 749 305 758 307 c 5
326 353 m 5
 342 331 365 315 391 306 c 5
 364 310 338 319 317 333 c 5
 304 304 294 263 301 208 c 4
 303 195 305 183 307 172 c 5
 342 188 367 181 397 161 c 5
 401 209 411 245 416 260 c 4
 418 266 420 270 424 270 c 4
 428 270 435 270 435 258 c 4
 426 224 420 185 419 146 c 5
 427 145 435 145 443 145 c 4
 452 145 460 146 469 147 c 5
 468 180 463 212 457 242 c 4
 456 248 454 255 452 261 c 4
 452 273 468 275 472 262 c 4
 477 248 487 211 491 160 c 5
 518 176 555 188 581 173 c 5
 583 184 585 196 587 208 c 4
 593 259 586 298 574 326 c 5
 553 314 527 307 501 304 c 5
 530 312 555 330 572 353 c 5
 565 351 559 348 552 346 c 4
 524 331 490 320 449 320 c 4
 412 320 377 329 346 346 c 4
 339 348 333 351 326 353 c 5
860 336 m 4
 838 337 821 313 820 292 c 4
 820 291 819 290 819 289 c 4
 836 273 836 254 846 244 c 4
 864 227 905 246 902 271 c 4
 900 293 888 315 870 332 c 4
 869 332 l 4
 867 334 863 336 860 336 c 4
 860 336 l 4
719 286 m 5
 707 294 698 307 695 324 c 5
 684 314 673 304 664 292 c 5
 663 278 681 265 694 265 c 4
 695 265 697 265 698 265 c 4
 705 273 711 279 719 286 c 5
686 250 m 5
 671 253 659 264 652 276 c 5
 642 262 634 247 626 232 c 5
 639 224 649 213 656 200 c 5
 665 217 674 234 686 250 c 5
610 218 m 5
 608 190 603 164 596 138 c 5
 612 146 631 155 648 160 c 5
 645 185 631 208 610 218 c 5
278 217 m 5
 257 207 244 185 241 160 c 5
 258 155 276 146 292 138 c 5
 285 164 280 189 278 217 c 5
397 135 m 5
 375 154 341 168 313 148 c 5
 320 119 332 92 345 66 c 4
 347 62 347 62 351 60 c 4
 362 53 377 46 380 19 c 5
 368 35 355 46 337 50 c 4
 328 50 319 48 312 41 c 4
 297 25 307 -2 316 -4 c 4
 325 -6 419 -4 419 -4 c 5
 419 -4 423 13 416 23 c 4
 409 33 398 82 397 135 c 5
575 148 m 5
 547 168 513 154 492 135 c 5
 491 82 479 33 472 23 c 4
 465 13 469 -4 469 -4 c 5
 469 -4 562 -6 571 -4 c 4
 580 -2 591 25 576 41 c 4
 569 48 559 50 550 50 c 4
 532 46 520 35 508 19 c 5
 511 46 526 53 537 60 c 4
 540 62 541 62 543 66 c 4
 556 92 568 119 575 148 c 5
282 24 m 5
 283 47 298 64 317 70 c 5
 310 84 305 99 300 114 c 5
 276 127 248 140 231 144 c 5
 230 94 262 73 281 58 c 5
 196 97 186 31 195 24 c 5
 282 24 l 5
656 144 m 5
 639 140 610 125 585 112 c 5
 580 97 575 83 568 69 c 5
 588 64 604 46 605 24 c 5
 692 24 l 5
 701 31 692 97 607 58 c 5
 626 73 657 94 656 144 c 5
419 128 m 5
 420 93 424 56 437 31 c 5
 442 31 447 31 452 31 c 5
 465 55 470 94 470 129 c 5
 461 128 452 127 443 127 c 4
 435 127 427 127 419 128 c 5
EndSplineSet
EndChar

StartChar: uniE951
Encoding: 59729 59729 56
Width: 1048
VWidth: 1048
Flags: HW
LayerCount: 2
Fore
SplineSet
146 635 m 5
 508 842 l 5
 508 -5 l 5
 363 79 l 5
 363 574 l 5
 146 448 l 5
 146 635 l 5
 146 635 l 5
903 448 m 5
 903 448 l 5
 685 574 l 5
 685 479 l 5
 794 417 l 5
 794 254 l 5
 685 317 l 5
 685 79 l 5
 541 -5 l 5
 541 842 l 5
 902 635 l 5
 903 448 l 5
EndSplineSet
EndChar

StartChar: uniE952
Encoding: 59730 59730 57
Width: 1048
VWidth: 1048
Flags: HW
LayerCount: 2
Fore
SplineSet
105 419 m 4
 105 651 292 839 524 839 c 4
 756 839 944 651 944 419 c 4
 944 187 756 0 524 0 c 4
 292 0 105 187 105 419 c 4
587 523 m 6
 587 327 l 6
 587 316 586 305 584 295 c 5
 638 305 669 339 684 388 c 6
 692 414 l 5
 692 593 l 5
 645 593 615 586 604 571 c 4
 593 556 587 540 587 523 c 6
419 573 m 5
 419 553 l 5
 440 553 l 5
 440 573 l 5
 419 573 l 5
440 542 m 5
 441 522 l 5
 462 522 l 5
 462 542 l 5
 440 542 l 5
419 517 m 5
 419 496 l 5
 440 496 l 5
 440 517 l 5
 419 517 l 5
398 486 m 5
 398 465 l 5
 419 465 l 5
 419 486 l 5
 398 486 l 5
356 594 m 5
 356 573 l 5
 377 573 l 5
 377 594 l 5
 356 594 l 5
462 327 m 6
 462 476 l 5
 440 476 l 5
 440 400 l 5
 419 400 l 5
 419 445 l 5
 398 445 l 5
 398 425 l 5
 377 425 l 5
 377 537 l 5
 356 537 l 5
 356 369 l 6
 356 297 399 252 454 233 c 4
 475 226 498 222 524 222 c 5
 515 228 l 6
 498 239 482 259 471 280 c 4
 464 293 462 309 462 327 c 6
692 386 m 5
 672 321 626 281 539 284 c 4
 511 285 491 292 473 303 c 5
 479 279 489 260 504 248 c 4
 519 236 527 230 528 229 c 6
 541 223 l 5
 611 227 661 260 682 313 c 4
 689 330 692 349 692 369 c 6
 692 386 l 5
398 552 m 5
 398 532 l 5
 419 532 l 5
 419 552 l 5
 398 552 l 5
EndSplineSet
EndChar

StartChar: uniE953
Encoding: 59731 59731 58
Width: 1048
VWidth: 1048
Flags: HW
LayerCount: 2
Fore
SplineSet
296 691 m 5
 251 691 l 5
 251 736 l 5
 296 736 l 5
 296 691 l 5
556 143 m 4
 725 135 841 207 890 368 c 5
 890 330 l 6
 890 155 768 21 560 7 c 5
 533 22 l 6
 529 25 437 76 412 183 c 5
 448 161 495 146 556 143 c 4
250 499 m 5
 296 499 l 5
 296 398 l 5
 342 398 l 5
 342 566 l 5
 388 566 l 5
 388 237 l 6
 388 81 524 5 524 5 c 5
 294 5 159 145 159 330 c 6
 159 703 l 5
 205 703 l 5
 205 453 l 5
 250 453 l 5
 250 499 l 5
205 782 m 5
 159 782 l 5
 159 828 l 5
 205 828 l 5
 205 782 l 5
296 544 m 5
 251 544 l 5
 251 589 l 5
 296 589 l 5
 296 544 l 5
342 612 m 5
 296 612 l 5
 296 657 l 5
 342 657 l 5
 342 612 l 5
388 668 m 5
 342 668 l 5
 342 714 l 5
 388 714 l 5
 388 668 l 5
342 737 m 5
 296 737 l 5
 296 782 l 5
 342 782 l 5
 342 737 l 5
872 373 m 4
 836 255 764 187 654 167 c 5
 659 190 661 214 661 237 c 6
 661 672 l 6
 661 748 683 827 890 827 c 5
 890 431 l 5
 872 373 l 4
EndSplineSet
EndChar

StartChar: uniE954
Encoding: 59732 59732 59
Width: 1048
VWidth: 1048
Flags: HW
LayerCount: 2
Fore
SplineSet
519 833 m 6
 519 833 l 5
 747 833 933 647 933 419 c 4
 933 191 747 4 519 4 c 4
 490 4 463 8 436 13 c 4
 409 18 383 27 358 37 c 4
 333 47 311 60 288 75 c 4
 270 87 253 103 237 118 c 5
 272 120 302 123 325 126 c 4
 337 127 346 128 353 129 c 4
 356 130 358 130 360 130 c 4
 369 130 378 124 386 121 c 4
 401 114 420 105 440 96 c 4
 460 87 483 80 499 74 c 4
 507 71 514 68 520 67 c 4
 523 66 526 66 528 66 c 4
 531 66 533 66 536 68 c 4
 536 68 l 4
 545 78 546 91 542 102 c 4
 537 113 528 126 519 136 c 4
 510 146 500 156 494 164 c 4
 492 167 490 169 489 170 c 4
 489 171 489 172 489 173 c 4
 489 176 493 178 496 178 c 4
 499 178 501 177 505 176 c 4
 516 173 532 168 547 163 c 4
 562 158 577 154 589 151 c 4
 595 150 600 147 604 147 c 4
 606 147 608 147 610 148 c 4
 611 149 614 152 615 154 c 4
 615 154 l 4
 618 162 615 170 610 179 c 4
 605 188 598 198 590 207 c 4
 582 216 574 225 567 232 c 4
 564 236 560 240 558 243 c 4
 556 245 555 246 554 248 c 4
 554 248 l 4
 553 248 l 4
 553 249 l 4
 553 249 l 4
 550 255 547 263 548 271 c 4
 549 279 553 287 562 293 c 4
 563 294 565 295 568 296 c 4
 571 297 574 299 578 301 c 4
 585 305 595 309 606 314 c 4
 629 324 656 338 683 353 c 4
 710 368 737 385 756 401 c 4
 775 417 788 437 785 455 c 4
 781 485 762 507 735 524 c 4
 708 541 676 553 643 561 c 4
 610 569 579 576 554 580 c 4
 542 582 531 584 524 585 c 4
 522 585 521 586 520 586 c 4
 519 586 519 586 518 586 c 4
 517 586 516 587 516 588 c 4
 516 589 516 590 516 591 c 4
 516 592 l 4
 516 597 516 602 516 609 c 4
 516 624 514 645 511 663 c 4
 508 681 503 699 493 711 c 4
 484 722 466 727 447 720 c 4
 435 715 428 702 425 690 c 4
 422 677 422 662 424 648 c 4
 426 634 429 618 432 607 c 4
 435 597 437 592 438 589 c 4
 438 588 438 588 438 587 c 4
 438 586 438 585 437 584 c 4
 436 583 l 4
 435 582 434 582 433 582 c 4
 431 582 429 582 427 583 c 4
 426 583 424 584 424 584 c 5
 423 584 422 585 422 586 c 5
 422 586 423 586 422 587 c 4
 421 588 421 589 420 591 c 4
 418 595 415 599 413 604 c 4
 408 615 402 630 395 642 c 4
 388 655 381 667 372 675 c 4
 368 679 361 683 356 684 c 4
 351 685 344 684 339 681 c 4
 325 673 317 660 314 647 c 4
 311 634 312 619 314 606 c 4
 316 593 321 580 323 571 c 4
 324 567 325 565 325 563 c 4
 325 561 324 555 324 553 c 4
 318 528 303 512 292 499 c 4
 289 496 283 495 276 493 c 4
 269 491 260 489 249 489 c 4
 227 489 199 493 169 498 c 4
 151 501 133 504 116 507 c 5
 121 533 128 556 138 580 c 4
 148 605 161 627 176 650 c 4
 191 673 209 694 227 712 c 4
 245 730 265 747 288 762 c 4
 311 777 333 790 358 800 c 4
 383 810 409 819 436 824 c 4
 463 829 490 833 519 833 c 6
708 706 m 4
 707 706 706 705 705 703 c 4
 694 685 693 661 688 639 c 4
 686 615 677 591 684 567 c 4
 690 557 700 567 701 575 c 4
 711 614 719 656 716 696 c 4
 715 700 711 706 708 706 c 4
794 683 m 4
 776 675 766 652 754 637 c 4
 740 611 721 586 719 556 c 4
 719 545 732 543 737 552 c 4
 764 588 784 630 800 672 c 4
 802 677 800 684 794 683 c 4
EndSplineSet
EndChar

StartChar: uniE955
Encoding: 59733 59733 60
Width: 1048
VWidth: 1048
Flags: HW
LayerCount: 2
Fore
SplineSet
514 839 m 5
 944 626 l 5
 943 626 l 5
 943 233 l 5
 717 108 l 5
 717 487 l 6
 720 502 716 504 709 500 c 6
 708 499 l 6
 704 496 697 492 693 489 c 6
 693 94 l 5
 523 0 l 5
 104 253 l 5
 104 645 l 5
 514 839 l 5
546 740 m 4
 544 740 543 740 541 740 c 4
 523 740 504 738 487 735 c 4
 445 726 407 710 371 688 c 4
 332 669 305 620 325 579 c 4
 353 524 419 498 478 492 c 4
 513 505 547 523 581 539 c 5
 537 540 489 536 447 553 c 4
 412 563 389 607 415 637 c 4
 438 671 479 682 516 688 c 4
 555 690 596 688 629 665 c 4
 661 650 674 610 655 580 c 5
 691 597 726 617 761 636 c 5
 728 673 687 703 641 721 c 4
 611 733 579 739 546 740 c 4
EndSplineSet
EndChar

StartChar: uniE956
Encoding: 59734 59734 61
Width: 1048
VWidth: 1048
Flags: HW
LayerCount: 2
Fore
SplineSet
167 842 m 6
 882 842 l 6
 916 842 943 814 943 780 c 6
 943 65 l 6
 943 31 916 3 882 3 c 6
 167 3 l 6
 133 3 105 31 105 65 c 6
 105 780 l 6
 105 814 133 842 167 842 c 6
285 655 m 5
 284 172 l 5
 525 172 l 5
 526 535 l 5
 647 535 l 5
 646 172 l 5
 767 172 l 5
 768 655 l 5
 285 655 l 5
EndSplineSet
EndChar

StartChar: uniE957
Encoding: 59735 59735 62
Width: 1048
VWidth: 1048
Flags: HW
LayerCount: 2
Fore
SplineSet
168 828 m 0
 207 828 239 796 239 757 c 0
 239 718 207 686 168 686 c 0
 129 686 96 718 96 757 c 0
 96 796 129 828 168 828 c 0
495 674 m 2
 733 674 l 2
 854 674 952 575 952 454 c 2
 952 454 l 1
 952 216 l 2
 952 95 854 -3 733 -3 c 2
 495 -3 l 2
 374 -3 275 95 275 216 c 2
 275 454 l 2
 275 575 374 674 495 674 c 2
442 573 m 0
 393 573 353 533 353 484 c 0
 353 435 393 395 442 395 c 0
 491 395 531 435 531 484 c 0
 531 533 491 573 442 573 c 0
726 354 m 2
 726 354 l 2
 647 354 584 291 584 212 c 0
 584 133 647 70 726 70 c 2
 726 70 l 2
 805 70 868 133 868 212 c 0
 868 291 805 354 726 354 c 2
EndSplineSet
EndChar

StartChar: uniE958
Encoding: 59736 59736 63
Width: 1186
VWidth: 1048
Flags: HW
LayerCount: 2
Fore
SplineSet
1099 780 m 2
 1099 780 l 2
 1166 713 1241 528 952 312 c 0
 869 250 841 126 839 17 c 0
 839 8 830 1 821 1 c 2
 744 1 l 2
 736 1 728 7 727 15 c 0
 720 72 670 118 611 118 c 0
 552 118 503 72 496 15 c 0
 495 7 486 1 478 1 c 2
 401 1 l 2
 393 1 385 7 384 15 c 0
 377 72 327 118 268 118 c 0
 209 118 160 72 153 15 c 0
 152 6 144 0 135 0 c 0
 135 0 l 2
 56 0 l 2
 48 0 40 6 39 14 c 0
 -6 246 77 430 211 525 c 1
 282 403 l 2
 298 375 327 357 362 357 c 0
 362 357 l 0
 364 357 l 0
 380 357 396 362 409 369 c 2
 441 387 l 1
 442 387 l 2
 481 412 518 439 552 470 c 0
 555 473 557 477 557 482 c 0
 557 487 555 492 551 495 c 0
 548 497 544 499 540 499 c 0
 535 499 530 498 527 495 c 0
 494 466 461 440 424 417 c 2
 391 398 l 1
 392 399 l 1
 391 398 l 2
 383 393 372 391 362 391 c 0
 340 391 321 404 311 421 c 2
 238 549 l 2
 233 557 229 568 229 579 c 0
 229 603 243 622 262 631 c 0
 694 837 886 438 1028 580 c 0
 1047 598 1060 624 1060 654 c 0
 1060 711 1013 758 956 758 c 0
 931 758 910 749 893 735 c 0
 890 733 887 732 883 732 c 0
 878 732 873 733 870 736 c 2
 849 759 l 2
 846 762 843 766 843 771 c 0
 843 776 846 781 849 784 c 0
 881 814 925 833 972 833 c 0
 1021 833 1066 813 1099 780 c 2
804 454 m 1
 804 454 l 1
 812 460 818 470 818 481 c 0
 818 500 802 516 783 516 c 0
 764 516 750 500 750 481 c 2
 804 454 l 1
EndSplineSet
EndChar

StartChar: uniEB01
Encoding: 60161 60161 67
Width: 851
Flags: HW
HStem: 3 170<283 571> 233 80<366 491> 372 112<402 472> 536 132<362 496> 766 55<242 608>
VStem: 374 111<383 472>
LayerCount: 2
Fore
SplineSet
683 247 m 1
 690 247 693 239 690 232 c 2
 690 229 l 2
 677 156 665 104 665 97 c 0
 655 45 550 3 425 3 c 0
 300 3 195 45 185 97 c 2
 161 229 l 1
 161 232 l 2
 161 242 168 247 175 247 c 0
 178 247 185 244 185 244 c 1
 185 244 272 173 429 173 c 0
 586 173 673 244 673 244 c 1
 673 244 676 247 683 247 c 1
429 821 m 1
 625 821 788 745 778 682 c 2
 725 341 l 2
 715 296 603 233 429 233 c 0
 255 233 140 296 133 341 c 0
 116 438 74 685 74 702 c 0
 74 769 233 821 429 821 c 1
429 313 m 1
 491 313 540 366 540 424 c 0
 540 425 540 425 540 426 c 0
 540 486 490 536 430 536 c 0
 429 536 l 0
 367 536 317 486 317 424 c 0
 317 423 l 0
 317 363 368 313 428 313 c 0
 429 313 l 1
429 483 m 2
 460 483 484 459 484 428 c 2
 484 397 460 372 429 372 c 0
 419 372 409 374 401 379 c 0
 385 388 373 408 373 428 c 1
 374 428 l 1
 374 459 398 483 429 483 c 2
429 668 m 1
 554 668 655 689 655 717 c 0
 655 745 554 766 429 766 c 0
 304 766 203 745 203 717 c 0
 203 689 304 668 429 668 c 1
EndSplineSet
EndChar

StartChar: uniEB02
Encoding: 60162 60162 68
Width: 991
VWidth: 1835
Flags: HW
LayerCount: 2
Fore
SplineSet
103 505 m 1
 496 1 l 1
 66 313 l 2
 53 322 49 338 53 352 c 2
 103 505 l 1
333 505 m 1
 658 505 l 1
 496 1 l 1
 333 505 l 1
234 807 m 2
 333 505 l 1
 103 505 l 1
 201 807 l 2
 206 823 229 823 234 807 c 2
888 505 m 1
 938 352 l 2
 942 338 939 322 926 313 c 2
 496 1 l 1
 888 505 l 1
888 505 m 1
 658 505 l 1
 757 807 l 2
 762 823 786 823 791 807 c 2
 888 505 l 1
EndSplineSet
EndChar

StartChar: uniEB04
Encoding: 60164 60164 69
Width: 1242
VWidth: 1073
Flags: HW
HStem: 2 185 675 185
LayerCount: 2
Fore
SplineSet
635 827 m 4
 732 825 823 787 892 727 c 5
 891 725 l 5
 893 726 l 5
 950 675 993 608 1015 531 c 5
 1253 370 1137 -2 850 0 c 6
 626 0 l 5
 625 1 l 5
 402 1 l 6
 401 2 l 4
 335 2 276 23 228 59 c 5
 228 61 l 5
 228 60 l 5
 70 182 72 421 238 531 c 5
 236 530 240 532 238 531 c 5
 284 701 441 827 626 827 c 4
 629 827 632 827 635 827 c 4
620 648 m 5
 620 648 l 5
 558 646 500 619 461 576 c 4
 460 576 460 575 459 575 c 5
 530 561 592 522 634 467 c 5
 505 337 l 5
 488 375 448 404 403 404 c 4
 342 404 291 353 291 292 c 4
 291 247 319 208 357 191 c 5
 357 191 l 5
 371 185 386 180 402 180 c 6
 626 180 l 5
 626 178 l 5
 626 179 l 5
 850 179 l 6
 1002 176 1002 405 850 402 c 5
 850 424 l 6
 850 425 850 427 850 428 c 4
 850 497 819 558 770 599 c 4
 729 632 673 650 620 648 c 5
EndSplineSet
EndChar

StartChar: uniEB05
Encoding: 60165 60165 70
Width: 801
Flags: HW
HStem: 0 22G<358 444>
VStem: 401 110<52 90 676 778> 401 73<213 624> 582 12<144 258 575 688> 628 137<272 283 292 541> 707 58<171 232 554 660>
LayerCount: 2
Fore
SplineSet
510 52 m 1xd0
 401 0 l 1
 401 829 l 1xb0
 510 778 l 1
 510 52 l 1xd0
707 144 m 1x94
 707 672 l 1
 765 660 l 1
 765 171 l 1
 707 144 l 1x94
206 92 m 1
 206 741 l 1
 401 833 l 1
 490 415 l 1
 401 0 l 1xb0
 206 92 l 1
594 258 m 1
 594 91 l 1
 401 0 l 1
 401 212 l 1
 594 258 l 1
765 171 m 1x94
 662 124 l 1
 662 272 l 1
 765 297 l 1x98
 765 171 l 1x94
327 230 m 1
 523 268 l 1
 594 258 l 1
 401 90 l 1xd0
 327 230 l 1
594 575 m 1
 401 621 l 1
 401 833 l 1xb0
 594 740 l 1
 594 575 l 1
765 660 m 1x94
 765 537 l 1x98
 662 560 l 1
 662 709 l 1
 765 660 l 1x94
582 283 m 1
 662 272 l 1
 662 124 l 1
 582 144 l 1
 582 283 l 1
707 283 m 1x94
 662 124 l 1
 582 283 l 1
 628 292 l 1x98
 707 283 l 1x94
327 602 m 1
 401 676 l 1xd0
 594 575 l 1
 523 564 l 1
 327 602 l 1
582 550 m 1
 582 688 l 1
 662 709 l 1
 662 560 l 1
 582 550 l 1
707 550 m 1x94
 628 541 l 1x98
 582 550 l 1
 662 708 l 1
 707 550 l 1x94
628 258 m 1
 628 544 l 1x98
 707 554 l 1
 756 393 l 1
 707 232 l 1x94
 628 258 l 1
474 624 m 1xb0
 474 213 l 1
 139 125 l 1
 139 709 l 1
 474 624 l 1xb0
139 125 m 1
 36 172 l 1
 36 662 l 1
 139 709 l 1
 278 409 l 1
 139 125 l 1
EndSplineSet
EndChar

StartChar: uniEB09
Encoding: 60169 60169 71
Width: 927
Flags: HW
VStem: 107 71<238 558 238 599 238 599> 250 206<279 398> 472 62<279 362 279 398 279 398> 750 71<238 485 485 485>
LayerCount: 2
Fore
SplineSet
258 531 m 1
 464 650 l 1
 669 532 l 1
 464 413 l 1
 258 531 l 1
455 398 m 1
 455 162 l 1
 250 279 l 1
 250 517 l 1
 455 398 l 1
187 573 m 1
 116 614 l 1
 464 815 l 1
 812 614 l 1
 741 573 l 1
 464 733 l 1
 187 573 l 1
455 79 m 1
 455 -4 l 1
 107 197 l 1
 107 599 l 1
 178 558 l 1
 178 238 l 1
 455 79 l 1
472 398 m 1
 821 599 l 1
 821 197 l 1
 472 -4 l 1
 472 79 l 1
 750 238 l 1
 750 485 l 1
 534 362 l 1
 534 279 l 1
 678 361 l 1
 678 279 l 1
 472 162 l 1
 472 398 l 1
EndSplineSet
EndChar

StartChar: uniEB0B
Encoding: 60171 60171 72
Width: 963
VWidth: 1073
Flags: HW
LayerCount: 2
Fore
SplineSet
482 851 m 4
 528 851 565 817 565 768 c 4
 565 736 549 709 523 695 c 6
 275 552 l 6
 269 548 265 540 265 532 c 6
 265 307 l 6
 265 299 269 294 275 290 c 6
 472 175 l 6
 475 173 478 173 482 173 c 4
 486 173 490 173 493 175 c 6
 689 290 l 6
 695 294 699 299 699 307 c 6
 699 447 l 5
 523 347 l 6
 512 340 496 336 482 336 c 4
 437 336 399 372 399 421 c 4
 399 453 415 480 441 494 c 6
 694 638 l 6
 771 682 866 625 866 536 c 6
 866 291 l 6
 866 233 834 180 786 151 c 6
 561 20 l 6
 537 7 511 0 482 0 c 4
 453 0 427 7 403 20 c 6
 178 151 l 6
 130 180 98 233 98 291 c 6
 98 551 l 6
 98 609 130 660 178 689 c 6
 441 841 l 6
 453 848 468 851 482 851 c 4
EndSplineSet
EndChar

StartChar: uniEB0C
Encoding: 60172 60172 73
Width: 1027
VWidth: 1073
Flags: HW
LayerCount: 2
Fore
SplineSet
90 820 m 6
 937 820 l 6
 937 820 l 4
 953 820 966 807 966 791 c 4
 966 789 966 788 966 786 c 6
 842 31 l 6
 840 17 828 6 814 6 c 4
 813 6 l 6
 223 6 l 6
 204 6 188 20 185 39 c 6
 61 786 l 6
 61 788 61 789 61 791 c 4
 61 807 74 820 90 820 c 4
 90 820 l 6
608 281 m 5
 654 546 l 5
 369 546 l 5
 421 281 l 5
 608 281 l 5
EndSplineSet
EndChar

StartChar: uniEB0D
Encoding: 60173 60173 74
Width: 995
VWidth: 1073
Flags: HW
LayerCount: 2
Fore
SplineSet
920 504 m 6
 929 479 934 454 934 426 c 4
 934 353 900 290 847 250 c 6
 846 249 l 5
 665 113 l 5
 574 45 l 5
 520 3 l 6
 514 -1 506 -4 498 -4 c 4
 490 -4 482 -1 476 3 c 6
 422 45 l 5
 333 113 l 5
 151 248 l 5
 150 249 l 5
 150 249 l 6
 97 289 61 353 61 426 c 4
 61 454 68 480 77 505 c 6
 78 508 l 5
 196 817 l 6
 198 823 204 828 209 831 c 4
 214 834 219 837 225 837 c 4
 232 837 241 833 246 829 c 4
 251 825 254 820 256 814 c 6
 336 568 l 5
 660 568 l 5
 740 814 l 6
 742 820 747 825 752 829 c 4
 757 833 764 837 771 837 c 4
 777 837 782 834 787 831 c 4
 792 828 798 823 800 817 c 6
 919 507 l 5
 920 504 l 6
EndSplineSet
EndChar

StartChar: uniEB12
Encoding: 60178 60178 75
Width: 1042
VWidth: 1073
Flags: HW
LayerCount: 2
Fore
SplineSet
255 564 m 5
 156 390 250 167 449 118 c 5
 567 82 709 112 817 238 c 4
 818 239 798 255 790 262 c 5
 898 442 784 689 563 716 c 5
 452 737 325 701 229 585 c 4
 228 584 248 570 255 564 c 5
778 791 m 5
 921 699 935 524 935 524 c 5
 952 395 898 274 898 274 c 5
 824 79 597 -18 393 58 c 4
 371 66 350 76 330 87 c 5
 318 71 300 45 285 25 c 5
 106 139 105 332 105 332 c 5
 97 435 130 535 185 616 c 5
 290 757 480 832 661 765 c 4
 682 758 704 748 722 737 c 5
 734 747 757 771 778 791 c 5
EndSplineSet
EndChar

StartChar: uniEB15
Encoding: 60181 60181 76
Width: 851
VWidth: 524
Flags: HW
LayerCount: 2
Fore
SplineSet
426 826 m 1
 430 816 439 796 452 766 c 128
 465 736 473 717 476 709 c 128
 479 701 487 683 499 656 c 128
 511 629 521 608 528 593 c 128
 535 578 546 555 561 525 c 128
 576 495 592 465 608 435 c 128
 624 405 642 369 664 327 c 128
 686 285 710 239 737 190 c 1
 708 207 670 222 624 234 c 1
 641 225 657 215 673 205 c 128
 689 195 701 188 709 182 c 128
 717 176 728 168 741 157 c 128
 754 146 763 139 766 136 c 0
 801 72 824 29 835 8 c 1
 704 84 597 130 515 146 c 1
 518 159 520 174 520 190 c 0
 521 231 513 268 496 299 c 128
 479 330 457 347 431 349 c 128
 405 351 384 337 365 310 c 128
 346 283 336 248 335 207 c 2
 335 202 l 2
 335 184 337 165 340 146 c 1
 258 130 150 84 17 8 c 1
 163 269 262 456 315 567 c 1
 344 542 384 519 433 499 c 1
 396 525 361 556 327 592 c 1
 345 629 378 707 426 826 c 1
EndSplineSet
EndChar

StartChar: uniEB16
Encoding: 60182 60182 77
Width: 1073
VWidth: 1073
Flags: HW
LayerCount: 2
Fore
SplineSet
755 286 m 4
 755 133 633 0 469 0 c 4
 311 0 183 128 183 286 c 4
 183 416 260 539 377 614 c 5
 378 853 779 837 890 794 c 5
 780 705 743 507 508 597 c 5
 589 657 703 714 767 748 c 5
 571 699 307 573 271 351 c 4
 261 287 274 222 325 163 c 4
 360 122 412 97 468 97 c 6
 469 97 l 5
 606 96 697 239 640 364 c 4
 583 489 415 512 326 406 c 5
 356 473 418 539 469 572 c 5
 505 575 549 561 570 553 c 4
 678 512 755 408 755 286 c 4
EndSplineSet
EndChar

StartChar: uniEB17
Encoding: 60183 60183 78
Width: 1048
VWidth: 1048
Flags: HW
LayerCount: 2
Fore
SplineSet
450 803 m 4
 670 817 860 650 876 432 c 4
 876 416 876 400 876 384 c 4
 876 379 872 375 867 375 c 6
 865 375 l 6
 859 375 856 380 856 386 c 4
 858 400 858 416 856 430 c 4
 842 640 661 797 451 783 c 4
 241 769 84 588 98 378 c 4
 112 168 294 12 500 26 c 4
 541 30 578 38 616 52 c 5
 620 52 l 5
 631 56 636 39 625 35 c 4
 362 -72 94 118 77 377 c 4
 63 597 230 787 450 803 c 4
804 352 m 5
 899 352 972 268 972 178 c 4
 972 81 888 2 793 2 c 4
 698 2 620 79 620 176 c 4
 620 214 632 247 652 276 c 4
 720 374 696 511 598 581 c 4
 500 649 364 625 294 527 c 4
 226 429 249 293 347 223 c 4
 428 167 532 172 605 228 c 5
 596 194 596 158 605 126 c 5
 510 79 392 85 299 151 c 4
 159 249 127 439 224 577 c 4
 322 717 512 749 650 652 c 4
 790 554 822 364 725 226 c 4
 714 212 709 194 709 176 c 4
 709 128 749 88 797 88 c 4
 845 88 885 128 885 176 c 4
 885 222 848 264 799 264 c 4
 792 264 784 264 777 262 c 5
 790 291 799 320 804 352 c 5
EndSplineSet
EndChar

StartChar: uniEB18
Encoding: 60184 60184 79
Width: 784
VWidth: 524
Flags: HW
LayerCount: 2
Fore
SplineSet
79 492 m 5
 81 496 79 503 80 509 c 132
 81 512 83 515 87 519 c 5
 83 504 80 495 79 492 c 5
105 577 m 5
 105 576 107 576 111 577 c 132
 115 578 114 573 110 565 c 4
 107 563 104 561 102 559 c 5
 101 559 l 5
 105 565 106 571 105 577 c 5
407 741 m 6
 402 741 l 5
 403 742 410 742 423 743 c 133
 415 742 410 742 407 741 c 6
687 394 m 5
 684 366 675 340 662 317 c 5
 673 339 681 364 685 389 c 5
 687 394 l 5
332 317 m 6
 336 305 l 5
 328 318 324 328 323 334 c 5
 327 325 330 319 332 317 c 6
312 316 m 5
 318 305 331 285 336 275 c 5
 333 277 324 288 310 307 c 5
 312 316 l 5
153 512 m 5
 165 532 227 604 258 602 c 5
 263 609 l 5
 260 607 254 603 252 606 c 4
 267 621 275 631 297 632 c 132
 305 633 310 633 313 634 c 6
 320 640 l 5
 319 639 316 639 313 639 c 4
 307 638 304 638 304 640 c 4
 314 642 325 647 337 654 c 132
 349 661 365 666 384 668 c 4
 385 667 383 665 379 663 c 5
 420 675 482 664 514 649 c 4
 565 625 626 554 628 483 c 5
 632 483 l 5
 632 475 632 475 632 457 c 132
 632 433 631 412 625 395 c 5
 633 409 l 5
 633 401 629 384 621 360 c 5
 609 354 l 5
 603 342 607 341 604 328 c 5
 573 301 555 288 550 287 c 4
 549 288 552 291 557 297 c 5
 542 285 535 275 512 270 c 5
 512 271 l 5
 475 254 438 260 399 288 c 132
 360 316 341 352 341 397 c 5
 341 396 340 393 338 389 c 5
 332 462 390 526 467 514 c 132
 489 510 508 501 523 487 c 5
 501 518 471 532 434 530 c 4
 397 530 361 504 349 479 c 5
 342 474 335 465 329 450 c 132
 323 435 321 426 320 424 c 4
 314 385 316 355 329 332 c 132
 342 309 364 285 396 262 c 4
 403 260 402 256 401 250 c 5
 382 259 364 272 350 288 c 5
 359 275 368 265 376 259 c 5
 370 261 361 269 349 282 c 132
 337 295 330 302 329 302 c 5
 344 275 370 254 407 238 c 132
 444 222 475 219 498 229 c 5
 455 226 423 231 403 251 c 132
 400 254 400 255 401 256 c 4
 480 226 553 242 606 295 c 132
 612 301 621 313 627 313 c 5
 622 306 627 306 622 299 c 5
 633 318 624 319 638 339 c 5
 645 328 l 5
 644 334 648 346 656 362 c 132
 664 378 668 391 667 401 c 4
 670 406 671 405 671 397 c 4
 671 390 670 381 667 371 c 5
 673 379 671 406 671 418 c 5
 676 406 679 399 679 397 c 5
 677 418 677 420 684 435 c 132
 687 442 688 447 688 449 c 4
 688 451 684 449 683 449 c 132
 680 449 678 460 677 467 c 4
 677 473 679 474 682 476 c 5
 678 478 674 488 670 504 c 4
 673 507 678 494 680 492 c 5
 680 497 674 521 674 527 c 4
 668 544 667 528 662 538 c 4
 659 546 657 559 663 557 c 132
 665 556 666 556 669 556 c 132
 672 556 673 558 673 562 c 5
 683 547 694 520 705 481 c 5
 702 499 696 519 688 539 c 5
 693 537 688 560 688 561 c 5
 689 561 692 557 696 550 c 5
 680 609 627 667 576 692 c 5
 585 684 589 680 587 680 c 4
 579 685 564 691 564 701 c 5
 555 708 538 701 529 701 c 4
 503 715 479 721 450 732 c 5
 451 724 l 5
 439 730 409 722 396 724 c 5
 413 730 l 5
 398 728 381 733 367 729 c 5
 385 739 l 5
 380 738 372 737 361 735 c 4
 351 735 346 735 347 736 c 5
 305 722 254 700 226 672 c 5
 225 680 l 5
 211 661 161 632 157 605 c 5
 153 603 l 5
 153 603 153 604 135 564 c 4
 129 553 124 549 122 554 c 5
 110 529 97 495 84 453 c 4
 86 450 87 444 87 434 c 132
 87 411 86 387 86 363 c 4
 82 277 107 196 162 120 c 132
 217 44 283 -5 358 -25 c 4
 369 -29 395 -32 437 -33 c 5
 409 -27 374 -23 354 -8 c 132
 346 -2 334 12 327 19 c 5
 333 8 l 5
 312 14 309 23 289 30 c 5
 297 39 l 5
 286 39 270 57 265 65 c 5
 254 64 l 5
 241 81 234 94 234 102 c 5
 231 96 l 5
 230 97 227 100 223 106 c 4
 204 131 196 145 199 146 c 4
 200 146 202 146 205 145 c 5
 196 153 190 158 188 161 c 5
 193 168 l 5
 179 186 172 199 173 207 c 5
 177 201 182 197 188 195 c 5
 181 211 170 239 159 233 c 132
 149 228 141 252 136 267 c 5
 141 268 l 5
 141 268 140 269 131 284 c 5
 135 304 l 5
 116 327 125 374 128 411 c 132
 131 452 128 448 144 478 c 132
 152 492 157 503 159 510 c 5
 153 512 l 5
417 730 m 5
 413 730 l 5
 417 730 l 5
408 733 m 5
 422 732 l 5
 421 732 419 731 417 730 c 5
 418 731 415 732 408 733 c 5
547 417 m 4
 545 412 542 422 541 424 c 4
 545 436 550 433 547 417 c 4
537 385 m 5
 537 381 533 373 526 362 c 4
 519 357 515 355 515 357 c 260
 515 361 526 378 526 380 c 5
 522 374 512 357 515 356 c 132
 518 355 523 355 523 351 c 5
 531 362 536 374 537 385 c 5
453 334 m 5
 435 332 468 325 472 325 c 4
 476 328 481 332 485 336 c 5
 476 333 465 332 453 334 c 5
EndSplineSet
EndChar

StartChar: uniEB19
Encoding: 60185 60185 80
Width: 1048
VWidth: 1048
Flags: HW
LayerCount: 2
Fore
SplineSet
920 282 m 5
 756 446 l 5
 651 551 l 5
 225 126 l 5
 150 202 105 305 105 420 c 4
 105 652 292 839 524 839 c 4
 756 839 944 652 944 420 c 4
 944 372 935 325 920 282 c 5
844 148 m 6
 767 58 652 0 524 0 c 4
 461 0 402 14 349 39 c 5
 651 341 l 5
 844 148 l 6
EndSplineSet
EndChar

StartChar: uniEB1A
Encoding: 60186 60186 81
Width: 1048
VWidth: 1048
Flags: HW
LayerCount: 2
Fore
SplineSet
869 351 m 4
 904 354 932 331 935 296 c 4
 938 260 912 230 877 227 c 4
 844 224 814 251 811 284 c 4
 808 320 833 347 869 351 c 4
444 64 m 4
 444 99 471 126 503 126 c 4
 535 126 567 96 567 63 c 4
 567 31 540 2 509 1 c 4
 470 1 444 25 444 64 c 4
539 458 m 5
 534 455 530 459 529 463 c 4
 479 556 494 674 582 744 c 4
 605 763 648 767 667 748 c 4
 675 741 677 734 678 724 c 4
 681 703 684 683 698 667 c 4
 713 649 731 643 753 644 c 4
 772 644 792 647 804 625 c 4
 811 613 808 567 797 557 c 4
 792 553 787 556 783 557 c 4
 752 569 720 568 688 563 c 4
 677 562 671 564 671 576 c 4
 670 597 666 615 655 633 c 4
 634 669 597 670 572 637 c 4
 551 610 547 578 542 546 c 4
 537 517 538 488 539 458 c 5
 539 458 538 458 539 458 c 5
572 438 m 5
 569 442 571 445 575 448 c 4
 652 518 767 532 856 463 c 4
 879 444 893 405 881 382 c 4
 876 372 870 370 862 367 c 4
 843 359 824 350 812 332 c 4
 800 314 799 295 804 273 c 4
 808 255 815 236 797 220 c 4
 787 210 741 203 729 211 c 4
 724 215 726 219 727 224 c 4
 731 257 722 289 710 319 c 4
 706 330 707 335 718 338 c 4
 737 343 754 353 768 367 c 4
 798 396 791 431 752 447 c 4
 721 461 689 458 658 455 c 4
 628 454 599 446 572 438 c 5
556 403 m 5
 560 407 563 406 567 403 c 4
 656 349 701 243 661 139 c 4
 647 104 594 70 568 106 c 4
 556 122 542 136 521 143 c 4
 499 150 481 147 462 136 c 4
 446 126 430 114 409 126 c 4
 397 133 378 174 382 188 c 4
 385 193 389 194 394 194 c 4
 427 199 455 215 481 237 c 4
 489 244 496 244 503 234 c 4
 514 218 527 205 545 195 c 4
 580 174 614 193 618 233 c 4
 622 266 609 295 598 325 c 4
 586 352 572 378 556 403 c 5
512 394 m 5
 507 367 494 342 478 319 c 4
 430 246 361 216 274 224 c 4
 243 227 217 252 214 278 c 4
 213 289 215 298 222 306 c 4
 232 318 240 328 244 343 c 4
 252 373 241 397 219 419 c 4
 189 449 194 476 229 498 c 4
 236 503 257 516 262 499 c 4
 274 468 298 446 325 427 c 4
 335 419 334 414 326 404 c 4
 310 386 300 365 299 340 c 4
 296 310 313 292 343 292 c 4
 362 292 380 299 396 307 c 4
 438 329 471 360 502 392 c 4
 506 393 507 395 512 394 c 5
291 677 m 4
 294 677 300 677 307 676 c 4
 357 666 388 684 404 731 c 4
 415 762 437 770 467 754 c 4
 468 754 469 753 470 753 c 4
 501 735 501 733 482 706 c 4
 466 684 458 660 454 634 c 4
 451 619 447 617 433 622 c 4
 411 630 388 630 365 622 c 4
 339 614 328 591 336 565 c 4
 347 532 377 517 403 499 c 4
 429 481 458 473 487 461 c 4
 491 460 497 459 496 452 c 4
 495 448 489 448 484 448 c 4
 423 445 365 456 318 496 c 4
 274 532 241 577 246 639 c 4
 250 660 265 673 291 677 c 4
180 299 m 4
 148 295 116 323 113 356 c 4
 110 388 137 420 168 423 c 4
 203 427 235 403 238 371 c 4
 239 340 219 302 180 299 c 4
747 779 m 4
 780 782 812 754 815 721 c 4
 818 689 791 658 759 655 c 4
 724 652 693 679 690 712 c 4
 687 745 712 776 747 779 c 4
394 753 m 4
 398 718 374 688 338 683 c 4
 307 679 275 705 271 735 c 4
 267 774 289 802 325 806 c 4
 358 810 390 784 394 753 c 4
EndSplineSet
EndChar

StartChar: uniEB1B
Encoding: 60187 60187 82
Width: 995
VWidth: 1048
Flags: HW
HStem: 739 99<529 634>
VStem: 79 45<221 275> 287 9<375 411> 517 208<505 592> 646 9<373 410>
LayerCount: 2
Fore
SplineSet
499 839 m 0xe0
 499 839 l 0
 608 839 705 798 780 730 c 0
 900 625 947 447 898 295 c 0
 850 134 697 12 530 2 c 0
 416 -1 303 2 189 1 c 0
 137 -5 84 32 80 86 c 0
 79 179 79 273 79 366 c 0
 77 440 81 514 112 583 c 0
 174 736 334 841 499 839 c 0xe0
622 739 m 2
 622 739 l 2
 536 740 455 680 432 597 c 0
 419 546 427 490 425 438 c 2
 344 438 l 2
 343 438 342 438 341 438 c 0
 316 438 296 418 296 392 c 0
 296 392 l 0
 296 367 316 347 341 347 c 0
 342 347 l 0
 342 347 l 0
 343 347 343 347 344 347 c 2
 372 347 l 2
 389 344 412 354 423 338 c 0
 426 314 424 289 425 265 c 0
 429 222 415 177 376 154 c 0
 353 139 327 135 302 140 c 0
 300 140 299 141 296 141 c 0
 265 143 245 126 243 98 c 0
 242 79 255 61 273 51 c 0
 368 26 476 84 507 178 c 0
 524 232 515 291 517 347 c 0
 545 347 571 347 599 347 c 0
 600 347 600 347 601 347 c 0
 601 347 l 0
 601 347 l 0
 626 347 646 367 646 392 c 0
 646 392 l 0
 646 393 l 0xe8
 646 418 626 438 601 438 c 0
 600 438 600 438 600 438 c 0
 590 438 579 438 570 438 c 0
 553 441 529 431 518 447 c 0
 515 475 518 503 517 531 c 0xf0
 510 590 562 648 622 646 c 0
 630 646 638 645 646 643 c 0xe8
 674 643 692 660 694 687 c 0
 695 706 683 725 664 735 c 0
 651 738 636 739 622 739 c 2
646 737 m 1
 650 736 l 1
 646 737 l 1
689 728 m 1
 689 728 l 2
 694 723 697 717 700 710 c 0
 734 679 768 648 803 618 c 1
 781 667 739 709 689 728 c 1
705 695 m 2
 705 695 l 1
 705 694 705 694 705 693 c 0
 705 692 705 691 705 690 c 0
 705 689 705 687 705 686 c 0
 704 678 702 671 699 665 c 2
 698 664 l 2
 737 628 776 594 817 560 c 1
 816 577 812 594 806 609 c 1
 807 608 808 606 808 604 c 1
 772 634 739 664 705 695 c 2
706 688 m 1
 704 670 704 670 706 688 c 1
694 657 m 1
 694 657 l 1
 689 650 681 644 673 640 c 1
 719 596 767 554 816 514 c 1
 817 523 818 532 818 541 c 0
 818 542 818 542 818 543 c 0
 818 545 817 548 817 550 c 0
 775 585 734 620 694 657 c 1
713 593 m 1
 713 593 l 2
 721 578 725 560 725 542 c 0xf0
 725 529 722 516 718 504 c 0
 742 484 766 462 791 442 c 1
 796 450 800 460 804 469 c 0
 776 492 750 513 725 535 c 0
 725 538 726 540 726 543 c 2
 725 545 l 1
 752 521 778 499 806 476 c 1
 810 485 812 496 814 506 c 0
 777 536 745 565 713 593 c 1
715 497 m 1
 711 489 705 480 699 473 c 1
 722 453 745 433 769 414 c 0
 775 421 781 428 786 436 c 0
 760 456 738 478 715 497 c 1
694 468 m 1
 694 468 l 2
 693 467 692 467 691 466 c 0
 685 460 679 455 672 451 c 1
 696 429 717 409 742 389 c 0
 749 395 758 402 764 409 c 1
 740 428 718 448 694 468 c 1
664 447 m 0
 653 443 641 440 629 439 c 1
 630 439 l 2
 631 439 631 439 632 439 c 0
 658 415 684 392 711 369 c 0
 720 374 729 378 737 384 c 1
 712 404 689 425 664 447 c 0
312 438 m 1
 312 438 l 1
 300 437 290 437 279 434 c 1
 294 419 l 1
 298 427 304 433 311 438 c 1
 311 438 l 1
 312 438 l 1
 312 438 l 1
278 434 m 1
 273 433 l 1
 278 434 l 1
 278 434 l 1
268 431 m 1
 268 431 l 1
 259 428 250 425 241 421 c 1
 258 405 275 389 291 374 c 1
 289 380 287 386 287 392 c 0
 287 398 288 406 290 411 c 2
 268 431 l 1
232 417 m 1
 232 417 l 2
 224 413 216 408 208 403 c 1
 233 380 256 360 279 338 c 0
 288 342 297 345 307 346 c 1
 282 370 258 393 232 417 c 1
652 410 m 2
 652 410 l 1
 654 405 655 398 655 392 c 0xe8
 655 384 654 378 651 371 c 2
 673 353 l 2
 684 356 695 361 705 366 c 1
 687 381 668 396 652 410 c 2
202 398 m 2
 202 398 l 2
 195 393 187 386 181 380 c 1
 205 360 226 339 249 317 c 1
 247 315 245 313 243 311 c 1
 220 333 199 355 176 375 c 0
 170 368 164 360 159 353 c 0
 183 331 205 312 228 290 c 0
 227 287 225 285 224 282 c 1
 201 304 180 324 155 346 c 1
 145 331 136 314 131 296 c 0
 130 292 130 289 129 285 c 0
 163 254 196 225 229 193 c 1
 226 199 223 205 221 211 c 0
 218 220 216 231 216 241 c 0
 190 266 165 288 137 313 c 0
 138 316 139 320 140 322 c 1
 166 299 191 276 217 252 c 1
 221 287 241 317 270 334 c 1
 247 356 226 376 202 398 c 2
646 392 m 1
 645 383 l 1
 646 392 l 1
707 367 m 1
 706 366 l 1
 707 367 l 1
647 364 m 1
 647 364 l 1
 643 358 637 351 631 347 c 1
 632 347 l 2
 642 347 653 349 663 351 c 1
 647 364 l 1
127 276 m 2
 127 276 l 1
 125 266 124 254 124 243 c 0
 124 242 l 0
 165 205 205 168 245 129 c 1
 250 136 257 141 265 145 c 1
 259 152 l 2
 215 194 173 234 127 276 c 2
125 230 m 2
 125 231 l 1
 126 216 128 201 132 187 c 0
 168 154 200 124 232 93 c 1
 232 94 232 94 232 95 c 0
 232 96 232 97 232 98 c 0
 233 106 236 115 240 122 c 0
 202 159 164 194 125 230 c 2
138 171 m 1
 157 121 197 78 247 59 c 1
 242 64 238 71 236 78 c 2
 234 79 l 2
 201 110 171 140 138 171 c 1
255 162 m 1
 261 157 266 153 273 150 c 2
 274 150 l 1
 275 150 l 1
 268 153 261 157 255 162 c 1
292 48 m 1
 297 47 l 1
 292 48 l 1
300 47 m 1
 300 47 303 47 309 46 c 1
 306 46 303 47 300 47 c 1
 300 47 l 1
EndSplineSet
EndChar

StartChar: uniEB1C
Encoding: 60188 60188 83
Width: 869
VWidth: 1048
Flags: HW
HStem: -1 185<374 475>
VStem: 57 165<282 524> 627 166<282 524>
LayerCount: 2
Fore
SplineSet
781 110 m 2
 817 90 817 55 781 35 c 2
 745 13 l 2
 709 -7 651 -7 615 13 c 2
 535 60 l 1
 472 24 l 2
 460 17 445 12 430 12 c 0
 415 12 400 17 388 24 c 2
 104 187 l 2
 78 201 62 229 62 260 c 2
 62 589 l 2
 62 620 78 648 104 662 c 2
 209 722 l 1
 388 825 l 2
 394 829 402 832 409 834 c 0
 411 834 413 836 415 836 c 0
 416 836 416 836 416 836 c 0
 417 836 419 836 420 836 c 2
 422 837 l 1
 425 837 l 1
 428 837 l 1
 431 837 l 1
 432 837 l 2
 433 837 432 837 433 837 c 2
 436 837 l 1
 439 836 l 1
 441 836 l 1
 444 836 l 1
 446 835 l 1
 450 835 l 1
 452 834 l 1
 454 833 l 2
 455 833 456 833 457 833 c 2
 459 831 l 1
 462 830 l 1
 463 829 l 2
 466 828 468 826 471 825 c 2
 618 740 l 1
 755 662 l 2
 780 648 796 622 797 591 c 2
 797 589 l 1
 797 260 l 2
 797 229 781 201 755 187 c 2
 701 157 l 1
 781 110 l 2
407 204 m 2
 414 200 422 198 430 198 c 0
 438 198 446 200 453 204 c 2
 608 294 l 2
 617 299 625 309 629 319 c 0
 631 324 632 330 632 335 c 2
 632 515 l 2
 632 523 630 531 626 538 c 2
 626 538 l 1
 626 538 l 2
 622 545 615 551 608 555 c 2
 453 645 l 2
 451 646 449 647 447 648 c 2
 445 648 l 2
 444 649 442 649 441 649 c 0
 440 649 441 650 440 650 c 0
 439 650 437 651 436 651 c 0
 435 651 435 651 434 651 c 0
 433 651 431 651 430 651 c 0
 429 651 428 651 427 651 c 0
 426 651 425 651 424 651 c 0
 423 651 423 650 422 650 c 0
 421 650 419 649 418 649 c 2
 417 649 l 2
 414 648 410 647 407 645 c 2
 251 555 l 2
 244 551 237 545 233 538 c 2
 233 538 l 2
 229 531 227 523 227 515 c 2
 227 335 l 2
 227 318 238 303 251 295 c 2
 407 204 l 2
EndSplineSet
EndChar

StartChar: uniEB1D
Encoding: 60189 60189 84
Width: 978
VWidth: 1048
Flags: HW
HStem: -2 176<391 554> 402 29<651 732> 660 176<391 554>
VStem: 71 78<374 461> 260 23<384 451> 732 177<323 401 433 512>
LayerCount: 2
Fore
SplineSet
489 837 m 4
 720 837 909 649 909 418 c 4
 909 187 720 -2 489 -2 c 4
 258 -2 71 187 71 418 c 4
 71 649 258 837 489 837 c 4
604 219 m 4
 577 204 569 169 584 142 c 4
 599 115 633 107 660 122 c 4
 687 137 696 172 681 199 c 4
 666 226 631 234 604 219 c 4
489 254 m 4
 464 254 441 260 421 269 c 6
 382 200 l 5
 415 184 450 174 489 174 c 4
 512 174 535 177 555 183 c 4
 559 206 571 227 593 239 c 4
 615 251 638 252 660 244 c 4
 701 285 728 340 732 401 c 5
 652 402 l 6
 645 318 574 254 489 254 c 4
326 418 m 4
 326 473 353 521 395 551 c 6
 354 620 l 5
 305 587 269 536 254 478 c 4
 271 464 283 443 283 418 c 4
 283 393 271 371 254 357 c 4
 269 299 305 249 354 216 c 5
 395 285 l 6
 353 314 326 363 326 418 c 4
205 473 m 4
 174 473 148 449 148 418 c 4
 148 387 174 361 205 361 c 4
 236 361 260 387 260 418 c 4
 260 449 236 473 205 473 c 4
489 581 m 4
 574 581 645 516 652 432 c 6
 732 433 l 5
 728 494 701 550 660 591 c 4
 638 583 615 584 593 596 c 4
 571 608 559 629 555 652 c 4
 535 657 512 660 489 660 c 4
 450 660 415 652 382 636 c 5
 421 565 l 6
 441 575 464 581 489 581 c 4
604 615 m 4
 631 600 666 609 681 636 c 4
 696 663 687 698 660 713 c 4
 633 728 599 719 584 692 c 4
 569 665 577 630 604 615 c 4
EndSplineSet
EndChar

StartChar: uniEB1E
Encoding: 60190 60190 85
Width: 842
VWidth: 1048
Flags: HW
HStem: 2 24<322 418> 115 27<324 374 374 423> 797 15<182 182 549 554>
VStem: 98 32<472 536> 604 34<470 534>
LayerCount: 2
Fore
SplineSet
565 234 m 1
 535 199 519 137 541 117 c 0
 561 102 617 104 658 160 c 0
 688 198 679 262 662 278 c 0
 636 297 599 272 565 234 c 1
 565 234 l 1
284 224 m 0
 252 260 211 282 184 266 c 0
 167 253 162 208 188 163 c 0
 226 110 279 104 301 117 c 0
 324 134 312 191 284 224 c 0
427 115 m 2
 388 116 329 98 330 78 c 0
 329 64 377 24 425 26 c 0
 471 25 519 66 518 83 c 0
 518 101 466 115 427 114 c 2
 427 115 l 2
425 602 m 2
 380 603 337 569 337 550 c 0
 337 526 373 502 425 501 c 0
 479 501 513 520 513 545 c 0
 514 573 464 602 425 602 c 2
 425 602 l 2
317 583 m 2
 242 595 181 552 183 472 c 0
 185 441 345 578 317 583 c 2
 317 583 l 2
657 470 m 0
 659 550 598 593 523 581 c 0
 495 576 655 439 657 470 c 0
671 440 m 2
 628 451 656 265 691 280 c 0
 730 311 743 400 671 440 c 2
 671 440 l 2
150 278 m 1
 185 263 213 449 170 438 c 0
 98 398 111 307 150 276 c 1
 150 278 l 1
479 485 m 1
 439 458 432 400 463 354 c 0
 494 308 552 290 592 316 c 0
 632 342 639 400 608 447 c 0
 577 494 519 511 479 484 c 1
 479 485 l 1
371 480 m 2
 331 506 273 489 242 443 c 0
 211 396 218 339 258 312 c 0
 298 285 356 302 387 349 c 0
 418 395 411 453 371 480 c 2
 371 480 l 2
523 230 m 2
 523 279 479 318 426 317 c 0
 373 316 330 278 330 229 c 2
 330 228 l 2
 330 179 374 139 427 140 c 0
 480 140 523 180 523 228 c 2
 523 229 l 1
 523 230 l 2
636 759 m 1
 555 718 508 685 482 656 c 0
 495 604 563 601 589 603 c 1
 584 605 581 609 579 613 c 0
 585 617 608 614 623 622 c 1
 617 623 614 624 611 629 c 1
 625 634 642 637 651 645 c 1
 646 645 641 644 635 648 c 1
 648 655 662 661 673 671 c 1
 666 671 658 671 656 674 c 1
 668 681 679 689 687 698 c 1
 678 696 674 697 672 699 c 1
 681 708 692 717 697 728 c 1
 690 725 683 725 679 728 c 0
 682 735 695 739 703 755 c 1
 696 754 688 753 686 755 c 0
 689 768 695 776 701 784 c 1
 685 784 662 784 663 785 c 2
 673 796 l 1
 658 800 641 796 630 792 c 0
 625 796 630 801 636 806 c 1
 623 804 610 801 600 797 c 0
 594 802 603 807 608 812 c 1
 588 808 578 803 569 798 c 0
 563 804 569 808 573 813 c 1
 558 807 550 801 542 794 c 0
 539 798 535 800 540 809 c 1
 529 803 520 794 514 786 c 0
 507 791 510 798 510 803 c 1
 499 794 491 783 482 774 c 0
 480 775 478 779 477 786 c 1
 449 759 411 695 467 669 c 0
 514 707 572 737 634 757 c 2
 636 759 l 1
207 759 m 2
 269 739 327 710 374 671 c 0
 429 698 392 762 365 788 c 1
 364 781 361 777 359 776 c 0
 350 785 343 795 332 804 c 1
 332 799 335 792 328 788 c 0
 322 796 313 804 302 810 c 1
 307 801 304 799 301 795 c 1
 293 803 284 810 269 816 c 1
 273 811 279 806 273 800 c 0
 265 805 256 810 236 814 c 1
 241 809 250 804 244 799 c 0
 233 803 221 805 208 807 c 1
 214 802 220 798 215 794 c 0
 203 798 186 802 171 798 c 1
 180 788 l 2
 181 787 157 786 141 786 c 1
 147 778 154 771 157 757 c 0
 155 755 146 756 139 757 c 1
 147 742 161 737 164 730 c 0
 159 727 152 727 145 730 c 1
 151 719 163 710 172 701 c 1
 169 699 166 699 156 700 c 1
 164 691 173 683 185 676 c 1
 183 674 176 674 169 674 c 1
 180 664 194 657 207 650 c 1
 200 645 196 646 191 646 c 1
 200 638 216 636 230 631 c 1
 227 626 225 625 219 624 c 1
 234 615 257 619 263 614 c 0
 261 610 257 606 252 604 c 1
 278 602 346 605 359 657 c 0
 333 686 287 719 206 760 c 1
 207 759 l 2
267 838 m 1
 275 838 284 832 291 830 c 0
 309 836 314 827 323 824 c 0
 343 828 349 819 358 810 c 2
 370 810 l 2
 401 793 416 756 421 738 c 1
 426 756 440 793 471 810 c 2
 482 810 l 2
 491 820 498 828 518 824 c 0
 527 828 533 836 551 830 c 0
 562 834 573 844 588 833 c 0
 601 838 613 838 624 828 c 0
 641 830 647 826 651 821 c 0
 655 821 679 825 690 809 c 0
 719 812 728 792 718 774 c 0
 724 765 729 756 716 740 c 0
 721 731 718 721 707 709 c 0
 710 696 703 686 693 679 c 0
 695 662 677 651 672 647 c 0
 670 637 665 627 643 622 c 0
 640 607 626 603 614 600 c 1
 655 576 691 546 691 470 c 2
 697 459 l 2
 744 430 787 340 721 266 c 0
 717 243 709 227 703 209 c 0
 694 135 629 100 613 96 c 0
 588 78 563 60 528 48 c 0
 495 14 460 2 424 2 c 2
 421 2 l 2
 385 2 348 14 315 48 c 0
 280 60 254 78 229 96 c 0
 213 100 150 135 140 209 c 0
 134 227 126 244 122 267 c 0
 55 341 98 431 145 460 c 2
 152 470 l 2
 152 546 187 576 228 600 c 1
 216 603 203 607 199 622 c 0
 177 627 173 637 171 647 c 0
 166 651 148 662 150 680 c 0
 140 687 133 697 136 710 c 0
 125 722 122 733 127 742 c 0
 114 758 119 768 125 776 c 0
 115 794 124 814 153 811 c 0
 164 827 187 823 191 823 c 0
 195 828 202 833 219 831 c 0
 230 841 243 840 256 835 c 0
 261 839 265 841 269 841 c 1
 267 838 l 1
EndSplineSet
EndChar

StartChar: uniEB1F
Encoding: 60191 60191 86
Width: 932
VWidth: 536
Flags: HW
HStem: 401 47<132 404 527 803>
VStem: 442 48<88 340 484 758>
LayerCount: 2
Fore
SplineSet
46 424 m 5
 60 438 60 438 89 467 c 4
 118 496 118 496 132 510 c 5
 132 449 l 5
 381 449 l 6
 384 447 387 443 390 440 c 4
 393 437 397 435 400 431 c 4
 403 427 406 425 408 424 c 5
 406 421 402 416 397 412 c 4
 392 408 388 403 386 401 c 6
 132 401 l 5
 132 338 l 5
 89 381 89 381 46 424 c 5
803 453 m 6
 803 510 l 5
 803 510 802 510 888 424 c 5
 874 410 874 410 845 381 c 4
 816 352 817 352 803 338 c 5
 803 398 l 5
 552 398 l 6
 548 401 544 407 538 413 c 4
 529 422 528 422 526 424 c 4
 528 427 533 430 538 434 c 4
 543 438 545 443 547 446 c 4
 560 446 602 446 664 445 c 4
 726 444 765 445 777 446 c 4
 791 445 802 447 803 453 c 6
381 758 m 5
 424 801 423 801 466 844 c 5
 476 834 479 833 495 817 c 4
 511 801 512 799 525 786 c 4
 538 773 540 770 552 758 c 5
 492 758 l 5
 492 511 l 6
 491 508 488 503 485 500 c 4
 482 497 478 493 474 490 c 4
 470 487 467 484 466 482 c 5
 455 493 455 495 445 505 c 5
 445 758 l 5
 381 758 l 5
442 340 m 6
 447 345 448 345 456 353 c 4
 464 361 463 361 466 364 c 5
 469 361 470 360 477 353 c 4
 482 348 487 345 490 343 c 6
 490 88 l 5
 552 88 l 5
 538 74 538 74 509 45 c 4
 480 16 480 16 466 2 c 5
 381 88 l 5
 442 88 l 5
 442 340 l 6
159 537 m 5
 182 561 203 581 227 604 c 5
 239 592 240 590 258 572 c 4
 276 554 279 552 292 539 c 4
 305 526 307 525 323 509 c 4
 339 493 341 490 355 476 c 5
 159 476 l 5
 159 507 159 506 159 537 c 5
354 730 m 5
 416 730 l 5
 416 534 l 5
 288 662 l 5
 354 730 l 5
284 181 m 5
 304 201 305 204 348 247 c 4
 391 290 393 290 413 310 c 5
 413 115 l 5
 411 115 l 5
 410 115 l 5
 408 115 l 5
 406 115 l 5
 404 115 l 5
 402 115 l 5
 400 115 l 5
 398 115 l 5
 396 115 l 5
 395 115 l 5
 392 115 l 5
 390 115 l 5
 389 115 l 5
 387 115 l 5
 386 115 l 5
 384 115 l 5
 382 115 l 5
 381 115 l 5
 379 115 l 5
 378 115 l 5
 377 115 l 5
 375 115 l 5
 373 115 l 5
 372 115 l 5
 370 115 l 5
 368 115 l 5
 367 115 l 5
 365 115 l 5
 362 115 l 5
 361 115 l 5
 359 115 l 5
 357 115 l 5
 355 115 l 5
 352 115 l 5
 344 123 342 123 330 135 c 4
 318 147 316 150 305 161 c 4
 294 172 294 171 284 181 c 5
159 310 m 5
 159 320 159 320 159 340 c 4
 159 360 159 361 159 371 c 5
 355 371 l 5
 345 360 330 345 315 331 c 4
 300 317 282 299 268 285 c 4
 244 261 244 260 227 243 c 5
 159 310 l 5
519 535 m 5
 519 733 l 5
 520 733 l 5
 521 733 l 5
 523 733 l 5
 526 733 l 5
 527 733 l 5
 529 733 l 5
 531 733 l 5
 532 733 l 5
 535 733 l 5
 537 733 l 5
 538 733 l 5
 540 733 l 5
 541 733 l 5
 542 733 l 5
 544 733 l 5
 546 733 l 5
 547 733 l 5
 549 733 l 5
 551 733 l 5
 552 733 l 5
 554 731 l 5
 556 731 l 5
 557 731 l 5
 559 731 l 5
 560 731 l 5
 561 731 l 5
 563 731 l 5
 564 731 l 5
 566 731 l 5
 569 731 l 5
 570 731 l 5
 572 731 l 5
 574 731 l 5
 575 731 l 5
 578 731 l 5
 581 731 l 5
 604 708 623 688 647 665 c 5
 519 535 l 5
578 476 m 5
 706 604 l 5
 729 580 748 560 772 537 c 5
 772 527 772 527 772 507 c 4
 772 487 772 486 772 476 c 5
 578 476 l 5
707 245 m 5
 687 265 685 265 642 308 c 4
 599 351 600 354 580 374 c 5
 774 374 l 5
 774 363 774 360 774 341 c 4
 774 322 774 321 774 310 c 5
 707 245 l 5
519 120 m 5
 519 314 l 5
 539 294 541 295 584 252 c 4
 627 209 627 206 647 186 c 5
 581 120 l 5
 550 120 550 120 519 120 c 5
159 578 m 5
 159 731 l 5
 314 731 l 5
 283 701 260 679 245 664 c 5
 416 495 l 5
 416 476 l 5
 395 476 l 5
 283 588 282 589 227 644 c 5
 220 637 197 615 159 578 c 5
519 374 m 5
 540 374 l 5
 709 204 l 5
 776 270 l 5
 776 116 l 5
 623 116 l 5
 690 185 l 5
 519 354 l 5
 519 374 l 5
683 670 m 5
 622 733 l 5
 776 733 l 5
 776 578 l 5
 707 647 l 5
 538 476 l 5
 520 476 l 5
 520 497 l 5
 673 650 l 5
 683 670 l 5
392 371 m 5
 413 371 l 5
 413 350 l 5
 246 181 l 5
 314 116 l 5
 161 116 l 5
 161 269 l 5
 228 202 l 5
 392 371 l 5
EndSplineSet
EndChar

StartChar: uniE912
Encoding: 59666 59666 87
Width: 1048
VWidth: 1048
Flags: HW
LayerCount: 2
Fore
SplineSet
409 623 m 5
 308 442 l 6
 303 434 301 424 301 414 c 4
 301 404 303 394 308 386 c 6
 409 206 l 5
 300 9 l 5
 280 19 262 36 251 55 c 6
 78 356 l 6
 68 373 62 394 62 414 c 4
 62 434 68 455 78 472 c 6
 251 773 l 6
 262 792 280 808 300 818 c 5
 409 623 l 5
798 773 m 6
 971 472 l 6
 991 436 991 392 971 356 c 6
 798 55 l 6
 779 20 740 -3 697 -3 c 6
 524 -3 l 5
 739 386 l 6
 743 394 746 404 746 414 c 4
 746 424 743 434 739 442 c 6
 524 830 l 5
 697 830 l 6
 740 830 779 808 798 773 c 6
300 9 m 5
 514 394 l 6
 517 400 518 407 518 414 c 4
 518 421 517 427 514 433 c 6
 300 818 l 5
 315 825 333 830 351 830 c 6
 524 830 l 5
 739 442 l 6
 743 434 746 424 746 414 c 4
 746 404 743 394 739 386 c 6
 524 -3 l 5
 351 -3 l 6
 334 -3 315 2 300 9 c 5
EndSplineSet
EndChar

StartChar: uniE913
Encoding: 59667 59667 88
Width: 1048
VWidth: 1048
Flags: HW
LayerCount: 2
Fore
SplineSet
104 422 m 4
 104 653 293 841 524 841 c 4
 755 841 944 653 944 422 c 4
 944 191 755 2 524 2 c 4
 293 2 104 191 104 422 c 4
625 507 m 5
 625 362 l 5
 668 362 l 5
 668 384 l 5
 653 384 l 5
 653 528 l 5
 625 528 l 5
 625 507 l 5
248 384 m 5
 248 362 l 5
 306 362 l 5
 306 384 l 5
 292 384 l 5
 292 454 l 5
 313 454 l 5
 313 475 l 5
 292 475 l 5
 292 493 l 6
 292 503 295 504 305 504 c 4
 308 504 310 504 314 503 c 5
 318 526 l 5
 311 527 304 528 298 528 c 4
 268 528 262 519 262 495 c 6
 262 475 l 5
 248 473 l 5
 248 454 l 5
 262 454 l 5
 262 384 l 5
 248 384 l 5
609 391 m 4
 605 390 601 390 598 390 c 4
 586 390 587 395 587 406 c 6
 587 454 l 5
 610 454 l 5
 610 475 l 5
 587 475 l 5
 587 528 l 5
 558 528 l 5
 558 399 l 6
 558 373 564 362 592 362 c 4
 598 362 606 365 613 366 c 5
 609 391 l 4
522 454 m 5
 522 454 l 5
 544 454 l 5
 544 476 l 5
 531 479 516 482 498 482 c 4
 470 482 455 472 455 447 c 4
 455 421 474 413 500 409 c 4
 513 406 517 403 517 397 c 4
 517 393 515 386 501 386 c 4
 496 386 485 385 476 387 c 5
 476 391 l 5
 455 391 l 5
 455 370 l 5
 468 367 486 362 504 362 c 4
 532 362 544 374 544 400 c 4
 544 427 523 432 501 437 c 4
 487 440 484 444 484 449 c 4
 484 453 487 460 500 460 c 4
 505 460 513 460 522 458 c 5
 522 454 l 5
388 435 m 5
 386 437 l 5
 375 427 l 6
 374 427 374 428 373 428 c 4
 370 428 368 425 368 422 c 4
 368 419 370 417 373 417 c 4
 376 417 379 419 379 422 c 4
 379 423 378 423 378 424 c 6
 388 435 l 5
433 391 m 5
 433 481 l 5
 403 481 l 5
 403 473 l 5
 397 477 391 479 384 480 c 5
 384 480 l 5
 384 490 l 5
 388 490 l 5
 388 498 l 5
 358 498 l 5
 358 490 l 5
 362 490 l 5
 362 480 l 5
 362 480 l 5
 334 475 313 452 313 422 c 4
 313 389 340 362 373 362 c 4
 384 362 394 366 403 371 c 5
 409 362 l 5
 439 362 l 5
 439 391 l 5
 433 391 l 5
375 391 m 5
 375 395 l 5
 372 395 l 5
 372 391 l 5
 357 392 343 406 342 421 c 5
 346 421 l 5
 346 424 l 5
 342 424 l 5
 343 439 357 452 372 453 c 5
 372 450 l 5
 375 450 l 5
 375 453 l 5
 390 452 402 440 403 425 c 6
 403 424 l 5
 400 424 l 5
 400 420 l 5
 403 420 l 5
 403 419 l 6
 402 404 390 392 375 391 c 5
741 475 m 5
 740 454 l 5
 755 454 l 5
 734 402 l 5
 713 454 l 5
 727 454 l 5
 727 475 l 5
 668 475 l 5
 668 454 l 5
 682 454 l 5
 719 362 l 5
 715 349 700 342 688 342 c 4
 685 342 681 342 677 343 c 5
 675 316 l 5
 681 315 689 314 695 314 c 4
 722 314 740 338 750 364 c 6
 786 454 l 5
 801 454 l 5
 801 475 l 5
 741 475 l 5
EndSplineSet
EndChar

StartChar: uniE914
Encoding: 59668 59668 89
Width: 1073
VWidth: 1073
Flags: HW
LayerCount: 2
Fore
SplineSet
342 852 m 6
 731 852 l 5
 731 852 l 5
 762 851 789 836 804 809 c 6
 998 471 l 5
 998 471 l 5
 1005 458 1010 442 1010 428 c 5
 1010 428 l 5
 1010 414 1005 398 998 385 c 6
 804 47 l 5
 804 47 l 5
 790 20 762 3 731 2 c 6
 342 2 l 5
 342 2 l 5
 311 3 283 20 269 47 c 6
 75 387 l 5
 75 387 l 5
 60 414 60 445 75 472 c 6
 269 809 l 5
 269 809 l 5
 284 836 311 851 342 852 c 6
479 634 m 1029
804 47 m 6
 790 20 762 3 731 2 c 1030
367 634 m 5
 431 426 l 5
 367 220 l 5
 433 264 l 5
 483 425 l 5
 432 590 l 5
 367 634 l 5
535 560 m 5
 688 458 l 5
 566 458 l 5
 535 560 l 5
787 426 m 5
 479 634 l 5
 544 426 l 5
 479 220 l 5
 787 426 l 5
EndSplineSet
EndChar

StartChar: uniE915
Encoding: 59669 59669 90
Width: 1073
VWidth: 1073
Flags: HW
LayerCount: 2
Fore
SplineSet
155 432 m 1
 155 502 155 571 155 641 c 0
 155 649 158 653 165 657 c 0
 276 720 383 787 495 848 c 0
 505 854 513 849 513 838 c 0
 513 816 513 794 513 772 c 0
 513 738 513 706 513 672 c 0
 513 662 510 655 501 650 c 0
 447 619 392 588 338 557 c 0
 332 554 329 549 329 542 c 0
 329 468 329 396 329 322 c 0
 329 315 332 310 338 306 c 0
 401 270 465 235 527 198 c 0
 534 194 540 193 547 197 c 0
 598 227 650 257 701 287 c 0
 725 300 717 299 739 287 c 0
 785 260 831 234 877 207 c 0
 889 200 886 191 877 186 c 0
 766 123 655 61 545 -5 c 0
 540 -8 534 -8 529 -5 c 0
 415 61 302 125 188 191 c 0
 180 196 172 202 164 206 c 0
 158 209 155 215 155 222 c 0
 155 292 155 362 155 432 c 1
 155 432 l 1
919 264 m 2
 919 252 916 243 904 249 c 0
 854 277 806 306 756 334 c 0
 749 338 745 343 745 351 c 0
 745 414 745 478 745 541 c 0
 745 549 743 553 736 557 c 0
 680 589 624 621 568 653 c 0
 563 656 562 661 562 666 c 0
 562 724 562 782 562 840 c 0
 562 851 570 854 579 849 c 0
 689 786 798 721 908 658 c 0
 916 653 920 648 920 639 c 0
 920 577 920 513 920 451 c 1
 919 264 l 2
EndSplineSet
EndChar

StartChar: uniE916
Encoding: 59670 59670 91
Width: 778
VWidth: 1073
Flags: HW
LayerCount: 2
Fore
SplineSet
99 305 m 5
 184 849 l 6
 185 858 195 866 204 866 c 4
 211 866 217 862 220 856 c 6
 311 685 l 5
 99 305 l 5
700 173 m 5
 418 14 l 6
 410 10 398 7 388 7 c 4
 378 7 367 10 359 14 c 6
 79 173 l 5
 587 685 l 6
 590 688 596 690 601 690 c 4
 610 690 619 683 620 674 c 6
 700 173 l 5
472 610 m 5
 87 222 l 5
 373 735 l 6
 376 741 383 745 390 745 c 4
 397 745 404 741 407 735 c 6
 472 610 l 5
EndSplineSet
EndChar

StartChar: uniE917
Encoding: 59671 59671 92
Width: 1073
VWidth: 1073
Flags: HW
LayerCount: 2
Fore
SplineSet
872 521 m 5
 872 521 l 6
 892 521 909 504 909 484 c 4
 909 476 906 468 902 462 c 6
 888 441 l 5
 562 3 l 6
 559 0 556 -3 551 -3 c 4
 543 -3 537 3 537 11 c 6
 537 332 l 5
 202 332 l 5
 202 332 l 5
 182 332 165 349 165 369 c 4
 165 377 168 385 172 391 c 6
 186 412 l 5
 511 850 l 6
 514 853 517 856 522 856 c 4
 530 856 537 850 537 842 c 6
 537 521 l 5
 872 521 l 5
EndSplineSet
EndChar

StartChar: uniE918
Encoding: 59672 59672 93
Width: 1211
VWidth: 1048
Flags: HW
HStem: 0 142<290 605>
LayerCount: 2
Fore
SplineSet
290 142 m 1
 605 142 l 1
 686 0 l 1
 47 0 l 1
 271 389 l 1
 366 552 l 1
 446 412 l 1
 290 142 l 1
408 626 m 1
 485 760 l 1
 924 0 l 1
 769 0 l 1
 408 626 l 1
528 835 m 1
 684 835 l 1
 1165 0 l 1
 1010 0 l 1
 528 835 l 1
EndSplineSet
EndChar

StartChar: uniE919
Encoding: 59673 59673 94
Width: 997
VWidth: 1048
Flags: HW
HStem: 0 23G<87 926>
LayerCount: 2
Fore
SplineSet
976 4 m 5
 23 4 l 5
 499 842 l 5
 976 4 l 5
EndSplineSet
EndChar

StartChar: uniE91A
Encoding: 59674 59674 95
Width: 994
VWidth: 1073
Flags: HW
LayerCount: 2
Fore
SplineSet
701 552 m 5
 698 555 693 558 690 561 c 6
 690 561 689 561 689 562 c 6
 689 563 l 5
 707 669 l 5
 787 587 l 5
 703 552 l 5
 701 552 l 5
809 567 m 5
 895 480 l 6
 912 463 923 452 926 442 c 4
 926 441 927 440 927 438 c 5
 719 525 l 6
 718 525 717 526 717 527 c 4
 717 528 718 528 719 528 c 5
 719 529 l 5
 809 567 l 5
703 501 m 5
 707 501 l 5
 923 410 l 5
 919 402 909 392 895 378 c 6
 797 280 l 5
 671 306 l 5
 670 306 l 6
 669 306 668 307 668 308 c 4
 667 318 661 329 653 335 c 5
 653 337 l 5
 676 483 l 5
 676 483 l 5
 676 484 678 486 679 486 c 4
 689 487 697 493 703 501 c 5
660 281 m 6
 662 281 l 5
 775 258 l 5
 613 96 l 5
 642 266 l 5
 642 266 l 5
 642 266 l 5
 642 267 642 267 643 267 c 5
 643 268 l 5
 649 270 654 275 658 280 c 4
 659 281 659 281 660 281 c 6
562 44 m 5
 360 335 l 5
 360 335 l 5
 359 336 l 5
 360 337 l 5
 360 338 l 5
 361 339 361 339 362 340 c 5
 362 341 l 5
 362 341 l 5
 362 342 363 342 364 342 c 6
 366 342 l 5
 588 297 l 6
 589 297 589 296 589 296 c 5
 591 295 l 5
 594 284 602 272 613 268 c 4
 614 268 613 267 613 266 c 6
 613 265 l 6
 610 249 586 102 580 62 c 5
 562 44 l 5
542 25 m 5
 525 8 521 0 498 0 c 4
 494 0 488 0 484 1 c 4
 474 4 463 15 446 32 c 6
 246 233 l 5
 298 314 l 5
 299 315 l 6
 300 315 300 315 301 315 c 4
 306 314 311 313 316 313 c 4
 323 313 332 314 338 317 c 4
 339 317 340 317 340 317 c 5
 340 316 l 5
 542 25 l 5
276 333 m 4
 276 332 l 6
 226 253 l 5
 180 299 l 5
 271 338 l 5
 271 338 l 5
 272 338 273 338 273 337 c 4
 274 336 275 334 276 333 c 4
160 319 m 5
 100 378 l 6
 91 387 84 395 79 401 c 5
 257 365 l 5
 257 364 l 5
 258 364 260 363 260 362 c 4
 260 361 258 360 257 360 c 6
 160 319 l 5
270 389 m 5
 269 389 l 5
 69 431 l 5
 69 435 70 439 71 442 c 4
 74 452 83 463 100 480 c 6
 176 555 l 5
 211 505 245 454 280 404 c 4
 281 403 272 393 271 391 c 4
 271 390 270 389 270 389 c 5
297 675 m 5
 311 669 403 632 423 622 c 4
 424 622 424 622 424 621 c 6
 424 620 l 6
 423 617 423 613 423 610 c 4
 423 598 427 587 435 579 c 4
 436 578 436 576 435 575 c 6
 333 418 l 5
 332 417 l 6
 331 417 331 417 330 417 c 4
 326 418 321 419 317 419 c 4
 313 419 310 418 306 417 c 5
 305 417 l 5
 304 418 l 5
 196 574 l 5
 297 675 l 5
446 826 m 6
 463 843 474 854 484 857 c 4
 488 858 494 859 498 859 c 4
 502 859 508 858 512 857 c 4
 522 854 533 843 550 826 c 6
 578 798 l 5
 484 654 l 5
 483 653 l 6
 482 653 482 653 481 653 c 4
 477 654 473 655 468 655 c 4
 457 655 446 651 438 645 c 4
 437 644 437 645 436 645 c 4
 424 650 329 691 316 696 c 5
 446 826 l 6
662 564 m 5
 659 561 651 560 647 556 c 5
 646 556 l 5
 516 611 l 6
 515 611 514 612 514 613 c 4
 514 616 506 637 506 637 c 6
 597 778 l 5
 683 693 l 5
 662 565 l 5
 662 564 l 5
357 403 m 5
 355 405 355 405 357 407 c 5
 357 408 l 5
 458 563 l 5
 458 563 l 5
 459 564 460 565 461 565 c 6
 462 565 l 6
 464 565 466 564 468 564 c 4
 483 564 499 572 507 584 c 5
 507 585 l 5
 508 585 508 585 509 585 c 6
 631 534 l 6
 632 534 632 533 632 532 c 6
 633 531 l 5
 632 530 l 5
 632 522 l 6
 632 521 631 520 630 520 c 5
 630 520 l 5
 612 512 357 403 357 403 c 5
644 497 m 5
 645 497 l 6
 646 496 648 494 649 493 c 5
 649 493 l 5
 650 493 651 493 651 492 c 6
 650 490 l 5
 627 346 l 5
 627 346 l 5
 627 345 627 343 626 343 c 4
 614 342 601 334 595 324 c 5
 595 324 l 5
 594 323 l 5
 593 323 l 5
 373 368 l 5
 369 380 l 5
 644 497 l 5
EndSplineSet
EndChar

StartChar: uniE91B
Encoding: 59675 59675 96
Width: 1073
VWidth: 1073
Flags: HW
LayerCount: 2
Fore
SplineSet
485 303 m 5
 272 303 l 5
 248 351 l 5
 558 773 l 5
 660 857 l 5
 591 489 l 5
 801 489 l 5
 827 441 l 5
 485 -87 l 5
 429 -65 l 5
 485 303 l 5
218 660 m 4
 206 660 195 672 195 684 c 4
 195 696 206 707 218 707 c 4
 230 707 243 696 243 684 c 4
 243 672 230 660 218 660 c 4
281 660 m 4
 269 660 257 672 257 684 c 4
 257 696 269 707 281 707 c 4
 293 707 304 696 304 684 c 4
 304 672 293 660 281 660 c 4
343 660 m 4
 331 660 319 672 319 684 c 4
 319 696 331 707 343 707 c 4
 355 707 366 696 366 684 c 4
 366 672 355 660 343 660 c 4
910 770 m 5
 941 738 l 5
 941 54 l 5
 910 24 l 5
 612 24 l 5
 627 47 l 5
 900 47 l 5
 918 63 l 5
 918 729 l 5
 900 745 l 5
 712 745 l 5
 690 631 l 5
 666 631 l 5
 674 677 683 724 691 770 c 5
 910 770 l 5
164 25 m 5
 133 54 l 5
 133 738 l 5
 164 770 l 5
 473 770 l 5
 457 745 l 5
 174 745 l 5
 157 729 l 5
 157 63 l 5
 174 47 l 5
 398 47 l 5
 395 25 l 5
 164 25 l 5
211 101 m 5
 343 101 l 5
 338 78 l 5
 195 78 l 5
 187 86 l 5
 187 225 l 5
 211 179 l 5
 211 101 l 5
739 101 m 5
 762 78 l 5
 646 78 l 5
 660 101 l 5
 739 101 l 5
EndSplineSet
EndChar

StartChar: uniE91C
Encoding: 59676 59676 97
Width: 688
VWidth: 1073
Flags: HW
VStem: 30 139<331 499> 387 136<442 612>
LayerCount: 2
Fore
SplineSet
117 0 m 5
 117 62 l 5
 248 62 l 5
 248 102 l 5
 183 102 l 5
 183 166 l 5
 484 166 l 5
 345 408 l 5
 484 649 l 5
 176 649 l 5
 176 314 l 5
 10 314 l 5
 10 816 l 5
 581 816 l 5
 676 650 l 5
 536 408 l 5
 680 161 l 5
 586 0 l 5
 117 0 l 5
78 102 m 5
 78 166 l 5
 141 166 l 5
 141 102 l 5
 78 102 l 5
10 0 m 5
 10 63 l 5
 75 63 l 5
 75 0 l 5
 10 0 l 5
EndSplineSet
EndChar

StartChar: uniE91D
Encoding: 59677 59677 98
Width: 1073
VWidth: 1073
Flags: HW
HStem: -18 89 169 88 307 88 327 190 379 88 453 88 589 88 776 89
VStem: 81 89 426 190 663 88 782 88 844 88 905 88
LayerCount: 2
Fore
SplineSet
615 423 m 0xd3e0
 615 371 572 327 520 327 c 0
 468 327 426 371 426 423 c 0
 426 475 468 518 520 518 c 0
 572 518 615 475 615 423 c 0xd3e0
750 423 m 0
 750 398 731 379 706 379 c 0
 681 379 663 398 663 423 c 0
 663 448 681 467 706 467 c 0xcbe0
 731 467 750 448 750 423 c 0
932 213 m 0xc3e8
 932 188 913 169 888 169 c 0
 863 169 844 188 844 213 c 0
 844 238 863 257 888 257 c 0
 913 257 932 238 932 213 c 0xc3e8
869 351 m 0xe3f0
 869 326 850 307 825 307 c 0
 800 307 782 326 782 351 c 0
 782 376 800 395 825 395 c 0
 850 395 869 376 869 351 c 0xe3f0
993 349 m 0xc3e4
 993 324 974 305 949 305 c 0
 924 305 905 324 905 349 c 0
 905 374 924 393 949 393 c 0
 974 393 993 374 993 349 c 0xc3e4
868 497 m 0
 868 472 849 453 824 453 c 0
 799 453 780 472 780 497 c 0
 780 522 799 541 824 541 c 0xc7e0
 849 541 868 522 868 497 c 0
993 495 m 0
 993 470 974 451 949 451 c 0
 924 451 905 470 905 495 c 2
 905 495 l 2
 905 520 924 539 949 539 c 0
 974 539 993 520 993 495 c 0
931 633 m 0
 931 608 912 589 887 589 c 0
 862 589 843 608 843 633 c 0
 843 658 862 678 887 678 c 0
 912 678 931 658 931 633 c 0
522 865 m 0
 619 865 713 834 791 775 c 1
 737 703 l 1
 676 750 601 776 522 776 c 0
 428 776 339 740 272 673 c 0
 204 605 169 518 169 424 c 0
 169 330 205 241 272 174 c 0
 340 106 428 71 522 71 c 0
 601 71 675 95 736 142 c 1
 791 73 l 1
 713 14 619 -18 522 -18 c 0
 404 -18 294 28 210 112 c 0
 127 195 81 305 81 424 c 0
 81 542 127 652 210 736 c 0
 293 819 403 865 522 865 c 0
EndSplineSet
EndChar

StartChar: uniE91E
Encoding: 59678 59678 99
Width: 658
VWidth: 1073
Flags: HW
VStem: 69 276<165 595 4 756 4 756> 387 206<260 517>
LayerCount: 2
Fore
SplineSet
483 687 m 2
 542 652 592 576 592 517 c 2
 592 250 l 2
 592 191 541 170 483 205 c 2
 387 260 l 1
 387 622 l 1
 180 741 l 1
 180 861 l 1
 483 687 l 2
69 756 m 1
 345 595 l 1
 345 4 l 1
 69 165 l 1
 69 756 l 1
EndSplineSet
EndChar

StartChar: uniE91F
Encoding: 59679 59679 100
Width: 1073
VWidth: 1073
Flags: HW
VStem: 412 250
LayerCount: 2
Fore
SplineSet
135 885 m 1
 385 740 l 1
 385 452 l 1
 135 597 l 1
 135 885 l 1
938 724 m 1
 938 435 l 1
 689 292 l 1
 689 580 l 1
 938 724 l 1
412 724 m 1
 662 580 l 1
 662 292 l 1
 412 435 l 1
 412 724 l 1
412 403 m 1
 662 260 l 1
 662 -29 l 1
 412 117 l 1
 412 403 l 1
EndSplineSet
EndChar

StartChar: uniE920
Encoding: 59680 59680 101
Width: 875
VWidth: 1073
Flags: HW
HStem: 0 24G<438 477>
VStem: 69 210<212 465> 604 205<381 635>
LayerCount: 2
Fore
SplineSet
435 845 m 1
 809 635 l 1
 809 633 l 1
 604 521 l 1
 604 662 l 1
 487 592 l 1
 487 451 l 1
 366 519 l 1
 315 488 l 1
 69 633 l 1
 435 845 l 1
604 521 m 1
 801 633 l 1
 809 633 l 1
 809 212 l 1
 440 0 l 1
 438 0 l 1
 438 366 l 1
 507 324 l 1
 604 381 l 1
 604 521 l 1
389 394 m 1
 438 366 l 1
 438 0 l 1
 69 212 l 1
 69 633 l 1
 71 633 l 1
 319 490 l 1
 278 465 l 1
 278 183 l 1
 389 254 l 1
 389 394 l 1
EndSplineSet
EndChar

StartChar: uniE921
Encoding: 59681 59681 102
Width: 1073
VWidth: 1073
Flags: HW
LayerCount: 2
Fore
SplineSet
92 811 m 5
 981 811 l 5
 536 -51 l 5
 92 811 l 5
466 469 m 5
 466 540 l 5
 396 540 l 5
 396 469 l 5
 466 469 l 5
466 573 m 5
 466 645 l 5
 396 645 l 5
 396 573 l 5
 466 573 l 5
571 362 m 5
 572 433 l 5
 501 433 l 5
 501 362 l 5
 571 362 l 5
571 469 m 5
 572 540 l 5
 501 540 l 5
 501 469 l 5
 571 469 l 5
571 573 m 5
 572 645 l 5
 501 645 l 5
 501 573 l 5
 571 573 l 5
678 469 m 5
 678 540 l 5
 607 540 l 5
 607 469 l 5
 678 469 l 5
606 573 m 5
 678 573 l 5
 678 645 l 5
 606 645 l 5
 606 573 l 5
EndSplineSet
EndChar

StartChar: uniE922
Encoding: 59682 59682 103
Width: 877
VWidth: 1073
Flags: HW
LayerCount: 2
Fore
SplineSet
792 846 m 1
 869 732 l 1
 869 651 l 1
 639 13 l 1
 463 -88 l 1
 287 13 l 1
 8 691 l 1
 8 775 l 1
 134 846 l 1
 337 728 l 1
 337 656 l 1
 463 362 l 1
 586 656 l 1
 586 728 l 1
 792 846 l 1
EndSplineSet
EndChar

StartChar: uniE923
Encoding: 59683 59683 104
Width: 1330
VWidth: 1073
Flags: HW
HStem: 0 24G<516 516 816 816> 606 173<366 466 366 366>
LayerCount: 2
Fore
SplineSet
1266 779 m 1
 1116 520 l 1
 966 779 l 1
 1266 779 l 1
466 606 m 1
 366 606 l 1
 615 173 l 1
 516 0 l 1
 67 779 l 1
 566 779 l 1
 816 346 l 1
 866 433 l 1
 666 779 l 1
 866 779 l 1
 966 606 l 1
 1065 433 l 1
 816 0 l 1
 466 606 l 1
EndSplineSet
EndChar

StartChar: uniE924
Encoding: 59684 59684 105
Width: 1006
VWidth: 1073
Flags: HW
LayerCount: 2
Fore
SplineSet
211 432 m 1
 210 432 l 1
 210 432 l 1
 201 443 109 554 117 609 c 0
 127 681 271 857 271 857 c 1
 271 857 223 696 226 648 c 0
 228 618 278 581 290 572 c 1
 254 534 226 486 211 432 c 1
799 435 m 1
 784 488 756 535 720 573 c 1
 734 584 778 619 780 648 c 0
 783 696 736 857 736 857 c 1
 736 857 880 681 890 609 c 0
 897 556 814 452 799 434 c 1
 799 434 l 2
 799 435 l 1
799 434 m 2
 799 434 l 0
 800 432 l 1
 799 432 l 1
 799 228 l 1
 799 228 680 182 631 144 c 0
 589 111 512 0 512 0 c 1
 505 0 l 1
 505 335 l 1
 505 404 l 1
 506 404 l 2
 523 404 538 419 541 435 c 0
 541 437 542 439 542 441 c 0
 542 460 525 479 506 479 c 2
 506 479 l 1
 506 669 l 1
 589 669 664 632 720 573 c 0
 756 535 784 488 799 435 c 1
 799 434 l 2
505 335 m 1
 505 0 l 1
 505 0 l 1
 505 0 l 1
 497 0 l 1
 497 0 420 109 379 141 c 0
 330 179 210 226 210 226 c 1
 210 432 l 1
 211 432 l 1
 226 486 254 534 290 572 c 0
 346 631 423 668 506 668 c 1
 506 479 l 1
 505 479 l 2
 485 479 468 461 468 441 c 0
 468 438 468 435 469 432 c 0
 473 417 489 404 505 404 c 1
 505 335 l 1
EndSplineSet
EndChar

StartChar: uniE925
Encoding: 59685 59685 106
Width: 1073
VWidth: 1073
Flags: HW
LayerCount: 2
Fore
SplineSet
537 854 m 4
 553 854 567 840 568 825 c 5
 568 717 l 6
 568 701 553 687 537 687 c 4
 521 687 506 702 506 718 c 4
 506 754 506 789 506 825 c 4
 507 840 521 854 537 854 c 4
727 613 m 4
 711 613 695 628 695 644 c 4
 695 653 700 664 707 669 c 6
 791 737 l 6
 796 741 803 743 810 743 c 5
 810 743 l 5
 826 743 841 728 841 712 c 4
 841 703 836 694 830 689 c 6
 746 620 l 6
 741 616 734 613 727 613 c 4
347 613 m 4
 340 613 332 617 327 621 c 6
 244 689 l 6
 238 694 233 704 233 712 c 4
 233 728 249 743 265 743 c 5
 265 743 l 5
 271 743 278 740 283 737 c 6
 367 669 l 6
 374 664 379 654 379 645 c 4
 379 629 363 613 347 613 c 4
536 629 m 6
 537 629 l 6
 635 629 715 548 715 450 c 6
 715 397 l 5
 757 397 l 6
 775 397 791 382 791 364 c 6
 791 38 l 6
 791 20 775 4 757 4 c 6
 316 4 l 6
 298 4 283 20 283 38 c 6
 283 364 l 6
 283 382 298 397 316 397 c 6
 358 397 l 5
 358 450 l 6
 358 548 438 629 536 629 c 6
461 450 m 6
 461 397 l 5
 613 397 l 5
 613 450 l 6
 613 492 579 526 537 526 c 4
 495 526 461 492 461 450 c 6
798 509 m 6
 908 509 l 5
 923 508 936 493 936 477 c 4
 936 461 923 447 908 446 c 5
 800 446 l 6
 799 446 799 445 798 445 c 4
 782 445 767 461 767 477 c 4
 767 493 782 509 798 509 c 6
166 509 m 5
 272 509 l 5
 287 508 301 493 301 477 c 4
 301 461 287 447 272 446 c 5
 166 446 l 5
 151 447 137 461 137 477 c 4
 137 493 151 508 166 509 c 5
492 223 m 4
 492 207 502 190 515 183 c 5
 515 139 l 6
 515 128 526 119 537 119 c 4
 548 119 559 128 559 139 c 6
 559 183 l 5
 572 190 582 207 582 223 c 4
 582 249 563 268 537 268 c 4
 511 268 492 249 492 223 c 4
EndSplineSet
EndChar

StartChar: uniE926
Encoding: 59686 59686 107
Width: 1048
VWidth: 1048
Flags: HW
LayerCount: 2
Fore
SplineSet
791 438 m 5
 786 512 749 579 696 624 c 4
 696 630 697 637 697 643 c 4
 697 710 677 771 641 822 c 5
 761 787 857 703 907 591 c 5
 896 523 851 467 791 438 c 5
289 546 m 5
 269 508 257 465 257 420 c 4
 257 392 261 365 269 339 c 4
 233 288 213 226 213 158 c 4
 213 152 213 143 213 137 c 5
 145 212 104 310 104 419 c 4
 104 439 106 460 109 479 c 4
 147 521 202 548 262 548 c 4
 271 548 280 547 289 546 c 5
336 230 m 5
 383 183 448 154 520 153 c 5
 559 97 616 53 684 31 c 5
 635 11 580 0 524 0 c 4
 468 0 415 12 366 31 c 4
 339 66 323 111 323 158 c 4
 323 184 328 207 336 230 c 5
584 680 m 5
 565 684 543 687 523 687 c 4
 467 687 414 669 371 638 c 4
 337 650 300 657 262 657 c 4
 229 657 199 653 169 644 c 5
 232 744 337 815 459 834 c 5
 524 807 571 750 584 680 c 5
771 316 m 5
 840 331 900 369 944 420 c 5
 944 308 900 206 829 131 c 4
 814 127 797 126 781 126 c 4
 728 126 679 145 642 179 c 5
 700 208 746 257 771 316 c 5
394 420 m 4
 394 493 452 551 525 551 c 4
 598 551 656 493 656 420 c 4
 656 347 598 288 525 288 c 4
 452 288 394 347 394 420 c 4
EndSplineSet
EndChar

StartChar: uniE927
Encoding: 59687 59687 108
Width: 1073
VWidth: 1073
Flags: HW
LayerCount: 2
Fore
SplineSet
537 859 m 4
 600 859 651 830 651 793 c 4
 651 756 599 726 537 726 c 4
 475 726 422 756 422 793 c 4
 422 830 475 859 537 859 c 4
321 734 m 4
 383 734 435 705 435 668 c 4
 435 631 383 601 321 601 c 4
 259 601 206 631 206 668 c 4
 206 705 259 734 321 734 c 4
754 734 m 4
 816 734 868 705 868 668 c 4
 868 631 816 601 754 601 c 4
 692 601 639 631 639 668 c 4
 639 705 692 734 754 734 c 4
537 609 m 4
 599 609 651 579 651 542 c 4
 651 505 599 476 537 476 c 4
 475 476 422 505 422 542 c 4
 422 579 475 609 537 609 c 4
174 585 m 4
 205 586 242 558 269 513 c 4
 301 459 301 399 269 381 c 4
 237 364 187 392 155 446 c 4
 123 500 123 562 155 580 c 4
 161 583 167 585 174 585 c 4
900 585 m 4
 907 585 913 582 919 579 c 4
 951 561 952 500 920 446 c 4
 888 392 836 364 804 381 c 4
 772 399 772 459 804 513 c 4
 831 558 869 586 900 585 c 4
683 460 m 4
 690 460 696 457 702 454 c 4
 734 436 734 376 702 322 c 4
 670 268 620 238 588 256 c 4
 556 273 555 334 587 388 c 4
 614 433 652 461 683 460 c 4
391 460 m 4
 422 461 459 433 486 388 c 4
 518 334 517 273 485 256 c 4
 453 238 403 268 371 322 c 4
 339 376 339 436 371 454 c 4
 377 457 384 460 391 460 c 4
174 335 m 4
 205 336 242 308 269 263 c 4
 301 209 301 148 269 130 c 4
 237 113 187 142 155 196 c 4
 123 250 124 312 156 330 c 4
 162 333 167 335 174 335 c 4
900 335 m 4
 907 335 914 333 920 330 c 4
 952 312 952 250 920 196 c 4
 888 142 836 113 804 130 c 4
 772 148 772 209 804 263 c 4
 831 308 869 336 900 335 c 4
683 210 m 4
 690 210 696 208 702 205 c 4
 734 188 734 126 702 72 c 4
 670 18 620 -13 588 5 c 4
 556 22 556 84 588 138 c 4
 615 183 652 211 683 210 c 4
391 210 m 4
 422 211 459 182 486 137 c 4
 518 83 517 22 485 5 c 4
 453 -13 403 18 371 72 c 4
 339 126 339 187 371 205 c 4
 377 208 384 210 391 210 c 4
EndSplineSet
EndChar

StartChar: uniE928
Encoding: 59688 59688 109
Width: 1073
VWidth: 1073
Flags: HW
LayerCount: 2
Fore
SplineSet
758 568 m 1028
537 853 m 4
 774 853 966 661 966 424 c 4
 966 187 774 -6 537 -6 c 4
 300 -6 108 187 108 424 c 4
 108 661 300 853 537 853 c 4
465 672 m 5
 422 628 l 5
 461 589 l 5
 504 632 l 5
 542 594 l 5
 583 635 l 5
 465 754 l 5
 424 713 l 5
 465 672 l 5
339 712 m 5
 297 671 l 5
 339 630 l 5
 380 671 l 5
 339 712 l 5
214 507 m 5
 255 548 l 5
 214 588 l 5
 173 548 l 5
 214 507 l 5
254 465 m 5
 281 438 307 412 334 386 c 5
 389 441 443 496 498 551 c 5
 461 589 l 5
 420 549 l 5
 339 629 l 5
 297 588 l 5
 325 561 352 536 379 508 c 5
 337 465 l 5
 295 506 l 5
 254 465 l 5
429 301 m 5
 668 540 l 5
 670 538 671 533 671 530 c 4
 671 523 665 518 658 518 c 4
 651 518 646 523 646 530 c 4
 646 533 648 538 650 540 c 5
 594 596 l 5
 596 594 598 590 598 587 c 4
 598 580 592 574 585 574 c 4
 578 574 572 580 572 587 c 4
 572 590 573 594 575 596 c 5
 338 357 l 5
 336 359 334 363 334 366 c 4
 334 373 339 379 346 379 c 4
 353 379 358 373 358 366 c 4
 358 363 357 359 355 357 c 5
 411 301 l 5
 409 303 408 307 408 310 c 4
 408 317 414 323 421 323 c 4
 428 323 433 317 433 310 c 4
 433 307 431 303 429 301 c 5
816 173 m 4
 831 189 827 215 814 227 c 4
 798 242 779 260 763 276 c 4
 745 294 726 315 708 333 c 4
 701 340 691 345 681 345 c 4
 672 345 662 342 654 336 c 5
 645 345 635 355 627 364 c 4
 619 372 624 379 630 385 c 6
 731 486 l 6
 758 514 794 529 758 568 c 4
 742 585 723 604 706 620 c 4
 689 636 658 631 646 611 c 5
 666 592 l 5
 674 597 680 605 690 595 c 4
 704 581 719 566 733 552 c 4
 740 545 739 536 732 529 c 6
 651 449 l 6
 636 434 620 418 606 403 c 4
 593 390 589 373 597 356 c 5
 607 342 l 5
 615 333 627 320 635 312 c 5
 623 294 621 277 638 260 c 4
 670 228 699 199 731 167 c 4
 735 163 741 157 745 152 c 4
 754 142 777 140 788 147 c 4
 798 153 808 165 816 173 c 4
EndSplineSet
EndChar

StartChar: uniE929
Encoding: 59689 59689 110
Width: 1048
VWidth: 1048
Flags: HW
LayerCount: 2
Fore
SplineSet
884 496 m 6
 884 496 l 6
 918 458 938 407 938 353 c 4
 938 315 926 279 909 248 c 4
 879 197 829 158 770 146 c 4
 742 61 662 0 568 0 c 4
 568 0 l 4
 567 0 l 4
 505 0 449 28 411 71 c 4
 397 68 382 66 367 66 c 4
 288 66 220 109 183 172 c 4
 165 203 155 240 155 278 c 4
 155 302 158 323 165 343 c 4
 131 381 111 431 111 485 c 4
 111 524 121 560 139 591 c 4
 169 642 220 680 279 692 c 4
 307 777 386 839 480 839 c 4
 542 839 599 812 638 769 c 4
 652 772 667 773 682 773 c 4
 761 773 828 731 865 668 c 4
 883 637 894 600 894 561 c 4
 894 538 891 516 884 496 c 6
568 55 m 4
 655 55 725 125 725 212 c 6
 725 408 l 6
 725 409 725 409 724 409 c 6
 653 450 l 5
 653 214 l 6
 653 204 648 195 640 190 c 6
 473 94 l 5
 468 91 l 5
 496 68 530 55 568 55 c 4
 568 55 l 4
230 199 m 4
 258 152 309 121 367 121 c 4
 396 121 421 128 445 141 c 6
 614 239 l 6
 615 239 615 241 615 242 c 6
 615 323 l 5
 412 205 l 6
 408 203 402 202 397 202 c 4
 392 202 388 203 384 205 c 6
 217 301 l 5
 212 304 l 5
 210 295 210 287 210 278 c 4
 210 249 217 222 230 199 c 4
186 563 m 5
 186 563 l 5
 173 539 166 514 166 485 c 4
 166 427 197 377 244 349 c 6
 413 252 l 6
 415 251 l 4
 416 252 l 6
 486 293 l 5
 283 410 l 6
 275 414 269 423 269 433 c 4
 269 433 l 6
 269 632 l 5
 234 620 204 595 186 563 c 5
767 428 m 5
 767 428 l 5
 775 424 781 414 781 404 c 6
 781 206 l 5
 840 229 884 285 884 353 c 4
 884 411 852 461 805 489 c 6
 636 587 l 6
 635 588 l 4
 633 587 l 6
 563 547 l 5
 767 428 l 5
837 534 m 5
 837 535 l 6
 838 543 839 552 839 561 c 4
 839 648 769 718 682 718 c 4
 653 718 627 710 603 697 c 6
 435 600 l 6
 434 600 434 599 434 598 c 4
 434 598 l 6
 434 516 l 5
 638 634 l 6
 642 636 646 638 651 638 c 4
 656 638 662 636 666 634 c 6
 833 537 l 5
 837 534 l 5
395 389 m 5
 395 625 l 6
 395 635 401 643 409 648 c 6
 577 744 l 5
 581 748 l 5
 553 771 518 783 480 783 c 4
 393 783 324 714 324 627 c 6
 324 432 l 6
 324 431 324 430 325 430 c 6
 395 389 l 5
433 472 m 5
 434 367 l 5
 525 314 l 5
 615 367 l 5
 615 472 l 5
 524 524 l 5
 433 472 l 5
EndSplineSet
EndChar

StartChar: uniE92A
Encoding: 59690 59690 111
Width: 1032
VWidth: 1073
Flags: HW
HStem: -1 242 347 68 562 28 670 187
VStem: 115 162 115 187 731 187 758 162
LayerCount: 2
Fore
SplineSet
479 846 m 6xf8
 489 853 504 858 517 858 c 4xf8
 530 858 544 853 554 846 c 6
 888 627 l 6
 906 615 920 593 920 569 c 6xf9
 920 287 l 6
 920 263 906 240 888 228 c 6
 554 9 l 6
 544 2 530 -1 517 -1 c 4
 504 -1 489 2 479 9 c 6
 144 228 l 6
 126 240 114 262 114 287 c 5
 115 287 l 5xf6
 115 569 l 6
 115 593 126 615 144 627 c 6
 479 846 l 6xf8
543 589 m 5
 543 562 l 5
 329 562 l 6
 315 562 302 550 302 536 c 6
 302 428 l 5xf6
 285 428 l 6
 280 428 274 425 274 420 c 6
 274 330 l 6xf8
 274 325 280 321 285 321 c 6
 302 321 l 5
 302 267 l 6
 302 253 315 240 329 240 c 6
 705 240 l 6
 719 240 731 253 731 267 c 6
 731 321 l 5xf6
 749 321 l 6
 754 321 758 325 758 330 c 6
 758 420 l 6xf1
 758 425 754 428 749 428 c 6
 731 428 l 5
 731 536 l 6xf2
 731 550 719 562 705 562 c 6
 570 562 l 5
 570 660 l 6
 570 665 566 670 561 670 c 6
 499 670 l 6
 494 670 489 665 489 660 c 6
 489 598 l 6
 489 593 494 589 499 589 c 6
 543 589 l 5
660 407 m 6
 605 350 l 6
 603 348 600 347 597 347 c 4
 594 347 591 348 589 350 c 6
 556 385 l 6
 554 387 553 389 553 392 c 4
 553 395 554 397 556 399 c 6
 567 411 l 6
 569 413 571 414 574 414 c 4
 577 414 580 413 582 411 c 6
 597 396 l 5
 635 434 l 6
 637 436 639 437 642 437 c 4
 645 437 647 436 649 434 c 6
 660 423 l 6
 662 421 664 417 664 414 c 4
 664 411 662 409 660 407 c 6
426 350 m 6
 424 348 422 347 419 347 c 4
 416 347 412 348 410 350 c 6
 377 385 l 6
 375 387 374 389 374 392 c 4
 374 395 375 397 377 399 c 6
 388 411 l 6
 390 413 392 414 395 414 c 4
 398 414 401 413 403 411 c 6
 419 396 l 5
 455 434 l 6
 457 436 460 437 463 437 c 4
 466 437 469 436 471 434 c 6
 482 423 l 6
 484 421 485 417 485 414 c 4
 485 411 484 409 482 407 c 6
 426 350 l 6
EndSplineSet
EndChar

StartChar: uniE92B
Encoding: 59691 59691 112
Width: 1122
VWidth: 1048
Flags: HW
LayerCount: 2
Fore
SplineSet
734 723 m 1
 734 386 l 1
 1069 554 l 1
 734 723 l 1
394 217 m 1
 54 386 l 1
 54 723 l 1
 394 554 l 1
 394 217 l 1
54 740 m 0
 44 740 37 732 37 723 c 0
 37 714 45 706 54 706 c 0
 63 706 70 714 70 723 c 0
 70 729 66 735 61 738 c 1
 394 573 l 1
 726 738 l 1
 720 735 717 730 717 723 c 0
 717 714 725 706 734 706 c 0
 743 706 750 714 750 723 c 0
 750 730 747 735 741 738 c 1
 1076 569 l 1
 1074 570 1072 571 1069 571 c 0
 1060 571 1052 563 1052 554 c 0
 1052 545 1060 537 1069 537 c 0
 1078 537 1085 545 1085 554 c 1
 1085 217 l 0
 1085 226 1077 234 1068 234 c 0
 1059 234 1052 226 1052 217 c 0
 1052 208 1059 200 1068 200 c 0
 1071 200 1074 201 1076 202 c 1
 741 34 l 1
 747 37 751 42 751 49 c 0
 751 58 743 66 734 66 c 0
 725 66 717 58 717 49 c 1
 717 358 l 1
 401 202 l 1
 407 205 411 210 411 217 c 0
 411 226 403 235 394 235 c 0
 385 235 377 226 377 217 c 0
 377 210 380 205 386 202 c 1
 46 371 l 2
 44 371 43 371 41 371 c 1
 37 723 l 1
 37 714 45 706 54 706 c 0
 63 706 71 714 71 723 c 0
 71 732 63 740 54 740 c 0
EndSplineSet
EndChar

StartChar: uniE92C
Encoding: 59692 59692 113
Width: 1048
VWidth: 1048
Flags: HW
LayerCount: 2
Fore
SplineSet
418 415 m 4
 418 470 463 515 518 515 c 4
 573 515 618 470 618 415 c 4
 618 360 573 315 518 315 c 4
 463 315 418 360 418 415 c 4
518 835 m 4
 749 835 937 646 937 415 c 4
 937 183 749 -4 518 -4 c 4
 322 -4 158 130 112 311 c 4
 112 313 111 314 111 315 c 4
 111 326 120 335 131 335 c 6
 300 335 l 6
 308 335 315 331 318 324 c 4
 353 248 430 195 518 195 c 4
 639 195 738 294 738 415 c 4
 738 536 639 635 518 635 c 4
 430 635 353 582 318 507 c 4
 315 500 308 495 300 495 c 6
 131 495 l 6
 120 495 111 504 111 515 c 4
 111 517 112 518 112 519 c 4
 159 700 322 835 518 835 c 4
EndSplineSet
EndChar

StartChar: uniE92D
Encoding: 59693 59693 114
Width: 1048
VWidth: 1048
Flags: HW
LayerCount: 2
Fore
SplineSet
168 63 m 5
 315 63 l 5
 315 0 l 5
 105 0 l 5
 105 210 l 5
 168 210 l 5
 168 63 l 5
546 493 m 5
 598 441 l 5
 331 174 l 5
 279 226 l 5
 546 493 l 5
257 308 m 5
 227 276 l 5
 105 402 l 5
 105 594 l 6
 105 613 121 629 140 629 c 6
 398 629 l 5
 237 388 l 6
 223 367 226 340 244 322 c 6
 257 308 l 5
944 804 m 6
 944 492 l 6
 944 468 932 447 913 434 c 6
 483 147 l 6
 477 143 471 141 464 141 c 4
 454 141 445 145 439 151 c 6
 386 205 l 5
 398 217 611 430 622 441 c 5
 546 518 l 5
 309 281 l 5
 256 334 l 6
 250 340 246 349 246 359 c 4
 246 366 248 372 252 378 c 6
 538 808 l 6
 551 827 573 839 597 839 c 6
 909 839 l 6
 928 839 944 823 944 804 c 6
839 629 m 4
 839 687 792 734 734 734 c 4
 676 734 629 687 629 629 c 4
 629 571 676 524 734 524 c 4
 792 524 839 571 839 629 c 4
464 124 m 5
 464 124 l 6
 475 124 485 126 493 132 c 6
 734 293 l 5
 734 35 l 6
 734 16 718 0 699 0 c 6
 507 0 l 5
 384 122 l 5
 414 152 l 5
 427 139 l 6
 437 129 450 124 464 124 c 5
EndSplineSet
EndChar

StartChar: uniE92E
Encoding: 59694 59694 115
Width: 1048
VWidth: 1048
Flags: HW
LayerCount: 2
Fore
SplineSet
283 831 m 4
 379 831 457 753 457 657 c 4
 457 563 382 486 288 483 c 4
 288 475 288 460 293 451 c 4
 299 438 336 415 373 415 c 5
 373 415 l 5
 387 415 l 5
 395 474 446 520 508 520 c 4
 569 520 619 474 628 415 c 5
 628 415 l 5
 697 415 l 5
 706 474 757 520 818 520 c 4
 885 520 940 465 940 398 c 4
 940 331 885 275 818 275 c 4
 757 275 706 321 697 380 c 5
 697 380 l 5
 628 380 l 5
 619 321 569 275 508 275 c 4
 447 275 396 320 387 379 c 5
 387 379 l 5
 372 379 l 6
 348 379 322 385 302 399 c 4
 296 403 291 407 285 411 c 5
 285 411 l 5
 285 403 l 6
 285 400 285 362 285 319 c 6
 285 310 l 6
 285 282 285 253 286 232 c 4
 287 186 325 149 366 140 c 4
 371 139 381 138 387 139 c 4
 395 198 446 244 508 244 c 4
 575 244 630 189 630 122 c 4
 630 55 575 0 508 0 c 4
 447 0 396 45 387 103 c 5
 387 103 l 5
 376 103 l 6
 297 107 248 180 249 239 c 4
 250 313 249 388 249 462 c 5
 249 462 l 5
 249 486 l 5
 169 502 109 573 109 657 c 4
 109 753 187 831 283 831 c 4
508 208 m 4
 460 208 421 170 421 122 c 4
 421 74 460 36 508 36 c 4
 556 36 594 74 594 122 c 4
 594 170 556 208 508 208 c 4
508 484 m 4
 460 484 421 446 421 398 c 4
 421 350 460 311 508 311 c 4
 556 311 594 350 594 398 c 4
 594 446 556 484 508 484 c 4
818 484 m 4
 770 484 731 446 731 398 c 4
 731 350 770 311 818 311 c 4
 866 311 904 350 904 398 c 4
 904 446 866 484 818 484 c 4
867 434 m 4
 874 427 873 416 867 409 c 6
 867 409 l 5
 814 356 l 6
 807 349 796 349 789 355 c 6
 789 355 l 5
 763 381 l 6
 756 388 756 399 763 406 c 4
 770 413 780 413 787 407 c 6
 788 406 l 5
 801 393 l 5
 841 434 l 6
 848 441 860 441 867 434 c 4
555 434 m 4
 562 427 562 416 556 409 c 6
 555 409 l 5
 502 356 l 6
 495 349 485 349 478 355 c 6
 477 356 l 5
 451 381 l 6
 444 388 444 399 451 406 c 4
 458 413 469 413 476 407 c 6
 476 407 l 5
 490 394 l 5
 530 434 l 6
 537 441 548 441 555 434 c 4
283 795 m 4
 207 795 145 733 145 657 c 4
 145 581 207 518 283 518 c 4
 359 518 421 581 421 657 c 4
 421 733 359 795 283 795 c 4
269 739 m 4
 298 722 327 704 355 685 c 4
 379 669 378 641 354 625 c 4
 325 606 296 588 266 571 c 4
 242 557 216 574 215 602 c 4
 215 620 214 638 214 656 c 4
 214 674 215 691 215 709 c 4
 216 739 243 754 269 739 c 4
249 711 m 5
 249 698 l 6
 249 692 249 686 249 680 c 6
 249 668 l 5
 249 650 l 6
 249 636 249 623 249 609 c 4
 249 603 253 603 257 606 c 4
 282 621 306 636 331 651 c 4
 335 654 335 656 331 659 c 4
 305 676 278 693 249 711 c 5
541 104 m 4
 551 104 559 112 559 122 c 4
 559 132 551 140 541 140 c 4
 531 140 523 132 523 122 c 4
 523 112 531 104 541 104 c 1028
473 104 m 4
 483 104 491 112 491 122 c 4
 491 132 483 140 473 140 c 4
 463 140 455 132 455 122 c 4
 455 112 463 104 473 104 c 1028
818 36 m 4
 770 36 731 74 731 122 c 4
 731 170 770 208 818 208 c 4
 866 208 904 170 904 122 c 4
 904 74 866 36 818 36 c 4
818 244 m 4
 757 244 706 199 697 140 c 5
 677 140 l 6
 668 140 661 132 661 122 c 4
 661 112 668 104 677 104 c 6
 697 104 l 5
 706 45 757 0 818 0 c 4
 885 0 940 55 940 122 c 4
 940 189 885 244 818 244 c 1028
EndSplineSet
EndChar

StartChar: uniE92F
Encoding: 59695 59695 116
Width: 1048
VWidth: 1048
Flags: HW
LayerCount: 2
Fore
SplineSet
524 236 m 5
 474 265 l 5
 624 526 l 5
 675 497 l 5
 675 323 l 5
 524 236 l 5
373 497 m 5
 524 584 l 5
 575 555 l 5
 424 294 l 5
 373 323 l 5
 373 497 l 5
495 184 m 5
 495 -1 l 5
 153 196 l 5
 153 590 l 5
 314 497 l 5
 314 289 l 5
 495 184 l 5
343 548 m 5
 182 641 l 5
 524 838 l 5
 866 641 l 5
 705 548 l 5
 524 653 l 5
 343 548 l 5
734 289 m 5
 734 497 l 5
 895 590 l 5
 895 196 l 5
 554 -1 l 5
 554 184 l 5
 734 289 l 5
EndSplineSet
EndChar

StartChar: uniE930
Encoding: 59696 59696 117
Width: 1294
VWidth: 1048
Flags: HW
LayerCount: 2
Fore
SplineSet
879 745 m 0
 880 745 880 745 881 745 c 0
 969 745 1049 711 1108 655 c 1
 996 542 l 2
 966 569 925 586 881 586 c 0
 787 586 710 510 710 416 c 0
 710 372 727 331 754 301 c 2
 642 189 l 1
 586 248 551 328 551 416 c 0
 551 507 588 589 648 649 c 0
 707 708 789 744 879 745 c 0
416 745 m 0
 489 745 557 721 611 680 c 2
 616 676 l 1
 534 536 l 1
 503 567 461 586 414 586 c 0
 370 586 329 569 299 542 c 2
 187 654 l 1
 246 710 326 745 414 745 c 0
 415 745 415 745 416 745 c 0
1120 643 m 1
 1176 584 1210 505 1210 417 c 0
 1210 235 1062 87 880 87 c 0
 792 87 712 121 653 177 c 1
 766 290 l 2
 796 262 837 245 881 245 c 0
 975 245 1052 322 1052 416 c 0
 1052 460 1036 501 1008 531 c 2
 1120 643 l 1
175 643 m 1
 287 530 l 2
 260 500 243 460 243 416 c 0
 243 372 259 331 287 301 c 2
 175 189 l 1
 119 248 85 328 85 416 c 0
 85 504 119 584 175 643 c 1
534 295 m 1
 616 157 l 1
 609 151 l 2
 480 56 303 68 187 177 c 1
 299 289 l 2
 366 228 469 230 534 295 c 1
EndSplineSet
EndChar

StartChar: uniE931
Encoding: 59697 59697 118
Width: 1073
VWidth: 1073
Flags: HW
LayerCount: 2
Fore
SplineSet
550 413 m 5
 640 669 l 5
 770 669 l 5
 551 129 l 5
 413 129 l 5
 476 276 l 5
 322 669 l 5
 455 669 l 5
 550 413 l 5
537 857 m 4
 774 857 967 665 967 428 c 4
 967 191 774 -2 537 -2 c 4
 300 -2 106 191 106 428 c 4
 106 665 300 857 537 857 c 4
537 803 m 4
 329 803 162 636 162 428 c 4
 162 220 329 51 537 51 c 4
 745 51 912 220 912 428 c 4
 912 636 745 803 537 803 c 4
EndSplineSet
EndChar

StartChar: uniE932
Encoding: 59698 59698 119
Width: 1048
VWidth: 1048
Flags: HW
LayerCount: 2
Fore
SplineSet
53 415 m 5
 289 415 l 5
 524 829 l 5
 995 829 l 5
 995 415 l 5
 760 415 l 5
 524 0 l 5
 53 0 l 5
 53 415 l 5
EndSplineSet
EndChar

StartChar: uniE933
Encoding: 59699 59699 120
Width: 1005
VWidth: 1073
Flags: HW
HStem: -2 213<294 358 468 720>
VStem: 713 223<208 552>
LayerCount: 2
Fore
SplineSet
453 451 m 5
 510 594 l 5
 623 316 l 5
 453 451 l 5
502 865 m 4
 741 865 936 671 936 432 c 4
 936 193 741 -2 502 -2 c 4
 263 -2 71 193 71 432 c 4
 71 671 263 865 502 865 c 4
713 240 m 4
 713 244 712 250 710 254 c 6
 537 669 l 6
 533 680 521 687 510 687 c 4
 499 687 487 680 483 669 c 6
 294 214 l 5
 358 214 l 5
 433 401 l 5
 657 220 l 6
 665 213 673 211 681 211 c 4
 697 211 713 224 713 240 c 4
EndSplineSet
EndChar

StartChar: uniE934
Encoding: 59700 59700 121
Width: 1073
VWidth: 1073
Flags: HW
LayerCount: 2
Fore
SplineSet
673 822 m 6
 678 826 683 829 690 829 c 4
 705 829 718 818 718 803 c 6
 718 803 l 5
 718 607 l 5
 459 402 l 5
 326 504 l 5
 673 822 l 6
227 409 m 5
 339 307 l 5
 209 213 l 6
 203 209 195 206 187 206 c 4
 178 206 169 209 163 215 c 6
 116 258 l 6
 115 259 114 260 113 261 c 4
 107 267 103 276 103 285 c 4
 103 295 109 305 116 311 c 6
 227 409 l 5
718 251 m 5
 718 56 l 6
 718 41 705 30 690 30 c 4
 683 30 677 32 672 36 c 6
 116 547 l 6
 115 548 114 548 113 549 c 4
 107 555 103 564 103 573 c 4
 103 583 109 594 116 600 c 6
 163 644 l 6
 169 650 178 653 187 653 c 4
 195 653 203 650 209 646 c 6
 718 251 l 5
761 4 m 6
 754 1 745 -1 737 -1 c 4
 722 -1 709 4 699 14 c 5
 705 8 714 5 722 5 c 4
 739 5 754 20 754 37 c 6
 754 822 l 6
 754 839 739 854 722 854 c 4
 713 854 705 850 699 844 c 5
 709 854 722 860 737 860 c 4
 745 860 754 858 761 855 c 6
 939 769 l 6
 957 761 970 742 970 720 c 6
 970 138 l 5
 970 138 l 6
 970 116 958 98 940 89 c 6
 761 4 l 6
EndSplineSet
EndChar

StartChar: uniE935
Encoding: 59701 59701 122
Width: 1048
VWidth: 1048
Flags: HW
LayerCount: 2
Fore
SplineSet
170 209 m 5
 170 613 l 5
 515 403 l 5
 515 0 l 5
 170 209 l 5
879 209 m 5
 534 0 l 5
 534 403 l 5
 879 613 l 5
 879 209 l 5
870 629 m 5
 524 420 l 5
 178 629 l 5
 524 839 l 5
 870 629 l 5
EndSplineSet
EndChar

StartChar: uniE936
Encoding: 59702 59702 123
Width: 1261
VWidth: 1048
Flags: HW
LayerCount: 2
Fore
SplineSet
1216 510 m 5
 1216 510 l 5
 1240 495 l 5
 1235 486 l 6
 1227 469 1226 464 1225 462 c 4
 1183 377 1099 377 1060 378 c 5
 961 130 751 -7 466 -7 c 4
 335 -7 234 35 167 118 c 4
 78 226 78 368 86 413 c 6
 88 422 l 5
 873 422 l 6
 914 422 946 433 961 442 c 5
 945 467 939 495 938 511 c 4
 935 556 945 604 967 638 c 6
 985 664 l 5
 1010 646 l 6
 1053 611 1078 571 1083 526 c 5
 1130 535 1190 528 1216 510 c 5
715 829 m 5
 715 829 l 5
 715 716 l 5
 596 716 l 5
 596 829 l 5
 715 829 l 5
715 693 m 5
 715 693 l 5
 715 580 l 5
 596 580 l 5
 596 693 l 5
 715 693 l 5
574 693 m 5
 574 693 l 5
 574 580 l 5
 455 580 l 5
 455 693 l 5
 574 693 l 5
433 693 m 5
 433 693 l 5
 433 580 l 5
 314 580 l 5
 314 693 l 5
 433 693 l 5
292 557 m 5
 292 557 l 5
 292 444 l 5
 172 444 l 5
 172 557 l 5
 292 557 l 5
433 557 m 5
 433 557 l 5
 433 444 l 5
 314 444 l 5
 314 557 l 5
 433 557 l 5
574 557 m 5
 574 557 l 5
 574 444 l 5
 455 444 l 5
 455 557 l 5
 574 557 l 5
715 557 m 5
 715 557 l 5
 715 444 l 5
 596 444 l 5
 596 557 l 5
 715 557 l 5
857 557 m 5
 857 557 l 5
 857 444 l 5
 737 444 l 5
 737 557 l 5
 857 557 l 5
EndSplineSet
EndChar

StartChar: uniE937
Encoding: 59703 59703 124
Width: 1048
VWidth: 1048
Flags: HW
LayerCount: 2
Fore
SplineSet
463 18 m 6
 204 165 l 5
 169 186 148 225 148 266 c 6
 148 561 l 6
 148 604 169 642 208 664 c 6
 464 811 l 6
 501 833 547 833 584 811 c 6
 840 665 l 6
 877 644 901 605 901 561 c 6
 901 265 l 6
 901 232 885 190 844 165 c 5
 586 18 l 6
 567 6 544 0 524 0 c 4
 503 0 482 7 463 18 c 6
247 587 m 5
 240 582 234 575 234 561 c 6
 234 262 l 5
 235 254 238 247 247 240 c 5
 507 92 l 6
 516 86 530 85 541 92 c 6
 800 240 l 6
 808 245 813 253 814 262 c 5
 814 561 l 6
 814 571 809 581 801 587 c 5
 542 736 l 6
 529 744 515 741 507 736 c 4
 247 587 l 5
EndSplineSet
EndChar

StartChar: uniE938
Encoding: 59704 59704 125
Width: 1048
VWidth: 1048
Flags: HW
LayerCount: 2
Fore
SplineSet
278 426 m 5
 316 448 349 451 361 452 c 5
 363 466 366 480 370 493 c 5
 358 502 334 521 312 549 c 5
 347 552 377 548 392 545 c 5
 400 558 410 570 421 582 c 5
 414 593 402 616 394 647 c 5
 422 635 444 619 454 611 c 5
 468 621 483 630 498 638 c 5
 498 651 498 675 504 703 c 5
 524 682 535 662 540 652 c 5
 559 656 579 658 600 657 c 5
 604 667 611 684 624 706 c 5
 633 682 637 662 639 652 c 5
 660 647 680 640 699 631 c 5
 729 656 757 668 790 676 c 5
 790 717 785 759 763 799 c 5
 741 809 718 816 694 822 c 5
 670 809 650 794 633 778 c 5
 621 797 605 817 585 835 c 5
 576 835 557 836 522 830 c 5
 505 808 493 787 484 765 c 5
 463 778 437 789 408 797 c 5
 391 789 375 780 359 771 c 5
 353 744 352 719 353 695 c 5
 329 700 300 702 270 698 c 5
 260 687 249 674 240 661 c 5
 242 627 250 598 262 573 c 5
 234 566 205 554 178 535 c 5
 174 523 171 509 168 497 c 5
 185 468 207 445 229 427 c 5
 207 409 185 384 165 351 c 5
 167 337 170 324 174 311 c 5
 175 311 l 5
 198 358 225 389 251 410 c 5
 305 373 357 363 365 362 c 5
 364 370 362 379 361 390 c 5
 345 394 313 404 278 426 c 5
747 707 m 5
 730 700 703 689 678 668 c 5
 674 686 667 712 653 742 c 5
 670 759 692 776 719 790 c 5
 738 762 745 727 747 707 c 5
606 747 m 5
 586 722 575 697 568 680 c 5
 559 697 541 719 516 742 c 5
 524 764 536 787 554 809 c 5
 577 790 594 768 606 747 c 5
473 729 m 5
 464 696 462 667 462 648 c 5
 445 660 421 676 389 686 c 5
 386 709 386 735 393 763 c 5
 426 756 451 744 473 729 c 5
387 577 m 5
 365 581 332 583 295 578 c 5
 283 602 274 631 272 664 c 5
 304 668 334 665 359 659 c 5
 366 622 378 595 387 577 c 5
278 545 m 5
 298 514 323 491 340 477 c 5
 318 473 286 465 252 443 c 5
 231 459 211 481 194 509 c 5
 221 529 251 539 278 545 c 5
167 498 m 5
 182 562 204 611 239 661 c 5
 239 662 l 5
 248 674 258 686 270 699 c 5
 272 699 l 5
 297 726 326 750 358 770 c 5
 359 772 l 5
 359 772 l 5
 376 782 392 791 409 798 c 5
 411 797 l 5
 446 812 482 824 521 830 c 5
 522 831 l 5
 543 834 559 836 574 836 c 4
 577 836 580 836 583 836 c 6
 586 836 l 6
 626 836 661 831 695 823 c 5
 697 823 l 5
 721 817 743 809 763 799 c 5
 764 799 l 5
 802 779 841 754 871 726 c 4
 890 711 889 685 875 668 c 4
 869 661 842 634 829 621 c 6
 819 610 l 6
 807 598 799 591 795 589 c 4
 776 580 761 584 745 598 c 4
 731 611 715 621 699 629 c 5
 699 630 l 5
 698 630 l 5
 680 639 662 646 641 651 c 5
 640 650 l 5
 627 653 614 655 601 656 c 5
 600 656 l 5
 600 656 l 5
 581 657 561 655 542 651 c 5
 541 651 l 5
 528 649 509 644 500 637 c 5
 499 637 l 5
 498 637 l 5
 481 628 467 620 454 611 c 5
 453 611 l 5
 446 605 440 600 433 593 c 6
 424 584 l 6
 423 583 422 582 421 582 c 6
 421 582 l 5
 410 570 401 557 394 545 c 5
 394 544 l 5
 373 505 370 492 362 452 c 5
 362 451 l 5
 359 432 359 410 362 390 c 5
 363 389 364 382 364 380 c 6
 365 368 l 6
 365 366 365 362 367 362 c 6
 368 361 l 5
 409 195 605 131 741 238 c 4
 779 267 797 252 822 227 c 6
 842 206 l 6
 862 185 911 153 873 112 c 4
 779 14 628 -22 483 13 c 4
 332 50 215 157 175 310 c 5
 175 310 l 5
 174 310 l 5
 173 311 l 5
 169 325 167 338 165 352 c 5
 167 355 l 5
 160 401 160 450 169 495 c 5
 167 498 l 5
176 311 m 5
 177 314 179 317 180 320 c 5
 179 317 177 314 176 311 c 5
 176 311 l 5
698 632 m 5
 725 654 752 668 789 677 c 5
 789 711 780 738 769 777 c 4
 767 784 765 792 762 798 c 5
 742 808 720 815 695 821 c 5
 672 809 652 794 634 777 c 5
 633 777 l 6
 633 777 l 6
 632 778 l 5
 619 798 603 818 585 834 c 5
 578 834 l 5
 574 834 l 6
 560 834 545 833 525 830 c 5
 509 809 496 788 486 764 c 5
 484 763 l 5
 462 777 438 787 410 795 c 5
 393 787 377 778 361 769 c 5
 356 744 354 719 355 694 c 5
 354 693 l 5
 328 698 299 699 272 696 c 5
 261 685 251 672 242 659 c 5
 244 627 252 599 264 573 c 5
 264 572 l 5
 235 565 206 552 178 534 c 5
 176 528 175 521 173 514 c 6
 171 503 l 6
 171 502 170 500 170 499 c 4
 186 471 207 447 231 427 c 5
 231 425 l 5
 205 403 185 378 168 347 c 5
 168 349 167 350 167 352 c 5
 166 352 l 4
 168 339 172 326 175 313 c 5
 196 355 221 387 251 411 c 5
 252 411 l 5
 253 410 l 5
 254 410 l 5
 283 390 324 369 364 363 c 5
 363 371 362 380 361 388 c 5
 336 394 306 406 277 424 c 4
 277 425 277 426 277 427 c 4
 307 444 333 451 360 453 c 5
 362 467 366 480 369 492 c 5
 349 506 328 528 312 549 c 5
 312 550 l 5
 340 552 367 551 392 546 c 5
 399 559 408 570 419 582 c 5
 408 602 399 623 393 649 c 5
 394 648 l 5
 395 649 l 5
 419 639 437 627 454 613 c 5
 467 622 482 630 497 638 c 5
 497 641 l 6
 497 663 499 683 503 703 c 5
 504 703 l 5
 504 703 l 5
 505 703 l 5
 521 687 531 673 542 653 c 5
 557 656 573 658 589 658 c 4
 592 658 596 658 599 658 c 5
 605 674 614 692 624 709 c 5
 625 707 l 5
 626 707 l 5
 634 685 640 665 641 652 c 5
 662 647 680 641 698 632 c 5
254 442 m 4
 253 442 253 442 252 442 c 4
 229 460 209 482 193 508 c 5
 193 510 l 5
 218 528 246 538 278 545 c 5
 279 545 l 6
 279 545 l 6
 280 545 l 5
 297 518 319 497 343 476 c 5
 341 476 l 5
 340 476 l 5
 306 470 281 459 254 442 c 4
388 575 m 5
 359 580 328 581 295 576 c 5
 294 577 l 5
 280 605 272 633 270 663 c 5
 271 664 l 5
 271 664 l 5
 272 665 l 5
 302 668 331 666 359 660 c 5
 360 660 l 5
 366 628 376 600 389 575 c 5
 388 575 l 5
 388 575 l 5
394 764 m 5
 425 758 450 747 474 730 c 5
 474 729 l 5
 466 701 463 673 463 648 c 5
 462 647 l 5
 461 648 l 5
 461 647 l 5
 439 663 415 676 387 685 c 5
 387 686 l 5
 385 711 387 740 392 763 c 5
 394 764 l 5
652 742 m 5
 653 743 l 5
 671 762 693 778 719 791 c 4
 720 791 l 4
 736 767 745 737 748 708 c 4
 747 707 l 4
 724 697 699 685 678 667 c 4
 677 668 l 5
 671 695 664 717 652 742 c 5
568 678 m 5
 554 702 536 722 515 742 c 5
 515 742 l 5
 515 743 l 5
 525 768 538 790 554 810 c 5
 555 810 l 5
 576 792 594 770 607 747 c 5
 607 746 l 4
 589 723 576 700 568 678 c 5
593 131 m 4
 463 131 357 238 327 318 c 5
 327 318 300 319 263 334 c 5
 263 334 247 311 236 273 c 5
 374 14 665 -8 836 142 c 5
 836 142 836 143 833 147 c 4
 819 162 784 202 780 200 c 4
 729 157 665 131 593 131 c 4
EndSplineSet
EndChar

StartChar: uniE939
Encoding: 59705 59705 126
Width: 1012
VWidth: 1073
Flags: HW
LayerCount: 2
Fore
SplineSet
934 853 m 1
 934 -1 l 1
 80 -1 l 1
 80 853 l 1
 934 853 l 1
469 288 m 1
 323 288 l 1
 323 90 l 1
 473 90 l 1
 473 124 l 1
 362 124 l 1
 362 177 l 1
 462 177 l 1
 462 211 l 1
 362 211 l 1
 362 254 l 1
 469 254 l 1
 469 288 l 1
 469 288 l 1
545 288 m 1
 507 288 l 1
 507 90 l 1
 543 90 l 1
 543 219 l 1
 623 90 l 1
 663 90 l 1
 663 288 l 1
 626 288 l 1
 626 157 l 1
 545 288 l 1
 545 288 l 1
728 288 m 1
 685 288 l 1
 755 90 l 1
 797 90 l 1
 867 288 l 1
 825 288 l 1
 777 141 l 1
 728 288 l 1
 728 288 l 1
271 152 m 1
 212 152 l 1
 212 92 l 1
 271 92 l 1
 271 152 l 1
EndSplineSet
EndChar

StartChar: uniE93A
Encoding: 59706 59706 127
Width: 1006
VWidth: 1073
Flags: HW
HStem: -33 77<408 484>
VStem: 17 76<394 445> 253 120<581 625> 645 135<741 756>
LayerCount: 2
Fore
SplineSet
87 537 m 0
 158 837 543 964 776 761 c 0
 785 755 792 744 792 732 c 0
 792 728 791 723 790 719 c 2
 582 206 l 2
 564 156 547 138 509 138 c 0
 471 138 453 156 435 206 c 2
 295 578 l 1
 268 630 337 673 380 654 c 0
 393 647 404 636 408 621 c 2
 493 355 l 1
 497 326 518 325 522 355 c 1
 664 735 l 2
 665 736 665 739 665 741 c 0
 665 745 661 750 657 752 c 0
 610 777 558 787 504 787 c 0
 470 787 437 782 406 774 c 0
 337 756 278 717 232 665 c 0
 178 604 143 519 143 430 c 0
 143 376 155 321 179 274 c 0
 235 153 361 74 502 74 c 0
 580 74 653 97 710 139 c 0
 800 202 858 309 858 430 c 0
 858 457 854 480 849 507 c 0
 843 534 834 556 824 583 c 1
 818 618 878 648 892 605 c 1
 1021 353 830 30 552 3 c 0
 537 1 521 0 506 0 c 0
 375 0 260 58 180 148 c 0
 115 225 75 325 75 433 c 0
 75 470 79 503 87 537 c 0
EndSplineSet
EndChar

StartChar: uniE93B
Encoding: 59707 59707 128
Width: 1073
VWidth: 1073
Flags: HW
LayerCount: 2
Fore
SplineSet
603 380 m 5
 603 662 l 5
 797 574 l 5
 603 380 l 5
232 7 m 5
 471 456 l 5
 574 351 l 5
 232 7 l 5
 232 7 l 5
96 853 m 5
 586 674 l 5
 586 362 l 5
 96 853 l 5
897 674 m 5
 977 513 l 5
 614 674 l 5
 897 674 l 5
EndSplineSet
EndChar

StartChar: uniE93C
Encoding: 59708 59708 129
Width: 1073
VWidth: 1073
Flags: HW
LayerCount: 2
Fore
SplineSet
537 853 m 4
 557 853 579 846 595 837 c 6
 866 680 l 6
 901 661 924 623 924 580 c 6
 924 580 l 5
 924 266 l 5
 925 266 l 5
 925 223 901 185 866 166 c 6
 595 9 l 6
 579 0 557 -6 537 -6 c 4
 517 -6 495 0 479 9 c 6
 208 166 l 6
 172 186 150 225 150 266 c 6
 150 580 l 5
 148 580 l 5
 148 623 173 661 208 680 c 6
 479 837 l 6
 496 847 518 853 537 853 c 4
537 769 m 5
 537 423 l 5
 238 596 l 6
 235 592 233 585 233 580 c 6
 233 266 l 6
 233 255 241 244 250 239 c 6
 521 82 l 6
 525 80 532 78 537 78 c 5
 537 423 l 5
 836 596 l 5
 833 600 829 604 824 607 c 6
 553 764 l 6
 548 767 542 769 537 769 c 5
EndSplineSet
EndChar

StartChar: uniE93D
Encoding: 59709 59709 130
Width: 1073
VWidth: 1073
Flags: HW
LayerCount: 2
Fore
SplineSet
226 254 m 0
 176 292 117 328 52 378 c 1
 286 472 l 1
 383 396 l 1
 310 312 264 286 226 254 c 0
871 506 m 1
 921 379 963 260 1021 139 c 1
 995 151 988 165 956 191 c 0
 939 208 924 224 907 236 c 0
 901 242 883 254 871 260 c 0
 787 304 720 216 667 151 c 0
 635 119 610 86 578 54 c 0
 546 22 519 6 469 -6 c 0
 457 32 438 57 426 95 c 0
 409 145 385 211 335 228 c 0
 309 240 286 234 286 234 c 1
 298 246 374 301 463 402 c 0
 608 576 624 741 624 741 c 1
 571 589 491 513 426 434 c 2
 335 499 l 1
 341 505 348 512 348 518 c 0
 365 535 383 562 400 579 c 0
 412 585 427 595 444 595 c 0
 450 595 457 601 463 601 c 0
 489 613 504 632 521 644 c 0
 527 650 541 664 547 676 c 0
 573 708 607 752 624 784 c 0
 630 810 656 843 673 849 c 0
 679 849 685 856 691 856 c 0
 723 856 745 812 757 795 c 0
 789 751 805 704 822 651 c 0
 839 601 854 556 871 506 c 1
EndSplineSet
EndChar
